<svg width="18" height="18" viewBox="0 0 18 18" fill="none" xmlns="http://www.w3.org/2000/svg"><circle cx="9" cy="9" r="9" fill="#FF3D00"/><path d="M7.802 12.75l3.093-6.494L10.238 6l-3.093 6.494.657.256zM6.479 9.644c1.183 0 1.979-.812 1.979-1.808 0-1.069-.895-1.79-1.979-1.79-1.183 0-1.979.803-1.979 1.79 0 1.087.885 1.808 1.979 1.808zm0-.584c-.706 0-1.273-.484-1.273-1.215 0-.667.507-1.206 1.273-1.206.726 0 1.293.484 1.293 1.206 0 .676-.507 1.215-1.293 1.215zm5.032 3.59c1.193 0 1.989-.804 1.989-1.8 0-1.078-.895-1.79-1.989-1.79-1.183 0-1.979.804-1.979 1.79 0 1.078.895 1.8 1.979 1.8zm.01-.576c-.716 0-1.293-.493-1.293-1.215 0-.666.517-1.205 1.293-1.205.716 0 1.293.484 1.293 1.205 0 .676-.517 1.215-1.293 1.215z" fill="#fff"/></svg>