<svg width="156" height="35" viewBox="0 0 156 35" fill="none" xmlns="http://www.w3.org/2000/svg">
<g clip-path="url(#clip0)">
<path d="M1.8417 4.19752C1.8417 2.88189 1.6952 2.0048 1.42313 1.56626C1.13013 1.12771 0.669708 0.856232 0 0.751817V0.501221H6.78079V0.751817C6.15294 0.814466 5.69251 1.04418 5.39952 1.46184C5.10652 1.8795 4.93909 2.71482 4.93909 4.00957V7.45528L7.38771 5.51315C8.68527 4.44812 9.60612 3.61279 10.1503 3.02807C10.82 2.31805 11.1757 1.77509 11.1757 1.44096C11.1757 1.19036 11.113 1.0233 10.9874 0.939765C10.8618 0.856232 10.6735 0.793583 10.4014 0.751817V0.501221H17.224V0.751817C16.2613 0.751817 15.2986 1.04418 14.3569 1.62891C14.1057 1.77509 13.3104 2.40158 11.9292 3.52926L9.8154 5.28344C11.1967 6.5573 12.4105 8.04 13.4569 9.71064C14.4406 11.2351 15.3196 12.9475 16.073 14.8479L16.6171 16.1426C16.9938 17.0615 17.245 17.6253 17.3496 17.8133C17.7263 18.4189 18.2077 18.753 18.7727 18.8365V19.0871H12.5361V18.8365C13.2058 18.7321 13.5197 18.3771 13.5197 17.7297C13.5197 17.0406 13.2686 16.08 12.7872 14.8688C12.4314 14.0126 11.971 13.1146 11.4478 12.1748C10.9037 11.2351 10.3386 10.3789 9.73169 9.58535C9.12477 8.79179 8.43413 7.95647 7.63885 7.07938L4.96002 9.23033V15.3908C4.96002 16.4768 5.04373 17.2285 5.19023 17.6462C5.4623 18.3562 5.98551 18.753 6.80172 18.8365V19.0871H0V18.8365C0.795278 18.7112 1.31849 18.3145 1.59056 17.688C1.75798 17.2703 1.8417 16.5812 1.8417 15.5997V4.19752Z" fill="#FF3D00"/>
<path d="M28.0858 8.52024C28.2114 8.12347 28.3579 7.72669 28.4835 7.30903C28.609 6.89137 28.6718 6.57812 28.6718 6.34841C28.6718 6.07693 28.5881 5.8681 28.4416 5.72191C28.2951 5.57573 28.023 5.47132 27.6463 5.42955V5.17896H31.9576V5.42955C31.3925 5.51308 30.9321 5.80545 30.5972 6.36929C30.4507 6.61989 30.2205 7.14196 29.9485 7.97728L25.5744 20.5489C24.9256 22.4492 24.1722 23.7022 23.3769 24.3287C22.6863 24.8717 21.7864 25.1432 20.719 25.1432C20.2168 25.1432 19.7145 25.0596 19.2541 24.8926C18.7936 24.7255 18.3332 24.4749 17.9356 24.1199L19.5471 20.2983L19.7773 20.4445C19.7145 20.6742 19.6936 20.9039 19.6936 21.1127C19.6936 21.6975 19.8401 22.1986 20.154 22.6163C20.447 23.034 20.8655 23.2428 21.3888 23.2428C22.2259 23.2428 22.8747 22.846 23.3351 22.0316C23.7327 21.3633 23.9211 20.5489 23.9211 19.63C23.9211 19.0244 23.7746 18.2935 23.4607 17.4582C23.356 17.1449 23.063 16.4349 22.5817 15.349L19.2959 7.8311C18.9611 7.03755 18.7099 6.51547 18.5425 6.28576C18.1658 5.7428 17.7472 5.47132 17.2659 5.47132V5.22072H22.9375V5.47132C22.6235 5.51308 22.3933 5.59662 22.2468 5.7428C22.1003 5.88898 22.0375 6.07693 22.0375 6.32752C22.0375 6.53635 22.1003 6.78695 22.2259 7.1002C22.3515 7.41344 22.4352 7.64316 22.498 7.81022L25.6791 15.5996L28.0858 8.52024Z" fill="#FF3D00"/>
<path d="M44.6821 16.8735C44.9751 17.2702 45.2471 17.667 45.5611 18.0638C45.9587 18.5232 46.3563 18.7738 46.7749 18.8156V19.0662H40.9359V18.8156C41.5219 18.7321 41.8149 18.5232 41.8149 18.1473C41.8149 17.8759 41.6684 17.4791 41.3545 16.9988C41.0615 16.602 40.8731 16.3096 40.7266 16.1008L38.6128 12.9266L36.5619 15.4534C35.4317 16.8735 34.8667 17.7923 34.8667 18.21C34.8667 18.5441 35.1597 18.7529 35.7038 18.8365V19.0871H31.3507V18.8365C31.6856 18.7529 31.9995 18.6276 32.2716 18.4188C32.5436 18.21 32.9831 17.7297 33.5482 16.9779L37.7757 11.7989L35.4108 8.39495C34.5109 7.07931 33.9668 6.34841 33.7993 6.16046C33.318 5.70103 32.8994 5.45044 32.5018 5.45044V5.19984H38.571V5.45044C37.9431 5.51308 37.6292 5.7428 37.6292 6.18134C37.6292 6.41106 37.7339 6.70342 37.9222 7.05843C38.0687 7.32991 38.278 7.64316 38.5501 8.01905L39.6174 9.58528L40.8731 7.91464C41.2707 7.37168 41.5219 7.03755 41.5847 6.89137C41.794 6.51547 41.9195 6.20222 41.9195 5.97251C41.9195 5.6175 41.6475 5.42955 41.0824 5.42955V5.17896H45.8331V5.42955C45.1634 5.4922 44.4937 5.84721 43.8031 6.53635C43.6356 6.70342 43.1124 7.32991 42.2125 8.39495L40.329 10.6503L44.6821 16.8735Z" fill="#FF3D00"/>
<path d="M58.7877 11.0263H52.1115V15.5997C52.1115 16.9153 52.2371 17.7924 52.5091 18.2101C52.7812 18.6278 53.1998 18.8366 53.8067 18.8366V19.0872H47.5282V18.8366C48.2607 18.8366 48.763 18.5025 48.9932 17.8133C49.1397 17.3748 49.2234 16.6439 49.2234 15.6206V8.66654C49.2234 7.35091 49.0978 6.4947 48.8258 6.07704C48.5537 5.65938 48.1351 5.45055 47.5282 5.45055V5.19995H53.8067V5.45055C53.0742 5.45055 52.5719 5.78468 52.3417 6.45293C52.1952 6.89148 52.1115 7.6015 52.1115 8.64566V9.77334H58.7877V8.64566C58.7877 7.35091 58.6621 6.47382 58.39 6.07704C58.1179 5.65938 57.6994 5.47143 57.0925 5.47143V5.22083H63.371V5.47143C62.6385 5.47143 62.1362 5.80556 61.906 6.4947C61.7595 6.93324 61.6758 7.66415 61.6758 8.68742V15.6415C61.6758 16.9571 61.8013 17.8133 62.0734 18.231C62.3455 18.6486 62.764 18.8575 63.371 18.8575V19.1081H57.0925V18.8575C57.8249 18.8575 58.3063 18.5233 58.5574 17.8342C58.7039 17.3957 58.7877 16.6647 58.7877 15.6206V11.0263Z" fill="#FF3D00"/>
<path d="M76.0328 8.58289L69.3566 14.3884V15.6205C69.3566 16.9361 69.4822 17.7923 69.7543 18.21C70.0263 18.6276 70.4449 18.8365 71.0518 18.8365V19.0871H64.7733V18.8365C65.5058 18.7738 65.9872 18.4188 66.2383 17.7297C66.3848 17.312 66.4685 16.6229 66.4685 15.6205V8.66643C66.4685 7.64316 66.4057 6.95401 66.2802 6.57812C66.029 5.88898 65.5267 5.51308 64.7733 5.45044V5.19984H71.0518V5.45044C70.3193 5.45044 69.817 5.78456 69.5868 6.4737C69.4403 6.91225 69.3566 7.64316 69.3566 8.66643V12.8013L76.0328 6.99578C75.9909 6.68254 75.9281 6.43194 75.8444 6.28576C75.5514 5.78456 75.0701 5.4922 74.3376 5.42955V5.17896H80.6161V5.42955C79.8836 5.42955 79.3813 5.76368 79.1511 6.45282C79.0046 6.89137 78.9209 7.62227 78.9209 8.64554V15.5996C78.9209 16.9152 79.0464 17.7714 79.3185 18.1891C79.5906 18.6068 80.0092 18.8156 80.6161 18.8156V19.0662H74.3376V18.8156C75.0701 18.7529 75.5514 18.3979 75.8026 17.7088C75.9491 17.2911 76.0328 16.602 76.0328 15.5996V8.58289Z" fill="#FF3D00"/>
<path d="M98.6982 19.3377C98.5517 19.2959 98.3633 19.2751 98.1331 19.2751H97.7564L94.3451 19.4421C92.6917 19.4421 91.2267 19.2542 89.971 18.8992C88.5061 18.4815 87.2085 17.8341 86.0993 16.9153C84.8855 15.9338 83.9855 14.7434 83.3786 13.3652C82.7717 11.9869 82.4578 10.5042 82.4578 8.91706C82.4578 7.6432 82.688 6.43198 83.1693 5.28341C83.6298 4.13484 84.3413 3.17422 85.2831 2.40155C86.2249 1.62888 87.2713 1.08592 88.4851 0.75179C89.699 0.417661 90.9547 0.250597 92.315 0.250597L95.4333 0.501193L96.3333 0.584726C96.6053 0.584726 96.8355 0.542959 97.003 0.459427C97.1704 0.375895 97.3169 0.229714 97.4215 0L98.7191 5.3043L98.4889 5.38783C97.9866 4.21838 97.1704 3.32041 96.0403 2.67303C94.9101 2.02566 93.6754 1.71241 92.315 1.71241C91.3105 1.71241 90.4524 1.85859 89.699 2.13007C88.9456 2.40155 88.2758 2.90274 87.6899 3.59189C87.1039 4.28103 86.6434 5.07458 86.3295 5.97255C86.0156 6.87053 85.8691 7.78938 85.8691 8.72912C85.8691 11.256 86.6434 13.4069 88.1921 15.182C89.8036 17.0615 91.8755 17.9803 94.3869 17.9803C95.8101 17.9803 97.0658 17.5835 98.1122 16.8109C99.1586 16.0382 99.9957 14.9732 100.645 13.5949L100.938 13.6993L98.6982 19.3377Z" fill="#FF3D00"/>
<path d="M112.783 8.58289L106.107 14.3884V15.6205C106.107 16.9361 106.232 17.7923 106.504 18.21C106.776 18.6276 107.195 18.8365 107.802 18.8365V19.0871H101.523V18.8365C102.256 18.7738 102.758 18.4188 102.988 17.7297C103.135 17.312 103.219 16.6229 103.219 15.6205V8.66643C103.219 7.64316 103.156 6.95401 103.03 6.57812C102.779 5.88898 102.277 5.51308 101.523 5.45044V5.19984H107.802V5.45044C107.069 5.45044 106.567 5.78456 106.337 6.4737C106.19 6.91225 106.107 7.64316 106.107 8.66643V12.8013L112.783 6.99578C112.741 6.68254 112.678 6.43194 112.595 6.28576C112.302 5.78456 111.82 5.4922 111.088 5.42955V5.17896H117.366V5.42955C116.634 5.42955 116.131 5.76368 115.901 6.45282C115.755 6.89137 115.671 7.62227 115.671 8.64554V15.5996C115.671 16.9152 115.797 17.7714 116.069 18.1891C116.341 18.6068 116.759 18.8156 117.366 18.8156V19.0662H111.088V18.8156C111.82 18.7529 112.302 18.3979 112.553 17.7088C112.699 17.2911 112.783 16.602 112.783 15.5996V8.58289Z" fill="#FF3D00"/>
<path d="M126.428 15.6414C126.428 16.6855 126.512 17.3955 126.658 17.7923C126.931 18.4815 127.454 18.8365 128.27 18.8365V19.0871H121.74V18.8365C122.536 18.8365 123.059 18.4815 123.31 17.7714C123.477 17.3329 123.561 16.6229 123.561 15.6414V6.55723C121.908 6.55723 120.673 6.87048 119.836 7.51785C119.124 8.06081 118.475 9.0632 117.889 10.5459L117.638 10.4624L119.02 4.90747C119.124 5.05365 119.271 5.15807 119.438 5.19983C119.606 5.2416 119.836 5.26248 120.15 5.26248H120.694H129.316H129.86C130.133 5.26248 130.363 5.2416 130.551 5.19983C130.739 5.15807 130.886 5.05365 130.991 4.90747L132.372 10.4624L132.121 10.5459C131.556 9.10497 130.907 8.10258 130.174 7.55962C129.337 6.91224 128.082 6.57812 126.449 6.57812V15.6414H126.428Z" fill="#FF3D00"/>
<path d="M143.841 8.58289L137.164 14.3884V15.6205C137.164 16.9361 137.29 17.7923 137.562 18.21C137.834 18.6276 138.253 18.8365 138.86 18.8365V19.0871H132.581V18.8365C133.314 18.7738 133.816 18.4188 134.046 17.7297C134.193 17.312 134.276 16.6229 134.276 15.6205V8.66643C134.276 7.64316 134.214 6.95401 134.088 6.57812C133.837 5.88898 133.335 5.51308 132.581 5.45044V5.19984H138.86V5.45044C138.127 5.45044 137.625 5.78456 137.395 6.4737C137.248 6.91225 137.164 7.64316 137.164 8.66643V12.8013L143.841 6.99578C143.799 6.68254 143.736 6.43194 143.652 6.28576C143.359 5.78456 142.878 5.4922 142.145 5.42955V5.17896H148.424V5.42955C147.691 5.42955 147.189 5.76368 146.959 6.45282C146.812 6.89137 146.729 7.62227 146.729 8.64554V15.5996C146.729 16.9152 146.854 17.7714 147.126 18.1891C147.398 18.6068 147.817 18.8156 148.424 18.8156V19.0662H142.145V18.8156C142.878 18.7529 143.359 18.3979 143.61 17.7088C143.757 17.2911 143.841 16.602 143.841 15.5996V8.58289Z" fill="#FF3D00"/>
<path d="M152.819 4.44815V3.71724H153.572C153.865 3.71724 154.263 3.759 154.263 4.05137C154.263 4.51079 153.635 4.42726 153.3 4.42726H152.819V4.44815ZM153.761 4.86581C154.263 4.84492 154.661 4.63609 154.661 4.09313C154.661 3.48753 154.158 3.34134 153.635 3.34134H152.4V6.18144H152.798V4.86581H153.279L154.116 6.18144H154.598L153.761 4.86581ZM153.384 7.35089C154.849 7.35089 155.979 6.20232 155.979 4.74051C155.979 3.27869 154.828 2.13013 153.384 2.13013C151.919 2.13013 150.768 3.27869 150.768 4.74051C150.768 6.20232 151.919 7.35089 153.384 7.35089ZM153.384 6.95411C152.191 6.95411 151.166 5.97261 151.166 4.76139C151.166 3.52929 152.191 2.56867 153.384 2.56867C154.577 2.56867 155.581 3.52929 155.581 4.76139C155.602 5.97261 154.577 6.95411 153.384 6.95411Z" fill="#FF3D00"/>
<path d="M5.02272 33.4547C4.98087 33.3921 4.95994 33.3712 4.89715 33.3503C4.8553 33.3294 4.79251 33.3294 4.72973 33.3294H4.64601L3.49495 33.3921C2.55318 33.3921 1.7579 33.1624 1.15098 32.682C0.460342 32.16 0.125488 31.4291 0.125488 30.5102C0.125488 29.6749 0.418485 29.0275 0.983551 28.5472C1.52769 28.0878 2.21832 27.8581 3.05546 27.8581C3.24381 27.8581 3.43217 27.8789 3.62052 27.8998C3.80888 27.9207 3.99724 27.9625 4.20652 27.9834C4.24838 28.0042 4.29023 28.0042 4.33209 28.0042C4.37395 28.0042 4.43673 28.0042 4.49952 28.0042C4.68787 28.0042 4.81344 27.9416 4.89715 27.7954L5.35758 30.0717L5.19015 30.1134C5.04365 29.6749 4.81344 29.299 4.52044 29.0275C4.18559 28.6934 3.80888 28.5472 3.36938 28.5472C2.88803 28.5472 2.51132 28.7351 2.23925 29.111C2.00904 29.4452 1.88347 29.8628 1.88347 30.364C1.88347 30.6564 1.92533 30.9279 2.00904 31.1993C2.09275 31.4708 2.21832 31.7214 2.38575 31.9511C2.55318 32.1809 2.78339 32.3688 3.05546 32.515C3.32753 32.6612 3.62052 32.7238 3.91352 32.7238C4.2693 32.7238 4.60416 32.6194 4.87623 32.4314C5.16922 32.2435 5.35758 31.972 5.50408 31.6379L5.69243 31.7005L5.02272 33.4547Z" fill="#FF3D00"/>
<path d="M8.60145 32.2435C8.60145 32.4941 8.60145 32.6612 8.62238 32.7238C8.66424 32.9535 8.78981 33.0788 8.99909 33.0788V33.2877H6.67604V33.0788C6.82254 33.0788 6.92718 33.0371 6.98997 32.9327C7.05275 32.8282 7.09461 32.5985 7.09461 32.2435V29.842C6.78069 29.842 6.48769 29.9464 6.25748 30.1343C6.02726 30.3431 5.85984 30.6146 5.7552 30.9696L5.58777 30.9279L5.98541 29.1946C6.02726 29.2572 6.06912 29.2781 6.13191 29.299C6.19469 29.3199 6.2784 29.3199 6.38305 29.3199H6.48769H6.59233H8.99909H9.20838C9.33395 29.3199 9.43859 29.3199 9.5223 29.299C9.60601 29.2781 9.6688 29.2363 9.71066 29.1946L10.0874 30.9279L9.91994 30.9696C9.77344 30.5937 9.60601 30.3223 9.41766 30.1343C9.20838 29.9255 8.91538 29.8211 8.60145 29.8211V32.2435Z" fill="#FF3D00"/>
<path d="M10.6106 30.176C10.6106 29.7375 10.4641 29.5287 10.1711 29.5287V29.3198H12.4942V29.5287C12.2221 29.5287 12.0966 29.7375 12.0966 30.176V31.1784L13.1848 30.176C13.1848 29.9463 13.1639 29.7793 13.1011 29.6748C13.0383 29.5704 12.9546 29.5287 12.8081 29.5287V29.3198H15.1102V29.5287C14.8172 29.5287 14.6707 29.7375 14.6707 30.176V32.4105C14.6707 32.8491 14.8172 33.0579 15.1102 33.0579V33.2667H12.8081V33.0579C12.9546 33.0579 13.0593 33.0161 13.1011 32.9117C13.1639 32.8073 13.1848 32.6402 13.1848 32.4314V30.8652L12.0966 31.8676V32.4523C12.0966 32.8908 12.2221 33.0997 12.4942 33.0997V33.3085H10.1921V33.0997C10.4851 33.0997 10.6316 32.8908 10.6316 32.4523V30.176H10.6106Z" fill="#FF3D00"/>
<path d="M16.9939 30.0715C16.7428 30.3012 16.5335 30.6353 16.3661 31.0739C16.1986 31.5124 16.1149 31.9718 16.1149 32.473C16.1149 32.6192 16.1777 32.7445 16.3242 32.8698C16.4916 33.016 16.68 33.0786 16.9311 33.0786V33.2875H15.3406V33.2039C15.3406 32.7027 15.3824 32.2642 15.4871 31.8465C15.6754 31.0948 16.0103 30.4474 16.5126 29.8835C16.5544 29.8418 16.5753 29.8 16.5753 29.7791C16.5963 29.7374 16.5963 29.7165 16.5963 29.6747C16.5963 29.5912 16.5335 29.5494 16.4079 29.5494H16.3451V29.3406H19.9239V29.5494C19.7355 29.5494 19.61 29.6329 19.5472 29.8C19.5053 29.9044 19.4844 30.1132 19.4844 30.3847V32.2851C19.4844 32.5774 19.5053 32.7654 19.5472 32.8698C19.61 33.0369 19.7355 33.1204 19.9239 33.1204V33.3292H17.6218V33.1204C17.7473 33.1204 17.852 33.0786 17.9148 32.9742C17.9775 32.8698 17.9985 32.6401 17.9985 32.306V30.4056C17.9985 30.1759 17.9775 30.0088 17.9566 29.9253C17.9148 29.8418 17.8311 29.8 17.7055 29.8C17.559 29.8 17.4334 29.8209 17.3288 29.8627C17.2241 29.8835 17.1195 29.9671 16.9939 30.0715Z" fill="#FF3D00"/>
<path d="M22.5608 32.8072C22.7701 32.8072 22.9375 32.7445 23.084 32.5984C23.2305 32.4522 23.2933 32.2851 23.2933 32.0554C23.2933 31.7839 23.2096 31.5542 23.0212 31.3662C22.8119 31.1574 22.5399 31.053 22.205 31.053V32.2433C22.205 32.4522 22.2259 32.5983 22.2678 32.6819C22.3096 32.7863 22.4143 32.8072 22.5608 32.8072ZM20.2587 33.2666V33.0578C20.4052 33.0578 20.5098 32.9951 20.5935 32.8907C20.6563 32.7863 20.6982 32.5566 20.6982 32.2225V30.3221C20.6982 30.0506 20.6772 29.8627 20.6354 29.7583C20.5726 29.5912 20.447 29.5077 20.2587 29.5077V29.2988H22.6654V29.5077C22.4561 29.5077 22.3096 29.5912 22.2469 29.7583C22.205 29.8627 22.1841 30.0506 22.1841 30.3221V30.5727C22.9375 30.5727 23.5235 30.6771 23.963 30.8859C24.5071 31.1365 24.7792 31.5333 24.7792 32.0554C24.7792 32.4313 24.5699 32.7236 24.1723 32.9325C23.7746 33.1413 23.2305 33.2457 22.5189 33.2457H20.2587V33.2666Z" fill="#FF3D00"/>
<path d="M29.5508 31.429V32.2434C29.5508 32.4732 29.5926 32.6193 29.6554 32.7029C29.7182 32.7864 29.8438 32.8282 30.0321 32.8282C30.2623 32.8282 30.4507 32.7655 30.5972 32.6193C30.7437 32.494 30.8065 32.2852 30.8065 32.0555C30.8065 31.8467 30.7646 31.6587 30.66 31.5334C30.5763 31.3872 30.4298 31.2828 30.2623 31.2411L29.5508 31.429ZM30.3251 30.2596C30.3251 30.1343 30.2833 30.009 30.2205 29.9254C30.1577 29.8419 30.0531 29.7793 29.9066 29.7793C29.7601 29.7793 29.6763 29.8001 29.6345 29.8628C29.5717 29.9463 29.5298 30.0925 29.5298 30.3431V30.8861L29.8438 30.8025C29.9903 30.7608 30.0949 30.6981 30.1786 30.5937C30.2833 30.5102 30.3251 30.4057 30.3251 30.2596ZM31.8738 30.1134C31.8738 30.2804 31.7901 30.4266 31.6018 30.5937C31.4553 30.719 31.2669 30.8234 31.0367 30.8861C31.4343 30.9487 31.7692 31.074 32.0413 31.2619C32.2924 31.4499 32.4389 31.7005 32.4389 31.972C32.4389 32.4105 32.2296 32.7238 31.7901 32.9535C31.3925 33.1623 30.8902 33.2667 30.2833 33.2667H27.6254V33.0579C27.8137 33.0579 27.9393 32.9744 28.0021 32.8073C28.0439 32.682 28.0649 32.494 28.0649 32.2434V30.3431C28.0649 30.0716 28.0439 29.8837 28.0021 29.7793C27.9393 29.6122 27.8137 29.5287 27.6254 29.5287V29.3198H30.0949C30.6391 29.3198 31.0367 29.3407 31.246 29.4034C31.6645 29.5287 31.8738 29.7584 31.8738 30.1134Z" fill="#FF3D00"/>
<path d="M37.8595 33.2666V33.0578C38.0269 33.0578 38.1316 32.9742 38.1944 32.8072C38.2362 32.7028 38.2362 32.4939 38.2362 32.1807V31.4707L37.9851 31.241C37.8386 31.408 37.6921 31.6586 37.5456 31.9719C37.3991 32.306 37.3154 32.5566 37.3154 32.7445C37.3154 32.9534 37.42 33.0578 37.6502 33.0578V33.2666H35.0342V33.0578C35.2016 33.0578 35.3481 32.9534 35.4946 32.7445C35.5155 32.7236 35.5992 32.5357 35.7876 32.2016L36.0806 31.6168C36.1852 31.408 36.3317 31.1783 36.4992 30.9277C36.6247 30.7398 36.7922 30.51 36.9805 30.2803L36.834 30.155C36.6247 29.9671 36.3736 29.8209 36.1015 29.6956C35.8295 29.5703 35.5574 29.5077 35.3062 29.5077V29.2988H37.5874V29.5077C37.5037 29.5077 37.4409 29.5285 37.3782 29.5703C37.3154 29.6121 37.2944 29.6538 37.2944 29.7374C37.2944 29.8 37.3572 29.9044 37.5037 30.0715C37.5874 30.1759 37.6712 30.2803 37.7758 30.3847L38.2571 30.9068V30.155C38.2571 29.9462 38.2362 29.8 38.2153 29.7165C38.1525 29.5703 38.0479 29.5077 37.8804 29.5077V29.2988H40.1198V29.5077C39.9523 29.5077 39.8477 29.5703 39.7849 29.7165C39.7431 29.8 39.7431 29.9462 39.7431 30.155V30.9068L40.2244 30.3847C40.3709 30.2386 40.4755 30.0924 40.5802 29.9671C40.6639 29.8418 40.7058 29.7791 40.7058 29.7374C40.7058 29.6747 40.6639 29.6121 40.6011 29.5703C40.5383 29.5285 40.4756 29.5077 40.3918 29.5077V29.2988H42.673V29.5077C42.401 29.5077 42.1498 29.5703 41.8778 29.6747C41.6057 29.8 41.3755 29.9462 41.1453 30.1342L40.9988 30.2594C41.208 30.5309 41.3755 30.7398 41.4801 30.9068C41.6266 31.1157 41.7731 31.3662 41.8987 31.596L42.1917 32.1807C42.3382 32.4939 42.4428 32.6819 42.4637 32.7236C42.6102 32.9325 42.7567 33.0369 42.9451 33.0369V33.2457H40.3709V33.0369C40.5593 33.0369 40.6639 32.9325 40.6639 32.7236C40.6639 32.5357 40.5802 32.2642 40.4337 31.951C40.2872 31.6377 40.1407 31.3871 39.9733 31.1992L39.7221 31.4289V32.1389C39.7221 32.5357 39.7431 32.7654 39.8058 32.8698C39.8686 32.9742 39.9523 33.016 40.0988 33.016V33.2248H37.8595V33.2666Z" fill="#FF3D00"/>
<path d="M43.4264 30.176C43.4264 29.7375 43.2799 29.5287 42.9869 29.5287V29.3198H45.31V29.5287C45.0379 29.5287 44.9123 29.7375 44.9123 30.176V31.1784L46.0006 30.176C46.0006 29.9463 45.9797 29.7793 45.9169 29.6748C45.8541 29.5704 45.7704 29.5287 45.6239 29.5287V29.3198H47.926V29.5287C47.633 29.5287 47.4865 29.7375 47.4865 30.176V32.4105C47.4865 32.8491 47.633 33.0579 47.926 33.0579V33.2667H45.6239V33.0579C45.7704 33.0579 45.875 33.0161 45.9169 32.9117C45.9797 32.8073 46.0006 32.6402 46.0006 32.4314V30.8652L44.9123 31.8676V32.4523C44.9123 32.8908 45.0379 33.0997 45.31 33.0997V33.3085H42.9869V33.0997C43.2799 33.0997 43.4264 32.8908 43.4264 32.4523V30.176Z" fill="#FF3D00"/>
<path d="M51.128 30.9695C51.5257 31.0531 51.8187 31.1784 52.0489 31.3454C52.3 31.5334 52.4256 31.784 52.4256 32.0763C52.4256 32.4731 52.2163 32.7864 51.8187 33.0161C51.421 33.2458 50.835 33.3711 50.0607 33.3711C49.956 33.3711 49.7886 33.3502 49.5584 33.3293C49.3282 33.3084 49.1398 33.2876 49.0142 33.2876C48.8468 33.2876 48.6794 33.3084 48.5538 33.3502L48.4492 33.3711L48.1353 32.1181L48.3027 32.0763L48.3445 32.1181C48.4701 32.3061 48.6794 32.4731 48.9933 32.6193C49.3072 32.7655 49.6212 32.849 49.9142 32.849C50.1862 32.849 50.4165 32.7864 50.5629 32.6402C50.7304 32.494 50.7932 32.3061 50.7932 32.0763C50.7932 31.8257 50.7094 31.6378 50.5211 31.5125C50.3118 31.3663 49.977 31.3037 49.4956 31.3037H49.4119V30.8651H49.4956C49.8514 30.8651 50.0816 30.8234 50.2281 30.7189C50.3537 30.6354 50.4164 30.4684 50.4164 30.2386C50.4164 30.1133 50.3537 29.988 50.2699 29.9045C50.1653 29.8001 50.0397 29.7583 49.8932 29.7583C49.6212 29.7583 49.37 29.8419 49.1189 29.988C48.9096 30.1133 48.7212 30.3222 48.5329 30.5936L48.512 30.6354L48.3027 30.5728L48.8677 29.1318L48.9515 29.278C48.9724 29.3198 49.0352 29.3407 49.1189 29.3407C49.2654 29.3198 49.4119 29.3198 49.5375 29.2989C49.663 29.278 49.8095 29.278 49.9979 29.278C50.6885 29.278 51.2117 29.3616 51.5047 29.5077C51.8187 29.6539 51.9652 29.8836 51.9652 30.1969C51.9652 30.3848 51.8814 30.5519 51.6931 30.7189C51.5675 30.8442 51.3582 30.9278 51.128 30.9695Z" fill="#FF3D00"/>
<path d="M53.0325 30.176C53.0325 29.7375 52.886 29.5287 52.593 29.5287V29.3198H54.8951V29.5287C54.7486 29.5287 54.644 29.5704 54.6021 29.6748C54.5394 29.7793 54.5184 29.9463 54.5184 30.176V30.5519H55.6067V30.176C55.6067 29.9463 55.5858 29.7793 55.523 29.6748C55.4602 29.5704 55.3765 29.5287 55.23 29.5287V29.3198H57.5321V29.5287C57.2391 29.5287 57.0926 29.7375 57.0926 30.176V32.4105C57.0926 32.8491 57.2391 33.0579 57.5321 33.0579V33.2667H55.23V33.0579C55.3765 33.0579 55.4811 33.0161 55.523 32.9117C55.5858 32.8073 55.6067 32.6402 55.6067 32.4314V31.074H54.5184V32.4314C54.5184 32.6611 54.5394 32.8282 54.6021 32.9117C54.6649 33.0161 54.7486 33.0579 54.8951 33.0579V33.2667H52.593V33.0579C52.886 33.0579 53.0325 32.8491 53.0325 32.4105V30.176Z" fill="#FF3D00"/>
<path d="M58.3064 30.176C58.3064 29.7375 58.1599 29.5287 57.8669 29.5287V29.3198H60.19V29.5287C59.9179 29.5287 59.7924 29.7375 59.7924 30.176V31.1784L60.8806 30.176C60.8806 29.9463 60.8597 29.7793 60.7969 29.6748C60.7341 29.5704 60.6504 29.5287 60.5039 29.5287V29.3198H62.806V29.5287C62.513 29.5287 62.3665 29.7375 62.3665 30.176V32.4105C62.3665 32.8491 62.513 33.0579 62.806 33.0579V33.2667H60.5039V33.0579C60.6504 33.0579 60.7551 33.0161 60.7969 32.9117C60.8597 32.8073 60.8806 32.6402 60.8806 32.4314V30.8652L59.7924 31.8676V32.4523C59.7924 32.8908 59.9179 33.0997 60.19 33.0997V33.3085H57.8669V33.0997C58.1599 33.0997 58.3064 32.8908 58.3064 32.4523V30.176Z" fill="#FF3D00"/>
<path d="M67.5777 32.0137C67.5359 31.9093 67.494 31.8675 67.4103 31.8257C67.3266 31.8048 67.2219 31.784 67.0754 31.784H66.8871H66.6569C66.5104 31.784 66.3848 31.8048 66.2802 31.8257C66.1755 31.8466 66.0918 31.9093 66.029 32.0137L65.9034 31.951L66.4685 30.6145C66.4894 30.6772 66.5313 30.7398 66.5941 30.7607C66.6569 30.7816 66.7197 30.8024 66.8034 30.8024H66.9499H67.4521C67.6405 30.8024 67.7661 30.7816 67.8289 30.7607C67.8916 30.7398 67.9544 30.698 67.9963 30.6145L68.1219 30.6771L67.5777 32.0137Z" fill="#FF3D00"/>
<path d="M73.2493 30.9277L73.8353 30.3638C74.1492 30.0715 74.2958 29.8627 74.2958 29.7374C74.2958 29.6747 74.2539 29.6121 74.1911 29.5912C74.1283 29.5494 74.0446 29.5494 73.9609 29.5494V29.3406H76.3049V29.5494C76.0328 29.5494 75.7817 29.6121 75.5096 29.7165C75.2375 29.8418 75.0073 29.988 74.7771 30.1759L74.6306 30.3012C74.8399 30.5727 75.0073 30.7815 75.112 30.9486C75.2585 31.1574 75.405 31.408 75.5305 31.6377L75.8235 32.2224C75.9909 32.5566 76.0956 32.7445 76.1165 32.7654C76.263 32.9742 76.4095 33.0786 76.5769 33.0786V33.2875H73.9609V33.0786C74.0655 33.0786 74.1493 33.0578 74.212 32.9951C74.2748 32.9325 74.3167 32.8698 74.3167 32.7654C74.3167 32.5774 74.212 32.306 74.0237 31.9718C73.8772 31.7004 73.6888 31.4706 73.5214 31.2409L73.2703 31.4706V32.1807C73.2703 32.4939 73.2912 32.7027 73.3121 32.8072C73.354 32.9742 73.4795 33.0786 73.647 33.0786V33.2875H71.3448V33.0786C71.6378 33.0786 71.7843 32.8698 71.7843 32.4313V30.1968C71.7843 29.7582 71.6378 29.5494 71.3448 29.5494V29.3406H73.647V29.5494C73.5005 29.5494 73.3749 29.6121 73.333 29.7582C73.2912 29.8627 73.2703 29.988 73.2703 30.1968V30.9277H73.2493Z" fill="#FF3D00"/>
<path d="M79.6115 32.3269C79.6533 32.2225 79.6952 32.0763 79.737 31.9092C79.758 31.7422 79.7789 31.5751 79.7789 31.4289C79.7789 31.2201 79.758 31.0322 79.737 30.8233C79.7161 30.6354 79.6533 30.4474 79.5905 30.3221C79.5277 30.176 79.444 30.0715 79.3394 29.988C79.2138 29.8836 79.0882 29.8418 78.9627 29.8418C78.6697 29.8418 78.4604 30.0089 78.3348 30.3221C78.2302 30.5518 78.1883 30.8233 78.1883 31.1575C78.1883 31.5334 78.2511 31.8675 78.3558 32.1598C78.5023 32.5775 78.7534 32.7655 79.0673 32.7655C79.1929 32.7655 79.2975 32.7237 79.4022 32.6402C79.4859 32.5566 79.5696 32.4522 79.6115 32.3269ZM77.3512 32.9534C77.1001 32.7863 76.9117 32.5775 76.7861 32.2851C76.6606 31.9928 76.5978 31.7004 76.5978 31.3872C76.5978 30.7189 76.8489 30.176 77.3303 29.7792C77.7907 29.4033 78.3558 29.2153 79.0464 29.2153C79.7161 29.2153 80.2602 29.3824 80.6788 29.7374C81.1392 30.1133 81.3694 30.6354 81.3694 31.3036C81.3694 31.951 81.1183 32.4731 80.6369 32.849C80.1975 33.204 79.6324 33.3711 78.9627 33.3711C78.6488 33.3711 78.3767 33.3293 78.0837 33.2666C77.8326 33.2249 77.5605 33.0996 77.3512 32.9534Z" fill="#FF3D00"/>
<path d="M82.7716 32.2016C82.7716 32.5775 82.8135 32.8072 82.8763 32.9116C82.9391 33.016 83.0646 33.0787 83.2321 33.0787V33.2875H81.7252V33.0787C81.9345 33.0578 82.0601 32.9534 82.1019 32.8072C82.1438 32.7236 82.1438 32.5357 82.1438 32.2433V30.4265C82.1438 30.1341 82.1229 29.9462 82.1019 29.8418C82.0391 29.6747 81.9136 29.5703 81.7252 29.5285V29.3197H84.1529V29.5285C84.0483 29.5285 83.9855 29.5912 83.9855 29.6956C83.9855 29.8 84.0483 29.9044 84.1529 30.0297L84.6343 30.698L85.1156 30.0297C85.2203 29.8836 85.2621 29.7791 85.2621 29.6538C85.2621 29.5494 85.2203 29.5077 85.1366 29.5077V29.2988H87.2713V29.5077C87.062 29.5494 86.9364 29.633 86.8946 29.7791C86.8527 29.8627 86.8527 30.0506 86.8527 30.3221V32.1598C86.8527 32.4939 86.8736 32.7028 86.8946 32.7863C86.9573 32.9534 87.0829 33.0369 87.2713 33.0369V33.2457H84.9691V33.0369C85.1366 33.0369 85.2412 32.9742 85.2831 32.8698C85.3249 32.7863 85.3458 32.6401 85.3458 32.4313V32.2016V30.5727L84.0274 32.3686L82.7507 30.5936V32.2016H82.7716Z" fill="#FF3D00"/>
<path d="M91.8126 32.1808C91.8126 32.5985 91.9173 32.7864 92.1265 32.7864C92.3777 32.7864 92.566 32.6611 92.7125 32.3896C92.8381 32.1182 92.9218 31.784 92.9218 31.3873C92.9218 30.9487 92.8381 30.5728 92.6707 30.2596C92.5032 29.9463 92.273 29.7793 91.98 29.7793L91.8545 29.8001V32.1808H91.8126ZM90.3267 29.8001L90.2011 29.7793C89.9081 29.7793 89.6779 29.9254 89.5105 30.2596C89.3431 30.5728 89.2594 30.9487 89.2594 31.3873C89.2594 31.8049 89.3221 32.139 89.4477 32.4105C89.5733 32.682 89.7616 32.8073 90.0337 32.8073C90.1384 32.8073 90.2221 32.7655 90.2639 32.6611C90.3058 32.5567 90.3267 32.4105 90.3267 32.1808V29.8001ZM90.3267 28.8395C90.3267 28.4219 90.1802 28.1922 89.8872 28.1922V27.9833L91.8126 27.8789V29.2572C91.8335 29.2572 91.9173 29.2572 92.0219 29.2363C92.1475 29.2154 92.2312 29.2154 92.273 29.2154C92.9427 29.2154 93.466 29.4034 93.8845 29.8001C94.2822 30.1969 94.4914 30.7399 94.4914 31.4499C94.4914 31.7423 94.4287 32.0137 94.324 32.2643C94.1984 32.5149 94.031 32.7238 93.8217 32.9117C93.6124 33.0788 93.3822 33.2041 93.152 33.2667C92.9218 33.3294 92.6497 33.3711 92.3567 33.3711L91.8126 33.3294V34.1856C91.8126 34.3944 91.8545 34.5406 91.9382 34.6659C92.0219 34.7912 92.1475 34.833 92.294 34.833V35.0418H89.7826V34.833C89.9291 34.833 90.0546 34.7703 90.1593 34.6659C90.243 34.5615 90.3058 34.3944 90.3058 34.1856V33.3294L89.7616 33.3711C89.4686 33.3711 89.1966 33.3294 88.9664 33.2667C88.7362 33.2041 88.5059 33.0788 88.2967 32.9117C88.0874 32.7447 87.9199 32.5358 87.7944 32.2643C87.6688 32.0137 87.627 31.7423 87.627 31.4499C87.627 30.7399 87.8362 30.1969 88.2339 29.8001C88.6315 29.4034 89.1756 29.2154 89.8454 29.2154C89.95 29.2154 90.0128 29.2154 90.0965 29.2363C90.1593 29.2363 90.243 29.2572 90.3267 29.2572V28.8395Z" fill="#FF3D00"/>
<path d="M97.861 32.3269C97.9028 32.2225 97.9447 32.0763 97.9865 31.9092C98.0075 31.7422 98.0284 31.5751 98.0284 31.4289C98.0284 31.2201 98.0075 31.0322 97.9865 30.8233C97.9656 30.6354 97.9028 30.4474 97.84 30.3221C97.7773 30.176 97.6935 30.0715 97.5889 29.988C97.4633 29.8836 97.3378 29.8418 97.2122 29.8418C96.9192 29.8418 96.7099 30.0089 96.5843 30.3221C96.4797 30.5518 96.4378 30.8233 96.4378 31.1575C96.4378 31.5334 96.5006 31.8675 96.6053 32.1598C96.7518 32.5775 97.0029 32.7655 97.3168 32.7655C97.4424 32.7655 97.547 32.7237 97.6517 32.6402C97.7354 32.5566 97.7982 32.4522 97.861 32.3269ZM95.6007 32.9534C95.3496 32.7863 95.1612 32.5775 95.0356 32.2851C94.9101 31.9928 94.8473 31.7004 94.8473 31.3872C94.8473 30.7189 95.0984 30.176 95.5798 29.7792C96.0402 29.4033 96.6053 29.2153 97.2959 29.2153C97.9656 29.2153 98.5098 29.3824 98.9283 29.7374C99.3887 30.1133 99.6189 30.6354 99.6189 31.3036C99.6189 31.951 99.3678 32.4731 98.8865 32.849C98.447 33.204 97.8819 33.3711 97.2122 33.3711C96.8983 33.3711 96.6262 33.3293 96.3332 33.2666C96.0611 33.2249 95.81 33.0996 95.6007 32.9534Z" fill="#FF3D00"/>
<path d="M101.879 32.1807C101.879 32.2642 101.879 32.3478 101.879 32.4313C101.879 32.5148 101.9 32.5983 101.942 32.6401C102.026 32.7445 102.109 32.7863 102.256 32.7863C102.612 32.7863 102.863 32.6192 103.072 32.306C103.239 32.0345 103.302 31.7213 103.302 31.3454C103.302 30.9277 103.198 30.5727 102.967 30.3012C102.716 29.988 102.402 29.8418 101.984 29.8418H101.879V32.1807ZM102.444 29.3406C102.8 29.3406 103.114 29.3615 103.386 29.4241C103.658 29.4868 103.909 29.6121 104.139 29.8C104.37 29.988 104.558 30.2386 104.704 30.51C104.851 30.8024 104.914 31.0948 104.914 31.408C104.914 32.0345 104.684 32.5357 104.202 32.9116C104.014 33.0787 103.742 33.1831 103.386 33.2666C103.114 33.3293 102.821 33.3501 102.507 33.3501C102.402 33.3501 102.319 33.3501 102.193 33.3293C102.088 33.3293 101.984 33.3084 101.879 33.2875V34.1437C101.879 34.3525 101.921 34.4987 102.005 34.624C102.088 34.7284 102.214 34.7911 102.361 34.7911V34.9999H99.8491V34.7911C99.9956 34.7911 100.121 34.7284 100.226 34.624C100.33 34.5196 100.372 34.3525 100.372 34.1437V30.155C100.372 29.7374 100.226 29.5077 99.9328 29.5077V29.2988H102.444V29.3406Z" fill="#FF3D00"/>
<path d="M107.99 32.2435C107.99 32.4941 107.99 32.6612 108.011 32.7238C108.053 32.9535 108.179 33.0788 108.388 33.0788V33.2877H106.065V33.0788C106.211 33.0788 106.316 33.0371 106.4 32.9327C106.462 32.8282 106.504 32.5985 106.504 32.2435V29.842C106.19 29.842 105.897 29.9464 105.667 30.1343C105.437 30.3431 105.27 30.6146 105.165 30.9696L104.997 30.9279L105.395 29.1946C105.437 29.2572 105.479 29.2781 105.542 29.299C105.604 29.3199 105.688 29.3199 105.793 29.3199H105.897H106.002H108.409H108.618C108.744 29.3199 108.827 29.3199 108.932 29.299C109.016 29.2781 109.078 29.2363 109.12 29.1946L109.497 30.9279L109.33 30.9696C109.183 30.5937 109.016 30.3223 108.827 30.1343C108.618 29.9255 108.325 29.8211 108.011 29.8211V32.2435H107.99Z" fill="#FF3D00"/>
<path d="M112.72 30.176C112.72 29.7375 112.574 29.5287 112.281 29.5287V29.3198H114.583V29.5287C114.436 29.5287 114.332 29.5704 114.29 29.6748C114.227 29.7793 114.206 29.9463 114.206 30.176V30.5519H115.294V30.176C115.294 29.9463 115.273 29.7793 115.211 29.6748C115.148 29.5704 115.064 29.5287 114.918 29.5287V29.3198H117.22V29.5287C116.927 29.5287 116.78 29.7375 116.78 30.176V32.4105C116.78 32.8491 116.927 33.0579 117.22 33.0579V33.2667H114.918V33.0579C115.064 33.0579 115.169 33.0161 115.211 32.9117C115.273 32.8073 115.294 32.6402 115.294 32.4314V31.074H114.206V32.4314C114.206 32.6611 114.227 32.8282 114.29 32.9117C114.353 33.0161 114.436 33.0579 114.583 33.0579V33.2667H112.281V33.0579C112.574 33.0579 112.72 32.8491 112.72 32.4105V30.176Z" fill="#FF3D00"/>
<path d="M119.564 31.3245C119.438 31.4081 119.313 31.5125 119.229 31.6587C119.124 31.784 119.082 31.9301 119.082 32.0763C119.082 32.2016 119.124 32.3269 119.208 32.4313C119.292 32.5357 119.396 32.5775 119.522 32.5775C119.815 32.5775 120.024 32.3896 120.129 32.0345C120.213 31.7839 120.254 31.4707 120.254 31.1157C120.087 31.1366 119.961 31.1783 119.857 31.1992C119.773 31.2201 119.668 31.2619 119.564 31.3245ZM120.254 30.5727V30.4265C120.254 30.343 120.254 30.2595 120.233 30.1968C120.213 30.1342 120.192 30.0924 120.15 30.0298C120.066 29.9462 119.982 29.9045 119.878 29.8627C119.773 29.8418 119.668 29.8209 119.522 29.8209C119.208 29.8209 118.915 29.9045 118.664 30.0715C118.413 30.2386 118.224 30.4892 118.099 30.7816H117.931L118.099 29.3406C118.141 29.3824 118.183 29.4242 118.224 29.445C118.266 29.4659 118.308 29.4868 118.371 29.4868C118.413 29.4868 118.475 29.4868 118.538 29.4659C118.601 29.445 118.643 29.445 118.706 29.4242C119.103 29.3406 119.417 29.278 119.606 29.2571C119.794 29.2362 119.982 29.2153 120.171 29.2153C120.422 29.2153 120.652 29.2362 120.861 29.278C121.071 29.3197 121.238 29.4033 121.405 29.5077C121.573 29.633 121.678 29.8001 121.719 30.0507C121.761 30.1968 121.761 30.4266 121.761 30.7189V32.1807V32.3478C121.761 32.5566 121.782 32.7237 121.824 32.8072C121.887 32.9534 122.012 33.0369 122.201 33.0578V33.2666H120.547C120.485 33.204 120.422 33.1205 120.38 33.0369C120.338 32.9325 120.296 32.849 120.275 32.7446C120.15 32.9325 119.92 33.0996 119.627 33.2249C119.354 33.3293 119.082 33.3919 118.81 33.3919C118.496 33.3919 118.224 33.3084 117.994 33.1413C117.743 32.9534 117.617 32.7028 117.617 32.3896C117.617 32.0137 117.785 31.6795 118.099 31.4289C118.35 31.2201 118.706 31.053 119.166 30.9069C119.48 30.8024 119.857 30.7398 120.296 30.6771V30.5727H120.254Z" fill="#FF3D00"/>
<path d="M127.014 30.9277L127.6 30.3638C127.914 30.0715 128.061 29.8627 128.061 29.7374C128.061 29.6747 128.019 29.6121 127.956 29.5912C127.893 29.5494 127.81 29.5494 127.726 29.5494V29.3406H130.07V29.5494C129.798 29.5494 129.547 29.6121 129.275 29.7165C129.003 29.8418 128.772 29.988 128.542 30.1759L128.396 30.3012C128.605 30.5727 128.772 30.7815 128.877 30.9486C129.023 31.1574 129.17 31.408 129.296 31.6377L129.589 32.2224C129.756 32.5566 129.861 32.7445 129.882 32.7654C130.028 32.9742 130.175 33.0786 130.342 33.0786V33.2875H127.726V33.0786C127.831 33.0786 127.914 33.0578 127.977 32.9951C128.04 32.9325 128.082 32.8698 128.082 32.7654C128.082 32.5774 127.977 32.306 127.789 31.9718C127.642 31.7004 127.454 31.4706 127.286 31.2409L127.035 31.4706V32.1807C127.035 32.4939 127.056 32.7027 127.077 32.8072C127.119 32.9742 127.245 33.0786 127.412 33.0786V33.2875H125.11V33.0786C125.403 33.0786 125.549 32.8698 125.549 32.4313V30.1968C125.549 29.7582 125.403 29.5494 125.11 29.5494V29.3406H127.412V29.5494C127.265 29.5494 127.14 29.6121 127.098 29.7582C127.056 29.8627 127.035 29.988 127.035 30.1968V30.9277H127.014Z" fill="#FF3D00"/>
<path d="M133.649 30.3431C133.69 30.2387 133.711 30.1343 133.732 30.0716C133.753 29.9881 133.753 29.9254 133.753 29.8419C133.753 29.7375 133.711 29.6748 133.649 29.6122C133.586 29.5704 133.502 29.5495 133.397 29.5495V29.3407H135.03V29.5495C134.821 29.5495 134.653 29.6748 134.507 29.9045C134.444 29.9881 134.36 30.1969 134.235 30.5519L132.937 33.7888C132.77 34.1856 132.602 34.4779 132.435 34.645C132.204 34.8747 131.891 35 131.514 35C131.346 35 131.179 34.9791 131.012 34.9165C130.844 34.8538 130.677 34.7703 130.53 34.6659L130.97 33.6217L131.137 33.6844C131.137 33.747 131.137 33.8097 131.137 33.8723C131.137 33.9767 131.179 34.0812 131.284 34.1647C131.388 34.2482 131.493 34.29 131.598 34.29C131.807 34.29 131.974 34.1856 132.121 33.9976C132.246 33.8097 132.309 33.6008 132.309 33.3711C132.309 33.225 132.267 33.037 132.204 32.8491C132.163 32.7655 132.1 32.5985 131.974 32.3479L130.928 30.2178C130.802 29.9672 130.719 29.821 130.677 29.7584C130.551 29.6122 130.405 29.5287 130.237 29.5287V29.3198H132.832V29.5287C132.728 29.5287 132.623 29.5495 132.56 29.5704C132.497 29.6122 132.456 29.6748 132.456 29.7584C132.456 29.8001 132.477 29.8628 132.497 29.9463C132.518 30.0298 132.56 30.0925 132.581 30.1551L133.188 31.6587L133.649 30.3431Z" fill="#FF3D00"/>
<path d="M139.383 32.6611C139.488 32.8073 139.571 32.8908 139.613 32.9326C139.718 33.037 139.822 33.0788 139.927 33.0788V33.2876H137.458V33.0788C137.52 33.0788 137.583 33.0579 137.625 33.037C137.667 33.0161 137.688 32.9744 137.688 32.9326C137.688 32.8699 137.667 32.8282 137.646 32.7864C137.625 32.7446 137.583 32.682 137.541 32.5985L137.018 31.784L136.516 32.4105C136.432 32.5149 136.369 32.5776 136.348 32.6402C136.286 32.7446 136.265 32.8282 136.265 32.9117C136.265 32.9535 136.286 32.9952 136.307 33.037C136.348 33.0788 136.411 33.0997 136.495 33.0997V33.3085H134.946V33.0997C135.135 33.0579 135.323 32.9535 135.511 32.7864C135.574 32.7238 135.721 32.5567 135.93 32.2852L136.704 31.3037L135.972 30.176C135.804 29.9463 135.721 29.8001 135.679 29.7584C135.532 29.6122 135.386 29.5287 135.239 29.5287V29.3198H137.751V29.5287C137.667 29.5495 137.604 29.5495 137.541 29.5913C137.479 29.6122 137.458 29.6748 137.458 29.7375C137.458 29.7793 137.478 29.821 137.499 29.8837C137.52 29.9254 137.583 30.0298 137.646 30.1343L137.876 30.5102L138.002 30.364C138.085 30.2596 138.169 30.1551 138.232 30.0507C138.337 29.9045 138.378 29.7793 138.378 29.6957C138.378 29.6331 138.357 29.5913 138.316 29.5704C138.274 29.5495 138.211 29.5495 138.148 29.5495V29.3407H139.655V29.5495C139.467 29.5913 139.299 29.654 139.174 29.7584C139.09 29.821 138.964 29.9463 138.818 30.1551L138.169 30.9696L139.383 32.6611Z" fill="#FF3D00"/>
<path d="M140.555 30.176C140.555 29.7375 140.408 29.5287 140.115 29.5287V29.3198H142.417V29.5287C142.271 29.5287 142.166 29.5704 142.124 29.6748C142.062 29.7793 142.041 29.9463 142.041 30.176V30.5519H143.129V30.176C143.129 29.9463 143.108 29.7793 143.045 29.6748C142.983 29.5704 142.899 29.5287 142.752 29.5287V29.3198H145.054V29.5287C144.761 29.5287 144.615 29.7375 144.615 30.176V32.4105C144.615 32.8491 144.761 33.0579 145.054 33.0579V33.2667H142.752V33.0579C142.899 33.0579 143.003 33.0161 143.045 32.9117C143.108 32.8073 143.129 32.6402 143.129 32.4314V31.074H142.041V32.4314C142.041 32.6611 142.062 32.8282 142.124 32.9117C142.187 33.0161 142.271 33.0579 142.417 33.0579V33.2667H140.115V33.0579C140.408 33.0579 140.555 32.8491 140.555 32.4105V30.176Z" fill="#FF3D00"/>
<path d="M148.34 30.6564V30.5311C148.34 30.3431 148.278 30.1761 148.152 30.0508C148.026 29.9255 147.88 29.8419 147.692 29.8419C147.461 29.8419 147.273 29.9672 147.147 30.2178C147.043 30.4058 147.001 30.6355 147.001 30.9279L148.34 30.6564ZM147.064 31.4082C147.106 31.7841 147.231 32.0764 147.419 32.3061C147.629 32.5776 147.922 32.7029 148.278 32.7029C148.591 32.7029 148.864 32.6194 149.115 32.4523C149.366 32.2853 149.554 32.0555 149.68 31.7632L149.847 31.8258L149.345 33.3503C149.303 33.3294 149.282 33.3085 149.261 33.2876C149.198 33.2459 149.157 33.2459 149.094 33.2459L148.926 33.2668C148.759 33.2876 148.591 33.3085 148.424 33.3294C148.257 33.3503 148.089 33.3712 147.922 33.3712C147.608 33.3712 147.315 33.3294 147.022 33.2668C146.729 33.1832 146.478 33.0788 146.247 32.9118C145.975 32.7238 145.787 32.4732 145.641 32.2017C145.494 31.9302 145.431 31.617 145.431 31.2829C145.431 30.6355 145.682 30.1343 146.164 29.7584C146.603 29.4034 147.168 29.2363 147.838 29.2363C148.403 29.2363 148.864 29.3616 149.24 29.6122C149.638 29.9046 149.889 30.3014 149.994 30.8234L147.064 31.4082Z" fill="#FF3D00"/>
</g>
<defs>
<clipPath id="clip0">
<rect width="156" height="35" fill="white"/>
</clipPath>
</defs>
</svg>
