<svg width="156" height="35" viewBox="0 0 156 35" fill="none" xmlns="http://www.w3.org/2000/svg"><g clip-path="url(#clip0)" fill="#FF3D00"><path d="M1.842 4.198c0-1.316-.147-2.193-.419-2.632C1.13 1.128.67.856 0 .752v-.25h6.78v.25c-.627.062-1.087.292-1.38.71-.293.417-.46 1.253-.46 2.548v3.445l2.448-1.942c1.297-1.065 2.218-1.9 2.762-2.485.67-.71 1.026-1.253 1.026-1.587 0-.25-.063-.418-.189-.501-.125-.084-.313-.146-.586-.188v-.25h6.823v.25c-.963 0-1.925.292-2.867.877-.251.146-1.047.773-2.428 1.9L9.815 5.283a21.54 21.54 0 013.642 4.428 29.522 29.522 0 012.616 5.137l.544 1.295c.377.918.628 1.482.733 1.67.376.606.858.94 1.423 1.024v.25h-6.237v-.25c.67-.105.984-.46.984-1.107 0-.69-.251-1.65-.733-2.861-.356-.856-.816-1.754-1.34-2.694a24.184 24.184 0 00-1.715-2.59A38.98 38.98 0 007.639 7.08L4.96 9.23v6.16c0 1.087.084 1.838.23 2.256.272.71.796 1.107 1.612 1.19v.251H0v-.25c.795-.126 1.318-.523 1.59-1.149.168-.418.252-1.107.252-2.088V4.198z"/><path d="M28.086 8.52c.125-.397.272-.793.398-1.211.125-.418.188-.73.188-.96 0-.272-.084-.48-.23-.627-.147-.146-.419-.25-.796-.292v-.251h4.312v.25c-.566.084-1.026.376-1.36.94-.147.25-.377.773-.65 1.608L25.575 20.55c-.648 1.9-1.402 3.153-2.197 3.78-.69.543-1.59.814-2.658.814a4.321 4.321 0 01-1.465-.25 4.05 4.05 0 01-1.318-.773l1.611-3.822.23.147a2.54 2.54 0 00-.083.668c0 .585.146 1.086.46 1.503.293.418.712.627 1.235.627.837 0 1.486-.397 1.946-1.211.398-.669.586-1.483.586-2.402 0-.606-.146-1.336-.46-2.172-.105-.313-.398-1.023-.88-2.109l-3.285-7.518c-.335-.793-.586-1.316-.753-1.545-.377-.543-.796-.815-1.277-.815v-.25h5.672v.25c-.314.042-.545.126-.691.272-.147.146-.21.334-.21.585 0 .208.063.459.189.772s.21.543.272.71l3.181 7.79 2.407-7.08zm16.596 8.353c.293.397.565.794.88 1.19.397.46.794.71 1.213.753v.25h-5.84v-.25c.587-.084.88-.293.88-.669 0-.271-.147-.668-.46-1.148-.293-.397-.482-.69-.628-.898l-2.114-3.174-2.051 2.526c-1.13 1.42-1.695 2.34-1.695 2.757 0 .334.293.543.837.627v.25H31.35v-.25c.335-.084.649-.21.92-.418.273-.209.712-.69 1.277-1.441l4.228-5.18-2.365-3.403c-.9-1.316-1.444-2.047-1.612-2.235-.481-.459-.9-.71-1.297-.71V5.2h6.069v.25c-.628.063-.942.293-.942.731 0 .23.105.522.293.877.147.272.356.585.628.961l1.067 1.566 1.256-1.67c.398-.543.649-.877.712-1.024.209-.376.334-.689.334-.918 0-.356-.271-.543-.837-.543v-.251h4.751v.25c-.67.063-1.34.418-2.03 1.107-.167.167-.69.794-1.59 1.859l-1.884 2.255 4.353 6.223zm14.106-5.847h-6.676V15.6c0 1.315.125 2.192.397 2.61.272.418.69.627 1.298.627v.25h-6.279v-.25c.733 0 1.235-.334 1.465-1.024.147-.438.23-1.17.23-2.192V8.667c0-1.316-.125-2.172-.397-2.59-.272-.418-.69-.626-1.298-.626V5.2h6.279v.25c-.733 0-1.235.335-1.465 1.003-.147.438-.23 1.148-.23 2.193v1.127h6.676V8.646c0-1.295-.126-2.172-.398-2.569-.272-.418-.69-.606-1.297-.606v-.25h6.278v.25c-.733 0-1.235.335-1.465 1.024-.146.438-.23 1.17-.23 2.192v6.955c0 1.315.125 2.171.397 2.589.273.418.691.627 1.298.627v.25h-6.279v-.25c.733 0 1.214-.335 1.465-1.024.147-.438.23-1.17.23-2.213v-4.595zm17.245-2.443l-6.676 5.805v1.232c0 1.316.125 2.172.397 2.59.272.418.69.627 1.298.627v.25h-6.279v-.25c.733-.063 1.214-.418 1.465-1.107.147-.418.23-1.107.23-2.11V8.666c0-1.023-.062-1.712-.188-2.088-.251-.689-.753-1.065-1.507-1.128V5.2h6.279v.25c-.733 0-1.235.335-1.465 1.024-.147.438-.23 1.17-.23 2.192v4.135l6.676-5.805c-.042-.313-.105-.564-.189-.71-.293-.501-.774-.794-1.506-.856v-.251h6.278v.25c-.732 0-1.235.335-1.465 1.024-.146.438-.23 1.17-.23 2.193V15.6c0 1.315.125 2.171.397 2.59.273.417.691.626 1.298.626v.25h-6.278v-.25c.732-.063 1.213-.418 1.465-1.107.146-.418.23-1.107.23-2.11V8.584zm22.665 10.755a2.11 2.11 0 00-.565-.063h-.377l-3.41.167c-1.654 0-3.12-.188-4.375-.543-1.465-.418-2.763-1.065-3.872-1.984a9.358 9.358 0 01-2.72-3.55 10.921 10.921 0 01-.921-4.448c0-1.274.23-2.485.711-3.634a7.09 7.09 0 012.114-2.881 8.503 8.503 0 013.202-1.65 14.257 14.257 0 013.83-.501l3.118.25.9.084c.272 0 .502-.042.67-.126A.91.91 0 0097.421 0l1.298 5.304-.23.084c-.502-1.17-1.319-2.068-2.449-2.715-1.13-.647-2.365-.96-3.725-.96-1.004 0-1.863.146-2.616.417-.753.272-1.423.773-2.01 1.462a7.436 7.436 0 00-1.36 2.38 8.286 8.286 0 00-.46 2.757c0 2.527.774 4.678 2.323 6.453 1.612 1.88 3.684 2.798 6.195 2.798 1.423 0 2.679-.396 3.725-1.17 1.047-.772 1.884-1.837 2.533-3.215l.293.104-2.24 5.639zm14.085-10.755l-6.676 5.805v1.232c0 1.316.125 2.172.397 2.59.272.418.691.627 1.298.627v.25h-6.279v-.25c.733-.063 1.235-.418 1.465-1.107.147-.418.231-1.107.231-2.11V8.666c0-1.023-.063-1.712-.189-2.088-.251-.689-.753-1.065-1.507-1.128V5.2h6.279v.25c-.733 0-1.235.335-1.465 1.024-.147.438-.23 1.17-.23 2.192v4.135l6.676-5.805c-.042-.313-.105-.564-.188-.71-.293-.501-.775-.794-1.507-.856v-.251h6.278v.25c-.732 0-1.235.335-1.465 1.024-.146.438-.23 1.17-.23 2.193V15.6c0 1.315.126 2.171.398 2.59.272.417.69.626 1.297.626v.25h-6.278v-.25c.732-.063 1.214-.418 1.465-1.107.146-.418.23-1.107.23-2.11V8.584zm13.645 7.058c0 1.045.084 1.754.23 2.151.273.69.796 1.044 1.612 1.044v.251h-6.53v-.25c.796 0 1.319-.355 1.57-1.066.167-.438.251-1.148.251-2.13V6.557c-1.653 0-2.888.313-3.725.96-.712.544-1.361 1.546-1.947 3.029l-.251-.084 1.382-5.555a.734.734 0 00.418.293c.168.042.398.062.712.062h9.71c.273 0 .503-.02.691-.062a.725.725 0 00.44-.293l1.381 5.555-.251.084c-.565-1.441-1.214-2.443-1.947-2.986-.837-.648-2.092-.982-3.725-.982v9.063h-.021zm17.413-7.058l-6.677 5.805v1.232c0 1.316.126 2.172.398 2.59.272.418.691.627 1.298.627v.25h-6.279v-.25c.733-.063 1.235-.418 1.465-1.107.147-.418.23-1.107.23-2.11V8.666c0-1.023-.062-1.712-.188-2.088-.251-.689-.753-1.065-1.507-1.128V5.2h6.279v.25c-.733 0-1.235.335-1.465 1.024-.147.438-.231 1.17-.231 2.192v4.135l6.677-5.805c-.042-.313-.105-.564-.189-.71-.293-.501-.774-.794-1.507-.856v-.251h6.279v.25c-.733 0-1.235.335-1.465 1.024-.147.438-.23 1.17-.23 2.193V15.6c0 1.315.125 2.171.397 2.59.272.417.691.626 1.298.626v.25h-6.279v-.25c.733-.063 1.214-.418 1.465-1.107.147-.418.231-1.107.231-2.11V8.584zm8.978-4.135v-.73h.753c.293 0 .691.041.691.333 0 .46-.628.376-.963.376h-.481v.021zm.942.418c.502-.021.9-.23.9-.773 0-.605-.503-.752-1.026-.752H152.4v2.84h.398V4.866h.481l.837 1.315h.482l-.837-1.315zm-.377 2.485c1.465 0 2.595-1.149 2.595-2.61a2.583 2.583 0 00-2.595-2.61 2.588 2.588 0 00-2.616 2.61 2.588 2.588 0 002.616 2.61zm0-.397c-1.193 0-2.218-.981-2.218-2.193 0-1.232 1.025-2.192 2.218-2.192s2.197.96 2.197 2.192c.021 1.212-1.004 2.193-2.197 2.193zM5.023 33.455c-.042-.063-.063-.084-.126-.105-.042-.02-.104-.02-.167-.02h-.084l-1.151.062c-.942 0-1.737-.23-2.344-.71C.461 32.16.125 31.429.125 30.51c0-.835.293-1.483.859-1.963.544-.46 1.234-.689 2.071-.689.189 0 .377.02.566.042.188.02.376.063.586.083a.26.26 0 00.125.021H4.5c.188 0 .313-.062.397-.209l.46 2.277-.167.041a2.591 2.591 0 00-.67-1.085 1.552 1.552 0 00-1.15-.48c-.482 0-.859.187-1.13.563-.231.334-.357.752-.357 1.253 0 .292.042.564.126.835.084.272.21.522.377.752.167.23.397.418.67.564.272.146.565.209.858.209.355 0 .69-.105.962-.293.293-.188.482-.459.628-.793l.188.063-.67 1.754zm3.578-1.212c0 .251 0 .418.021.48.042.23.168.356.377.356v.209H6.676v-.21c.147 0 .251-.04.314-.145.063-.105.105-.334.105-.69v-2.401a1.32 1.32 0 00-.838.292c-.23.21-.397.48-.502.836l-.167-.042.397-1.733a.242.242 0 00.147.104c.063.02.146.02.251.02h2.826c.125 0 .23 0 .313-.02a.406.406 0 00.189-.104l.376 1.733-.167.042c-.147-.376-.314-.648-.502-.836a1.14 1.14 0 00-.817-.313v2.422zm2.009-2.067c0-.438-.146-.647-.439-.647v-.21h2.323v.21c-.272 0-.397.209-.397.647v1.002l1.088-1.002c0-.23-.021-.397-.084-.501-.063-.105-.146-.146-.293-.146v-.21h2.302v.21c-.293 0-.44.209-.44.647v2.235c0 .438.147.647.44.647v.209h-2.302v-.21c.147 0 .251-.04.293-.145.063-.105.084-.272.084-.48v-1.567l-1.088 1.003v.584c0 .439.125.648.397.648v.209h-2.302v-.21c.293 0 .44-.208.44-.647v-2.276h-.021zm6.384-.104c-.251.23-.46.563-.628 1.002a3.86 3.86 0 00-.251 1.399c0 .146.063.272.21.397.167.146.355.209.606.209v.209h-1.59v-.084c0-.501.041-.94.146-1.358a4.53 4.53 0 011.026-1.962c.041-.042.062-.084.062-.105.021-.042.021-.063.021-.104 0-.084-.063-.126-.188-.126h-.063v-.208h3.579v.208c-.189 0-.314.084-.377.251-.042.104-.063.313-.063.585v1.9c0 .292.021.48.063.585.063.167.188.25.377.25v.21h-2.302v-.21c.125 0 .23-.041.293-.146.063-.104.084-.334.084-.668v-1.9c0-.23-.021-.397-.042-.48-.042-.084-.126-.126-.252-.126a.987.987 0 00-.376.063c-.105.02-.21.104-.335.209zm5.566 2.735c.21 0 .378-.063.524-.209.146-.146.21-.313.21-.543a.927.927 0 00-.273-.689c-.21-.209-.481-.313-.816-.313v1.19c0 .21.02.355.063.439.042.104.146.125.293.125zm-2.301.46v-.21a.407.407 0 00.334-.166c.063-.105.105-.334.105-.669v-1.9c0-.271-.02-.46-.063-.564-.062-.167-.188-.25-.376-.25v-.21h2.406v.21c-.209 0-.355.083-.418.25-.042.105-.063.293-.063.564v.25c.753 0 1.34.105 1.779.314.544.25.816.647.816 1.17 0 .375-.21.668-.607.877-.397.208-.942.313-1.653.313h-2.26v.02zm9.291-1.838v.814c0 .23.043.376.105.46.063.083.189.125.377.125.23 0 .419-.063.565-.209.147-.125.21-.334.21-.563 0-.21-.042-.397-.147-.523a.632.632 0 00-.398-.292l-.711.188zm.775-1.17a.577.577 0 00-.104-.334.378.378 0 00-.314-.146c-.147 0-.23.021-.273.084-.062.083-.104.23-.104.48v.543l.314-.084a.616.616 0 00.335-.208c.104-.084.146-.188.146-.334zm1.549-.146c0 .167-.084.314-.272.48-.147.126-.335.23-.565.293.397.063.732.188 1.004.376.251.188.398.439.398.71 0 .438-.21.752-.649.981-.398.21-.9.314-1.507.314h-2.658v-.21c.189 0 .314-.083.377-.25.042-.125.063-.313.063-.564v-1.9c0-.271-.021-.46-.063-.564-.063-.167-.188-.25-.377-.25v-.21h2.47c.544 0 .942.022 1.151.084.419.126.628.355.628.71zm5.986 3.154v-.21c.167 0 .272-.083.334-.25.042-.104.042-.313.042-.626v-.71l-.25-.23c-.147.167-.294.418-.44.73-.147.335-.23.586-.23.774 0 .208.104.313.334.313v.209h-2.616v-.21c.168 0 .314-.104.46-.313.022-.02.105-.208.294-.542l.293-.585c.104-.209.25-.439.418-.69.126-.187.293-.417.481-.647l-.146-.125a2.9 2.9 0 00-.733-.46 1.918 1.918 0 00-.795-.187v-.21h2.281v.21a.353.353 0 00-.209.062c-.063.042-.084.084-.084.167 0 .063.063.167.21.335.083.104.167.208.272.313l.481.522v-.752c0-.209-.02-.355-.042-.439-.063-.146-.167-.208-.335-.208v-.21h2.24v.21c-.168 0-.272.062-.335.209-.042.083-.042.23-.042.438v.752l.481-.522c.147-.146.252-.293.356-.418.084-.125.126-.188.126-.23 0-.062-.042-.125-.105-.167a.354.354 0 00-.21-.062v-.21h2.282v.21a2.16 2.16 0 00-.795.167 3.32 3.32 0 00-.733.46l-.146.124c.209.272.377.48.481.648.147.209.293.46.419.689l.293.585c.146.313.25.5.272.543.146.209.293.313.481.313v.209h-2.574v-.21c.188 0 .293-.104.293-.312 0-.188-.084-.46-.23-.773-.147-.313-.293-.564-.46-.752l-.252.23v.71c0 .397.021.626.084.73.063.105.146.147.293.147v.209h-2.24v.042zm5.566-3.091c0-.438-.146-.647-.44-.647v-.21h2.324v.21c-.272 0-.398.209-.398.647v1.002l1.089-1.002c0-.23-.021-.397-.084-.501-.063-.105-.147-.146-.293-.146v-.21h2.302v.21c-.293 0-.44.209-.44.647v2.235c0 .438.147.647.44.647v.209h-2.302v-.21c.146 0 .251-.04.293-.145.063-.105.084-.272.084-.48v-1.567l-1.089 1.003v.584c0 .439.126.648.398.648v.209h-2.323v-.21c.293 0 .44-.208.44-.647v-2.276zm7.702.794c.398.083.69.208.92.375a.882.882 0 01.378.731c0 .397-.21.71-.607.94-.398.23-.984.355-1.758.355-.105 0-.272-.02-.503-.042-.23-.02-.418-.041-.544-.041-.167 0-.335.02-.46.062l-.105.021-.314-1.253.168-.042.041.042c.126.188.335.355.65.501.313.147.627.23.92.23.272 0 .502-.063.649-.209.167-.146.23-.334.23-.564 0-.25-.084-.438-.272-.564-.21-.146-.544-.208-1.025-.208h-.084v-.439h.084c.355 0 .586-.042.732-.146.126-.084.188-.25.188-.48a.505.505 0 00-.523-.48c-.272 0-.523.083-.774.229-.21.125-.398.334-.586.606l-.021.041-.21-.062.566-1.441.084.146c.02.042.083.063.167.063.146-.021.293-.021.419-.042.125-.021.272-.021.46-.021.69 0 1.214.084 1.507.23.314.146.46.376.46.689 0 .188-.084.355-.272.522-.125.125-.335.209-.565.25zm1.904-.794c0-.438-.146-.647-.439-.647v-.21h2.302v.21c-.146 0-.251.041-.293.146-.063.104-.084.271-.084.501v.376h1.089v-.376c0-.23-.021-.397-.084-.501-.063-.105-.147-.146-.293-.146v-.21h2.302v.21c-.293 0-.44.209-.44.647v2.235c0 .438.147.647.44.647v.209H55.23v-.21c.147 0 .251-.04.293-.145.063-.105.084-.272.084-.48v-1.358h-1.089v1.357c0 .23.021.397.084.48.063.105.147.147.293.147v.209h-2.302v-.21c.293 0 .44-.208.44-.647v-2.234zm5.274 0c0-.438-.146-.647-.44-.647v-.21h2.324v.21c-.272 0-.398.209-.398.647v1.002l1.089-1.002c0-.23-.021-.397-.084-.501-.063-.105-.147-.146-.293-.146v-.21h2.302v.21c-.293 0-.44.209-.44.647v2.235c0 .438.147.647.44.647v.209h-2.302v-.21c.146 0 .251-.04.293-.145.063-.105.084-.272.084-.48v-1.567l-1.089 1.003v.584c0 .439.126.648.398.648v.209h-2.323v-.21c.293 0 .44-.208.44-.647v-2.276zm9.272 1.838c-.042-.105-.084-.147-.168-.188a1.314 1.314 0 00-.335-.042h-.418c-.147 0-.272.02-.377.042a.374.374 0 00-.251.188l-.126-.063.566-1.337c.02.063.062.126.125.147a.62.62 0 00.21.041h.648c.189 0 .314-.02.377-.041a.28.28 0 00.167-.146l.126.062-.544 1.337zm5.672-1.086l.585-.564c.314-.293.46-.501.46-.627a.157.157 0 00-.104-.146c-.063-.042-.146-.042-.23-.042v-.208h2.344v.208a2.16 2.16 0 00-.795.168 3.324 3.324 0 00-.733.459l-.146.125c.209.272.376.48.481.648.147.208.293.459.419.689l.292.584c.168.335.273.523.294.543.146.21.292.314.46.314v.209H73.96v-.21c.105 0 .188-.02.251-.083s.105-.125.105-.23c0-.188-.105-.459-.293-.793-.147-.272-.335-.501-.503-.731l-.25.23v.71c0 .313.02.522.041.626.042.167.168.272.335.272v.209h-2.302v-.21c.293 0 .44-.208.44-.647v-2.234c0-.439-.147-.648-.44-.648v-.208h2.302v.208c-.147 0-.272.063-.314.21-.042.104-.063.229-.063.438v.73h-.02zm6.362 1.399a3.48 3.48 0 00.125-.418c.021-.167.042-.334.042-.48 0-.209-.021-.397-.042-.606a1.576 1.576 0 00-.146-.5.832.832 0 00-.252-.335.575.575 0 00-.376-.146c-.293 0-.503.167-.628.48-.105.23-.147.501-.147.835 0 .376.063.71.168 1.003.146.418.397.606.711.606.126 0 .23-.042.335-.126a.827.827 0 00.21-.313zm-2.26.626a1.478 1.478 0 01-.566-.668 2.23 2.23 0 01-.188-.898c0-.668.25-1.211.732-1.608.46-.376 1.026-.564 1.716-.564.67 0 1.214.167 1.633.522.46.376.69.898.69 1.567 0 .647-.25 1.17-.732 1.545-.44.355-1.005.522-1.674.522-.314 0-.586-.042-.88-.104a1.901 1.901 0 01-.732-.314zm5.42-.751c0 .376.041.605.104.71.063.104.189.167.356.167v.209h-1.507v-.21c.21-.02.335-.125.377-.27.042-.084.042-.272.042-.565v-1.817c0-.292-.021-.48-.042-.584a.486.486 0 00-.377-.313v-.21h2.428v.21c-.105 0-.168.062-.168.167 0 .104.063.208.168.334l.481.668.482-.668c.104-.146.146-.25.146-.376 0-.105-.042-.146-.125-.146v-.21h2.134v.21c-.209.041-.335.125-.376.271-.042.084-.042.272-.042.543v1.838c0 .334.02.543.042.626.062.167.188.25.376.25v.21H84.97v-.21c.168 0 .272-.062.314-.166.042-.084.063-.23.063-.439v-1.858l-1.319 1.796-1.276-1.775v1.608h.02zm9.041-.022c0 .419.104.606.313.606.252 0 .44-.125.587-.396.125-.272.209-.606.209-1.003 0-.438-.084-.814-.251-1.127-.168-.314-.398-.48-.691-.48l-.126.02v2.38h-.041zm-1.486-2.38l-.126-.02c-.293 0-.523.145-.69.48-.168.313-.252.689-.252 1.127 0 .418.063.752.189 1.023.125.272.314.397.586.397.104 0 .188-.041.23-.146.042-.104.063-.25.063-.48V29.8zm0-.96c0-.418-.147-.648-.44-.648v-.209l1.926-.104v1.378c.02 0 .104 0 .209-.02.125-.022.21-.022.251-.022.67 0 1.193.188 1.612.585.397.397.606.94.606 1.65 0 .292-.062.564-.167.814a2.16 2.16 0 01-.502.648 1.91 1.91 0 01-.67.355c-.23.062-.502.104-.795.104l-.544-.042v.857c0 .208.041.355.125.48.084.125.21.167.356.167v.209h-2.511v-.209a.525.525 0 00.376-.167.772.772 0 00.147-.48v-.857l-.544.042c-.293 0-.565-.042-.796-.104a1.892 1.892 0 01-.67-.355 1.741 1.741 0 01-.502-.648c-.125-.25-.167-.522-.167-.814 0-.71.21-1.253.607-1.65.398-.397.942-.585 1.611-.585a.94.94 0 01.252.021c.062 0 .146.021.23.021v-.418zm7.534 3.487a3.48 3.48 0 00.126-.418c.02-.167.041-.334.041-.48 0-.209-.02-.397-.041-.606a1.576 1.576 0 00-.147-.5.83.83 0 00-.251-.335.575.575 0 00-.377-.146c-.293 0-.502.167-.628.48-.104.23-.146.501-.146.835 0 .376.063.71.167 1.003.147.418.398.606.712.606.125 0 .23-.042.335-.126.083-.083.146-.188.209-.313zm-2.26.626a1.478 1.478 0 01-.565-.668 2.23 2.23 0 01-.189-.898c0-.668.251-1.211.733-1.608.46-.376 1.025-.564 1.716-.564.67 0 1.214.167 1.632.522.46.376.69.898.69 1.567 0 .647-.25 1.17-.731 1.545-.44.355-1.005.522-1.675.522a4.09 4.09 0 01-.879-.104 1.774 1.774 0 01-.732-.314zm6.278-.773v.251c0 .084.021.167.063.21.084.104.167.145.314.145.356 0 .607-.167.816-.48.167-.271.23-.585.23-.96 0-.418-.104-.773-.335-1.045-.251-.313-.565-.46-.983-.46h-.105v2.34zm.565-2.84c.356 0 .67.021.942.084.272.063.523.188.753.376.231.188.419.439.565.71.147.292.21.585.21.898 0 .627-.23 1.128-.712 1.504-.188.167-.46.271-.816.355a3.923 3.923 0 01-.879.083c-.105 0-.188 0-.314-.02-.105 0-.209-.022-.314-.042v.856c0 .209.042.355.126.48a.446.446 0 00.356.167V35h-2.512v-.209a.526.526 0 00.377-.167c.104-.104.146-.272.146-.48v-3.989c0-.418-.146-.647-.44-.647v-.21h2.512v.043zm5.546 2.903c0 .251 0 .418.021.48.042.23.168.356.377.356v.209h-2.323v-.21c.146 0 .251-.04.335-.145.062-.105.104-.334.104-.69v-2.401c-.314 0-.607.104-.837.292-.23.21-.397.48-.502.836l-.168-.042.398-1.733a.243.243 0 00.147.104c.062.02.146.02.251.02h2.825c.126 0 .209 0 .314-.02a.404.404 0 00.188-.104l.377 1.733-.167.042c-.147-.376-.314-.648-.503-.836a1.138 1.138 0 00-.816-.313v2.422h-.021zm4.73-2.067c0-.438-.146-.647-.439-.647v-.21h2.302v.21c-.147 0-.251.041-.293.146-.063.104-.084.271-.084.501v.376h1.088v-.376c0-.23-.021-.397-.083-.501-.063-.105-.147-.146-.293-.146v-.21h2.302v.21c-.293 0-.44.209-.44.647v2.235c0 .438.147.647.44.647v.209h-2.302v-.21c.146 0 .251-.04.293-.145.062-.105.083-.272.083-.48v-1.358h-1.088v1.357c0 .23.021.397.084.48.063.105.146.147.293.147v.209h-2.302v-.21c.293 0 .439-.208.439-.647v-2.234zm6.844 1.149a1.022 1.022 0 00-.335.334.636.636 0 00-.147.417c0 .126.042.25.126.355a.377.377 0 00.314.147c.293 0 .502-.188.607-.544a2.94 2.94 0 00.125-.918c-.167.02-.293.062-.397.083a1.13 1.13 0 00-.293.125zm.69-.752v-.146c0-.084 0-.168-.021-.23a.591.591 0 00-.083-.167.746.746 0 00-.272-.167 1.671 1.671 0 00-.356-.042 1.53 1.53 0 00-.858.25c-.251.168-.44.418-.565.71h-.168l.168-1.44a.572.572 0 00.125.104c.042.02.084.042.147.042.042 0 .104 0 .167-.021.063-.021.105-.021.168-.042.397-.083.711-.146.9-.167.188-.02.376-.042.565-.042.251 0 .481.021.69.063.21.042.377.125.544.23a.79.79 0 01.314.543c.042.146.042.376.042.668v1.629c0 .209.021.376.063.46.063.145.188.229.377.25v.209h-1.654a.948.948 0 01-.167-.23c-.042-.105-.084-.188-.105-.292-.125.188-.355.355-.648.48a2.289 2.289 0 01-.817.167 1.35 1.35 0 01-.816-.25.893.893 0 01-.377-.752c0-.376.168-.71.482-.961.251-.209.607-.376 1.067-.522.314-.105.691-.167 1.13-.23v-.104h-.042zm6.76.355l.586-.564c.314-.293.461-.501.461-.627a.157.157 0 00-.105-.146c-.063-.042-.146-.042-.23-.042v-.208h2.344v.208a2.16 2.16 0 00-.795.168 3.325 3.325 0 00-.733.459l-.146.125c.209.272.376.48.481.648.146.208.293.459.419.689l.293.584c.167.335.272.523.293.543.146.21.293.314.46.314v.209h-2.616v-.21c.105 0 .188-.02.251-.083s.105-.125.105-.23c0-.188-.105-.459-.293-.793-.147-.272-.335-.501-.503-.731l-.251.23v.71c0 .313.021.522.042.626.042.167.168.272.335.272v.209h-2.302v-.21c.293 0 .439-.208.439-.647v-2.234c0-.439-.146-.648-.439-.648v-.208h2.302v.208c-.147 0-.272.063-.314.21-.042.104-.063.229-.063.438v.73h-.021zm6.635-.585c.041-.104.062-.209.083-.271a.852.852 0 00.021-.23c0-.104-.042-.167-.104-.23a.45.45 0 00-.252-.063v-.208h1.633v.208c-.209 0-.377.126-.523.355-.063.084-.147.293-.272.648l-1.298 3.237c-.167.397-.335.689-.502.856-.231.23-.544.355-.921.355-.168 0-.335-.02-.502-.084a2.116 2.116 0 01-.482-.25l.44-1.044.167.062v.188c0 .105.042.21.147.293a.501.501 0 00.314.125c.209 0 .376-.104.523-.292.125-.188.188-.397.188-.627 0-.146-.042-.334-.105-.522-.041-.083-.104-.25-.23-.501l-1.046-2.13a5.084 5.084 0 00-.251-.46c-.126-.146-.272-.23-.44-.23v-.208h2.595v.209a.935.935 0 00-.272.041.218.218 0 00-.104.188c0 .042.021.105.041.188.021.084.063.146.084.21l.607 1.503.461-1.316zm5.734 2.318c.105.146.188.23.23.272a.437.437 0 00.314.146v.209h-2.469v-.21c.062 0 .125-.02.167-.041a.115.115 0 00.063-.104c0-.063-.021-.105-.042-.147-.021-.041-.063-.104-.105-.188l-.523-.814-.502.627c-.084.104-.147.167-.168.23a.51.51 0 00-.083.27c0 .042.021.084.042.126.041.042.104.063.188.063v.209h-1.549v-.21c.189-.041.377-.145.565-.313.063-.062.21-.23.419-.5l.774-.982-.732-1.128c-.168-.23-.251-.376-.293-.418-.147-.146-.293-.23-.44-.23v-.208h2.512v.209c-.084.02-.147.02-.21.062-.062.021-.083.084-.083.146 0 .042.02.084.041.147.021.041.084.146.147.25l.23.376.126-.146c.083-.104.167-.209.23-.313.105-.146.146-.272.146-.355 0-.063-.021-.105-.062-.126-.042-.02-.105-.02-.168-.02v-.21h1.507v.21a1.124 1.124 0 00-.481.208c-.084.063-.21.188-.356.397l-.649.815 1.214 1.691zm1.172-2.485c0-.438-.147-.647-.44-.647v-.21h2.302v.21c-.146 0-.251.041-.293.146-.062.104-.083.271-.083.501v.376h1.088v-.376c0-.23-.021-.397-.084-.501-.062-.105-.146-.146-.293-.146v-.21h2.302v.21c-.293 0-.439.209-.439.647v2.235c0 .438.146.647.439.647v.209h-2.302v-.21c.147 0 .251-.04.293-.145.063-.105.084-.272.084-.48v-1.358h-1.088v1.357c0 .23.021.397.083.48.063.105.147.147.293.147v.209h-2.302v-.21c.293 0 .44-.208.44-.647v-2.234zm7.785.48v-.125a.659.659 0 00-.188-.48.635.635 0 00-.46-.21c-.231 0-.419.126-.545.377-.104.188-.146.418-.146.71l1.339-.272zm-1.276.752c.042.376.167.668.355.898.21.272.503.397.859.397.313 0 .586-.084.837-.25.251-.168.439-.398.565-.69l.167.063-.502 1.524c-.042-.02-.063-.041-.084-.062-.063-.042-.104-.042-.167-.042l-.168.02c-.167.022-.335.043-.502.063a4.046 4.046 0 01-.502.042c-.314 0-.607-.042-.9-.104a2.401 2.401 0 01-.775-.355 1.964 1.964 0 01-.606-.71 1.912 1.912 0 01-.21-.92c0-.646.251-1.148.733-1.524.439-.355 1.004-.522 1.674-.522.565 0 1.026.126 1.402.376.398.293.649.69.754 1.211l-2.93.585z"/></g><defs><clipPath id="clip0"><path fill="#fff" d="M0 0h156v35H0z"/></clipPath></defs></svg>