<svg width="128" height="29" viewBox="0 0 128 29" fill="none" xmlns="http://www.w3.org/2000/svg"><g clip-path="url(#clip0)" fill="#FF3D00"><path d="M1.511 3.478c0-1.09-.12-1.817-.343-2.18C.928.934.55.709 0 .623V.415h5.564v.208c-.515.052-.893.242-1.134.588-.24.346-.377 1.038-.377 2.111v2.855l2.009-1.609c1.064-.882 1.82-1.575 2.266-2.059.55-.588.842-1.038.842-1.315 0-.208-.052-.346-.155-.415-.103-.07-.257-.121-.48-.156V.415h5.598v.208c-.79 0-1.58.242-2.353.727-.206.12-.859.64-1.992 1.574L8.054 4.378a17.813 17.813 0 012.988 3.668 24.557 24.557 0 012.146 4.257l.447 1.072c.309.762.515 1.229.6 1.385.31.501.705.778 1.168.847v.208h-5.117v-.208c.55-.086.807-.38.807-.917 0-.57-.206-1.367-.6-2.37-.293-.71-.67-1.454-1.1-2.232a20.057 20.057 0 00-1.408-2.146 32.228 32.228 0 00-1.717-2.076L4.07 7.648v5.104c0 .9.068 1.523.189 1.87.223.587.652.916 1.322.985v.208H0v-.208c.653-.103 1.082-.432 1.305-.951.137-.346.206-.917.206-1.73V3.477z"/><path d="M23.045 7.06c.103-.33.223-.658.326-1.004.103-.346.155-.606.155-.796 0-.225-.07-.398-.19-.52-.12-.12-.343-.207-.652-.241V4.29h3.538v.208c-.464.069-.842.311-1.117.778-.12.208-.309.64-.532 1.333l-3.589 10.416c-.532 1.575-1.15 2.613-1.803 3.132-.567.45-1.305.675-2.18.675-.413 0-.825-.07-1.203-.208a3.313 3.313 0 01-1.082-.64l1.323-3.166.188.12c-.051.19-.068.381-.068.554 0 .485.12.9.378 1.246.24.346.584.52 1.013.52.687 0 1.219-.33 1.597-1.004.326-.554.48-1.229.48-1.99 0-.502-.12-1.108-.377-1.8-.086-.26-.326-.848-.721-1.747l-2.696-6.23c-.275-.657-.481-1.09-.619-1.28-.309-.45-.652-.675-1.047-.675v-.207h4.653v.207c-.257.035-.446.104-.566.225-.12.121-.172.277-.172.485 0 .173.052.38.155.64.103.26.171.45.223.588l2.61 6.454 1.975-5.865zm13.617 6.92c.24.33.464.658.721.987.327.38.653.588.996.623v.208h-4.79v-.208c.48-.07.72-.242.72-.554 0-.225-.12-.553-.377-.951-.24-.33-.395-.571-.515-.745l-1.735-2.63L30 12.804c-.928 1.177-1.391 1.938-1.391 2.284 0 .277.24.45.686.52v.207h-3.571v-.208a2.01 2.01 0 00.755-.346c.224-.173.584-.57 1.048-1.194l3.468-4.29-1.94-2.821c-.738-1.09-1.185-1.696-1.322-1.852-.395-.38-.739-.588-1.065-.588v-.208h4.98v.208c-.515.052-.773.242-.773.606 0 .19.086.432.24.726.12.225.293.485.516.796l.876 1.298 1.03-1.384c.326-.45.532-.727.584-.848.171-.312.274-.571.274-.761 0-.295-.223-.45-.686-.45V4.29h3.898v.208c-.55.052-1.1.346-1.666.917-.137.138-.567.657-1.305 1.54L33.09 8.824l3.572 5.157zm11.574-4.844h-5.478v3.79c0 1.09.103 1.816.326 2.162.224.347.567.52 1.065.52v.207h-5.151v-.207c.6 0 1.013-.277 1.202-.848.12-.364.188-.97.188-1.817V7.18c0-1.09-.102-1.8-.326-2.146-.223-.346-.566-.519-1.064-.519V4.31h5.151v.207c-.6 0-1.013.277-1.202.83-.12.364-.189.952-.189 1.818v.934h5.478v-.934c0-1.073-.103-1.8-.326-2.129-.223-.346-.567-.501-1.065-.501v-.208h5.152v.208c-.601 0-1.013.276-1.202.847-.12.364-.19.97-.19 1.817v5.762c0 1.09.104 1.8.327 2.146.223.346.567.519 1.065.519v.207h-5.152v-.207c.601 0 .996-.277 1.202-.848.12-.363.19-.969.19-1.834V9.136zm14.15-2.025l-5.478 4.81v1.022c0 1.09.103 1.8.326 2.145.223.346.567.52 1.065.52v.207h-5.152v-.208c.601-.052.996-.346 1.202-.917.12-.346.19-.917.19-1.747V7.18c0-.848-.052-1.42-.155-1.73-.206-.572-.618-.883-1.237-.935v-.208H58.3v.208c-.601 0-1.013.277-1.202.848-.12.363-.19.969-.19 1.817v3.426l5.479-4.81c-.035-.26-.086-.468-.155-.589-.24-.415-.635-.657-1.236-.71V4.29h5.152v.208c-.602 0-1.014.277-1.203.848-.12.363-.189.968-.189 1.816v5.762c0 1.09.104 1.8.327 2.146.223.346.567.519 1.065.519v.208h-5.152v-.208c.6-.052.996-.346 1.202-.917.12-.346.189-.917.189-1.748V7.111zm18.597 8.912a1.717 1.717 0 00-.464-.052h-.309l-2.799.138c-1.356 0-2.558-.156-3.589-.45-1.202-.346-2.266-.882-3.177-1.644a7.743 7.743 0 01-2.232-2.941 9.124 9.124 0 01-.755-3.686c0-1.055.189-2.059.583-3.01a5.871 5.871 0 011.735-2.388A6.952 6.952 0 0172.603.623a11.59 11.59 0 013.143-.415l2.558.207.739.07c.223 0 .412-.035.55-.104A.752.752 0 0079.935 0L81 4.395l-.189.07c-.412-.97-1.082-1.714-2.009-2.25-.927-.537-1.94-.796-3.056-.796-.825 0-1.529.121-2.147.346-.618.225-1.168.64-1.648 1.211a6.178 6.178 0 00-1.117 1.973 6.925 6.925 0 00-.377 2.284c0 2.093.635 3.876 1.906 5.346 1.322 1.558 3.022 2.319 5.083 2.319 1.167 0 2.198-.329 3.056-.969.859-.64 1.546-1.523 2.078-2.665l.24.087-1.837 4.672zM92.54 7.111l-5.478 4.81v1.022c0 1.09.103 1.8.326 2.145.223.346.567.52 1.065.52v.207H83.3v-.208c.601-.052 1.013-.346 1.202-.917.12-.346.19-.917.19-1.747V7.18c0-.848-.052-1.42-.155-1.73-.206-.572-.618-.883-1.237-.935v-.208h5.152v.208c-.601 0-1.013.277-1.202.848-.12.363-.19.969-.19 1.817v3.426l5.479-4.81c-.035-.26-.086-.468-.155-.589-.24-.415-.635-.657-1.236-.71V4.29H96.3v.208c-.6 0-1.013.277-1.202.848-.12.363-.189.968-.189 1.816v5.762c0 1.09.104 1.8.327 2.146.223.346.566.519 1.064.519v.208h-5.15v-.208c.6-.052.996-.346 1.202-.917.12-.346.189-.917.189-1.748V7.111zm11.196 5.849c0 .865.069 1.453.189 1.782.223.571.652.865 1.322.865v.208h-5.358v-.208c.653 0 1.082-.294 1.288-.882.138-.364.206-.952.206-1.765V5.433c-1.356 0-2.37.26-3.056.796-.584.45-1.116 1.28-1.597 2.509l-.206-.07 1.133-4.602a.606.606 0 00.344.242c.137.035.326.052.583.052h7.968c.223 0 .412-.017.567-.052a.59.59 0 00.36-.242l1.134 4.603-.206.069c-.464-1.194-.996-2.024-1.597-2.474-.687-.537-1.717-.814-3.057-.814v7.51h-.017zm14.287-5.849l-5.478 4.81v1.022c0 1.09.103 1.8.326 2.145.224.346.567.52 1.065.52v.207h-5.151v-.208c.601-.052 1.013-.346 1.202-.917.12-.346.188-.917.188-1.747V7.18c0-.848-.051-1.42-.154-1.73-.206-.572-.618-.883-1.236-.935v-.208h5.151v.208c-.601 0-1.013.277-1.202.848-.12.363-.189.969-.189 1.817v3.426l5.478-4.81c-.034-.26-.086-.468-.154-.589-.241-.415-.636-.657-1.237-.71V4.29h5.152v.208c-.601 0-1.013.277-1.202.848-.121.363-.189.968-.189 1.816v5.762c0 1.09.103 1.8.326 2.146.223.346.567.519 1.065.519v.208h-5.152v-.208c.601-.052.996-.346 1.202-.917.12-.346.189-.917.189-1.748V7.111zm7.367-3.425V3.08h.618c.24 0 .567.035.567.277 0 .38-.515.311-.79.311h-.395v.018zm.773.346c.412-.018.738-.19.738-.64 0-.502-.412-.624-.841-.624h-1.014v2.354h.327v-1.09h.395l.687 1.09h.395l-.687-1.09zm-.309 2.059c1.202 0 2.129-.952 2.129-2.163 0-1.211-.945-2.163-2.129-2.163-1.203 0-2.147.952-2.147 2.163 0 1.211.944 2.163 2.147 2.163zm0-.33c-.979 0-1.821-.812-1.821-1.816 0-1.02.842-1.817 1.821-1.817a1.81 1.81 0 011.803 1.817c.017 1.004-.825 1.817-1.803 1.817zM4.121 27.72c-.034-.052-.051-.07-.103-.087-.034-.017-.086-.017-.137-.017h-.069l-.944.052c-.773 0-1.426-.19-1.924-.589-.566-.432-.841-1.038-.841-1.8 0-.691.24-1.228.704-1.626.446-.38 1.013-.57 1.7-.57.155 0 .31.017.464.034.154.017.309.052.48.07a.216.216 0 00.104.016h.137c.154 0 .257-.051.326-.172l.378 1.886-.137.034a2.15 2.15 0 00-.55-.9 1.268 1.268 0 00-.944-.398 1.08 1.08 0 00-.928.468c-.189.277-.292.623-.292 1.038 0 .242.035.467.103.692.07.225.172.433.31.623.137.19.326.346.549.467.223.121.464.173.704.173.292 0 .567-.087.79-.242.24-.156.395-.38.515-.658l.155.052-.55 1.454zm2.937-1.004c0 .208 0 .346.017.398.034.19.137.294.309.294v.173H5.478v-.173c.12 0 .206-.035.257-.121.052-.087.086-.277.086-.571v-1.99a1.08 1.08 0 00-.687.242 1.463 1.463 0 00-.412.692l-.137-.034.326-1.436a.196.196 0 00.12.086c.052.018.12.018.206.018h2.319c.103 0 .188 0 .257-.018a.331.331 0 00.155-.086l.309 1.436-.138.034c-.12-.311-.257-.536-.412-.692a.93.93 0 00-.67-.26v2.008zm1.648-1.713c0-.363-.12-.536-.36-.536v-.173h1.906v.173c-.224 0-.327.173-.327.536v.83l.893-.83c0-.19-.017-.329-.068-.415-.052-.087-.12-.121-.24-.121v-.173h1.888v.173c-.24 0-.36.173-.36.536v1.852c0 .363.12.536.36.536v.173H10.51v-.173c.12 0 .206-.035.24-.121.052-.087.07-.225.07-.398v-1.298l-.894.83v.485c0 .364.103.537.327.537v.173h-1.89v-.173c.241 0 .361-.173.361-.537v-1.886h-.017zm5.238-.087c-.206.19-.378.468-.515.83a3.228 3.228 0 00-.207 1.16c0 .121.052.225.172.329a.702.702 0 00.498.173v.173h-1.305v-.07c0-.414.034-.778.12-1.124.155-.623.43-1.16.842-1.626.034-.035.051-.07.051-.087.018-.034.018-.052.018-.086 0-.07-.052-.104-.155-.104h-.052v-.173h2.937v.173c-.155 0-.258.069-.31.207-.034.087-.05.26-.05.485v1.575c0 .242.016.397.05.484.052.138.155.208.31.208v.173h-1.89v-.173c.104 0 .19-.035.241-.122.052-.086.069-.276.069-.553v-1.575c0-.19-.017-.329-.034-.398-.035-.069-.103-.104-.206-.104a.827.827 0 00-.31.052c-.085.018-.171.087-.274.173zm4.568 2.267a.59.59 0 00.601-.623.773.773 0 00-.224-.57.903.903 0 00-.67-.26v.986c0 .173.018.294.052.363.034.087.12.104.24.104zm-1.89.38v-.172c.12 0 .207-.052.275-.139.052-.086.086-.277.086-.553v-1.575c0-.225-.017-.38-.051-.467-.052-.139-.155-.208-.31-.208v-.173h1.975v.173c-.171 0-.292.07-.343.208-.034.086-.052.242-.052.467v.208c.619 0 1.1.086 1.46.26.447.207.67.536.67.968 0 .312-.172.554-.498.727-.326.173-.773.26-1.357.26h-1.854v.017zm7.625-1.522v.675c0 .19.034.312.086.38.051.07.154.105.309.105a.619.619 0 00.463-.173c.12-.104.172-.277.172-.468 0-.173-.034-.328-.12-.432a.52.52 0 00-.326-.242l-.584.155zm.635-.969a.481.481 0 00-.086-.276.31.31 0 00-.257-.122c-.12 0-.19.018-.224.07-.051.069-.085.19-.085.398v.45l.257-.07a.505.505 0 00.275-.173c.086-.069.12-.155.12-.277zm1.27-.12c0 .138-.068.259-.222.397-.12.104-.275.19-.464.242.326.052.601.156.824.312.206.156.327.363.327.588 0 .364-.172.623-.533.813-.326.174-.738.26-1.236.26h-2.181v-.173c.154 0 .258-.07.31-.208.033-.104.05-.26.05-.467v-1.574c0-.225-.017-.381-.05-.468-.052-.138-.155-.207-.31-.207v-.173h2.026c.447 0 .773.017.945.069.343.104.515.294.515.588zm4.912 2.612v-.173c.138 0 .223-.07.275-.208.034-.087.034-.26.034-.519v-.588l-.206-.19c-.12.138-.24.345-.36.605-.12.277-.19.484-.19.64 0 .173.087.26.275.26v.173h-2.146v-.173c.137 0 .258-.087.378-.26.017-.017.086-.173.24-.45l.24-.484a5.58 5.58 0 01.344-.571c.103-.156.24-.346.395-.537l-.12-.104a2.376 2.376 0 00-.601-.38 1.562 1.562 0 00-.653-.156v-.173h1.872v.173a.289.289 0 00-.172.052c-.051.035-.069.07-.069.139 0 .051.052.138.172.276.069.087.138.173.224.26l.395.433v-.624c0-.172-.018-.294-.035-.363-.051-.12-.137-.173-.275-.173v-.173h1.838v.173c-.138 0-.223.052-.275.173-.034.07-.034.19-.034.363v.623l.395-.432c.12-.121.206-.242.291-.346.07-.104.104-.156.104-.19 0-.052-.035-.104-.086-.139a.288.288 0 00-.172-.052v-.173h1.872v.173c-.224 0-.43.052-.653.139a2.724 2.724 0 00-.6.38l-.121.104c.172.225.31.398.395.537.12.172.24.38.343.57l.24.485c.121.26.207.415.224.45.12.173.24.26.395.26v.172h-2.112v-.173c.154 0 .24-.086.24-.26 0-.155-.069-.38-.189-.64a2.58 2.58 0 00-.377-.622l-.206.19v.588c0 .33.017.52.068.606.052.087.12.121.24.121v.173h-1.837v.035zm4.568-2.561c0-.363-.12-.536-.36-.536v-.173h1.905v.173c-.223 0-.326.173-.326.536v.83l.893-.83c0-.19-.017-.329-.069-.415-.051-.087-.12-.121-.24-.121v-.173h1.889v.173c-.24 0-.36.173-.36.536v1.852c0 .363.12.536.36.536v.173h-1.889v-.173c.12 0 .206-.035.24-.121.052-.087.07-.225.07-.398v-1.298l-.894.83v.485c0 .364.103.537.326.537v.173h-1.906v-.173c.24 0 .36-.173.36-.537v-1.886zm6.319.657c.326.07.567.174.756.312a.733.733 0 01.309.606c0 .328-.172.588-.498.778-.326.19-.807.294-1.443.294-.086 0-.223-.017-.412-.034-.189-.017-.343-.035-.446-.035-.138 0-.275.018-.378.052l-.086.018-.258-1.039.138-.034.034.034c.103.156.275.294.533.416.257.12.515.19.755.19.223 0 .412-.052.532-.173.138-.121.19-.277.19-.467 0-.208-.07-.364-.224-.468-.172-.12-.446-.172-.841-.172h-.069v-.364h.069c.292 0 .48-.035.6-.121.104-.07.155-.208.155-.398a.412.412 0 00-.43-.398c-.222 0-.428.07-.634.19-.172.104-.327.277-.481.502l-.017.035-.172-.052.464-1.194.068.121c.017.035.069.052.138.052.12-.017.24-.017.343-.035.103-.017.223-.017.378-.017.566 0 .996.07 1.236.19.258.121.378.312.378.571 0 .156-.069.295-.223.433-.103.104-.275.173-.464.208zm1.563-.657c0-.363-.12-.536-.36-.536v-.173h1.888v.173c-.12 0-.206.034-.24.12-.052.087-.069.226-.069.416v.312h.893v-.312c0-.19-.017-.329-.069-.415-.051-.087-.12-.121-.24-.121v-.173h1.889v.173c-.24 0-.36.173-.36.536v1.852c0 .363.12.536.36.536v.173h-1.89v-.173c.121 0 .207-.035.241-.121.052-.087.069-.225.069-.398v-1.125h-.893v1.125c0 .19.017.329.069.398.051.086.12.121.24.121v.173h-1.889v-.173c.24 0 .36-.173.36-.536v-1.852zm4.327 0c0-.363-.12-.536-.36-.536v-.173h1.906v.173c-.224 0-.327.173-.327.536v.83l.893-.83c0-.19-.017-.329-.068-.415-.052-.087-.12-.121-.24-.121v-.173h1.888v.173c-.24 0-.36.173-.36.536v1.852c0 .363.12.536.36.536v.173h-1.889v-.173c.12 0 .206-.035.24-.121.052-.087.07-.225.07-.398v-1.298l-.894.83v.485c0 .364.103.537.327.537v.173H47.48v-.173c.24 0 .361-.173.361-.537v-1.886zm7.607 1.523c-.034-.087-.068-.122-.137-.156a1.068 1.068 0 00-.275-.035h-.344c-.12 0-.222.017-.308.035a.307.307 0 00-.206.155l-.103-.051.463-1.108c.018.052.052.104.103.121a.505.505 0 00.172.035h.532c.155 0 .258-.017.31-.035a.23.23 0 00.137-.12l.103.051-.447 1.108zm4.654-.9l.48-.467c.258-.243.379-.416.379-.52a.13.13 0 00-.086-.12c-.052-.035-.12-.035-.19-.035v-.173h1.924v.173c-.223 0-.43.052-.652.138a2.728 2.728 0 00-.601.38l-.12.105c.171.225.309.398.394.536.12.173.24.38.344.571l.24.485c.138.276.223.432.24.45.12.172.241.259.378.259v.173h-2.146v-.173c.086 0 .154-.017.206-.07a.248.248 0 00.086-.19c0-.155-.086-.38-.24-.657-.12-.225-.275-.415-.413-.606l-.206.19v.589c0 .26.017.433.035.52.034.137.137.224.274.224v.173H58.54v-.173c.24 0 .361-.173.361-.536V25.02c0-.363-.12-.536-.36-.536v-.173h1.888v.173c-.12 0-.223.052-.257.173a.956.956 0 00-.052.363v.606h-.017zm5.22 1.159a2.92 2.92 0 00.103-.346c.017-.138.035-.277.035-.398 0-.173-.017-.329-.035-.502a1.317 1.317 0 00-.12-.415.688.688 0 00-.206-.277.469.469 0 00-.31-.12c-.24 0-.411.137-.514.397-.086.19-.12.415-.12.692 0 .312.051.588.137.83.12.347.326.503.584.503a.419.419 0 00.274-.104.685.685 0 00.172-.26zm-1.854.52a1.221 1.221 0 01-.464-.554 1.864 1.864 0 01-.154-.744c0-.554.206-1.004.6-1.333.378-.311.842-.467 1.409-.467.55 0 .996.139 1.339.433.378.311.567.744.567 1.297 0 .537-.206.97-.601 1.28-.36.295-.825.433-1.374.433-.258 0-.48-.034-.721-.086a1.553 1.553 0 01-.601-.26zm4.447-.624c0 .312.035.502.086.589.052.086.155.138.292.138v.173h-1.236v-.173c.171-.017.274-.104.309-.225.034-.07.034-.225.034-.467V25.21a2.66 2.66 0 00-.034-.484.4.4 0 00-.31-.26v-.173h1.993v.174c-.086 0-.138.051-.138.138 0 .086.052.173.138.277l.395.553.394-.553c.086-.121.12-.208.12-.312 0-.086-.034-.12-.102-.12v-.174h1.751v.173c-.171.035-.275.104-.309.225-.034.07-.034.225-.034.45v1.523c0 .277.017.45.034.519.052.138.155.207.31.207v.173h-1.89v-.173c.138 0 .224-.052.258-.138.034-.07.051-.19.051-.363v-1.54l-1.081 1.488-1.048-1.471v1.332h.017zm7.418-.017c0 .346.086.502.258.502.206 0 .36-.104.48-.329.104-.225.172-.502.172-.83 0-.364-.068-.675-.206-.935-.137-.26-.326-.398-.566-.398l-.103.018v1.972h-.035zm-1.219-1.973l-.103-.017c-.24 0-.43.121-.566.398-.138.26-.206.571-.206.934 0 .347.051.623.154.848.103.225.258.33.48.33.087 0 .155-.036.19-.122.034-.087.051-.208.051-.398v-1.973zm0-.795c0-.347-.12-.537-.36-.537v-.173l1.58-.086v1.142c.017 0 .085 0 .171-.018.103-.017.172-.017.206-.017.55 0 .979.156 1.323.485.326.328.497.778.497 1.366 0 .243-.051.468-.137.675a1.79 1.79 0 01-.412.537c-.172.138-.36.242-.55.294a2.485 2.485 0 01-.652.086l-.447-.034v.71c0 .172.035.293.103.397.07.104.172.139.292.139v.173h-2.06v-.174c.12 0 .223-.051.309-.138a.644.644 0 00.12-.398v-.71l-.446.035c-.24 0-.464-.034-.653-.086a1.55 1.55 0 01-.962-.83 1.486 1.486 0 01-.137-.676c0-.588.172-1.038.498-1.366.326-.33.773-.485 1.322-.485.086 0 .138 0 .206.017.052 0 .12.018.19.018v-.346zm6.182 2.889a2.9 2.9 0 00.103-.346c.017-.138.034-.277.034-.398 0-.173-.017-.329-.034-.502a1.317 1.317 0 00-.12-.415.69.69 0 00-.206-.277.47.47 0 00-.31-.12c-.24 0-.411.137-.514.397-.086.19-.12.415-.12.692 0 .312.05.588.137.83.12.347.326.503.584.503a.419.419 0 00.274-.104.97.97 0 00.172-.26zm-1.854.52a1.22 1.22 0 01-.464-.554 1.864 1.864 0 01-.155-.744c0-.554.206-1.004.601-1.333.378-.311.842-.467 1.408-.467.55 0 .997.139 1.34.433.378.311.567.744.567 1.297 0 .537-.207.97-.601 1.28-.361.295-.825.433-1.374.433-.258 0-.481-.034-.721-.086a1.449 1.449 0 01-.601-.26zm5.151-.641v.208c0 .069.017.138.052.173.068.086.137.12.257.12.292 0 .498-.138.67-.397.137-.225.189-.485.189-.796 0-.346-.086-.64-.275-.865-.206-.26-.464-.381-.807-.381h-.086v1.938zm.464-2.353c.292 0 .55.017.773.069.223.052.429.156.618.311.189.156.343.364.463.589.12.242.172.484.172.744 0 .519-.189.934-.584 1.246-.154.138-.377.224-.67.294a3.178 3.178 0 01-.72.069c-.087 0-.155 0-.258-.017-.086 0-.172-.018-.258-.035v.71c0 .172.035.294.103.397a.366.366 0 00.292.139V29h-2.06v-.173c.12 0 .223-.052.309-.139.086-.086.12-.224.12-.398v-3.305c0-.345-.12-.536-.36-.536v-.173h2.06v.035zm4.55 2.405c0 .208 0 .346.018.398.034.19.137.294.309.294v.173h-1.906v-.173c.12 0 .206-.035.274-.121.052-.087.086-.277.086-.571v-1.99a1.08 1.08 0 00-.687.242 1.462 1.462 0 00-.412.692l-.137-.034.326-1.436a.196.196 0 00.12.086c.052.018.12.018.206.018h2.319c.103 0 .171 0 .257-.018a.332.332 0 00.155-.086l.309 1.436-.138.034c-.12-.311-.257-.536-.412-.692a.93.93 0 00-.67-.26v2.008h-.017zm3.881-1.713c0-.363-.12-.536-.36-.536v-.173h1.889v.173c-.12 0-.206.034-.24.12-.052.087-.07.226-.07.416v.312h.894v-.312c0-.19-.018-.329-.07-.415-.05-.087-.12-.121-.24-.121v-.173h1.89v.173c-.241 0-.361.173-.361.536v1.852c0 .363.12.536.36.536v.173h-1.889v-.173c.12 0 .207-.035.24-.121.052-.087.07-.225.07-.398v-1.125h-.893v1.125c0 .19.017.329.068.398.052.086.12.121.24.121v.173h-1.888v-.173c.24 0 .36-.173.36-.536v-1.852zm5.616.952a.845.845 0 00-.275.277.532.532 0 00-.12.346c0 .103.034.207.103.294a.308.308 0 00.257.12c.24 0 .412-.155.498-.449a2.47 2.47 0 00.103-.761c-.137.017-.24.052-.326.069a.913.913 0 00-.24.104zm.566-.623v-.121c0-.07 0-.139-.017-.19a.522.522 0 00-.069-.14.605.605 0 00-.223-.138 1.353 1.353 0 00-.292-.034 1.25 1.25 0 00-.704.207c-.206.139-.36.346-.463.589h-.138l.138-1.194c.034.035.068.07.103.086a.247.247 0 00.12.035c.034 0 .086 0 .137-.017.052-.018.086-.018.138-.035a8.81 8.81 0 01.738-.138c.154-.018.309-.035.464-.035.206 0 .394.017.566.052.172.035.31.104.447.19a.66.66 0 01.257.45c.035.121.035.312.035.554v1.349c0 .174.017.312.051.381.052.121.155.19.309.208v.173h-1.356a.767.767 0 01-.138-.19c-.034-.087-.068-.156-.086-.243-.103.156-.291.294-.532.398a1.856 1.856 0 01-.67.139c-.257 0-.48-.07-.67-.208a.742.742 0 01-.308-.623c0-.311.137-.588.394-.796.207-.173.499-.311.876-.432.258-.087.567-.139.928-.19v-.087h-.035zm5.547.294l.481-.467c.257-.243.377-.416.377-.52a.13.13 0 00-.085-.12c-.052-.035-.121-.035-.189-.035v-.173h1.923v.173c-.223 0-.429.052-.653.138a2.735 2.735 0 00-.601.38l-.12.105c.172.225.309.398.395.536.12.173.241.38.344.571l.24.485c.137.276.223.432.24.45.121.172.241.259.378.259v.173h-2.146v-.173c.086 0 .154-.017.206-.07a.248.248 0 00.086-.19c0-.155-.086-.38-.241-.657-.12-.225-.275-.415-.412-.606l-.206.19v.589a3 3 0 00.034.52c.035.137.138.224.275.224v.173h-1.889v-.173c.241 0 .361-.173.361-.536V25.02c0-.363-.12-.536-.361-.536v-.173h1.889v.173c-.12 0-.223.052-.257.173a.94.94 0 00-.052.363v.606h-.017zm5.443-.484c.035-.087.052-.174.069-.225a.727.727 0 00.017-.19.247.247 0 00-.086-.191.362.362 0 00-.206-.052v-.173h1.34v.173c-.172 0-.309.104-.43.294-.051.07-.12.242-.223.537l-1.064 2.682c-.138.328-.275.57-.413.709a1.03 1.03 0 01-.755.294 1.12 1.12 0 01-.412-.07 1.71 1.71 0 01-.395-.207l.36-.865.138.052v.156c0 .086.034.173.12.242.086.07.172.104.258.104.171 0 .309-.087.429-.242a.92.92 0 00.154-.52c0-.12-.034-.276-.085-.432-.035-.07-.086-.208-.189-.415l-.859-1.765a4.249 4.249 0 00-.206-.38c-.103-.122-.223-.191-.361-.191v-.173h2.13v.173a.765.765 0 00-.224.034.183.183 0 00-.085.156c0 .035.017.087.034.156s.051.12.069.173l.498 1.246.377-1.09zm4.706 1.92c.085.121.154.19.188.225a.357.357 0 00.258.121v.173h-2.026v-.173a.32.32 0 00.137-.034.097.097 0 00.052-.087c0-.052-.018-.086-.035-.121-.017-.035-.051-.087-.086-.156l-.429-.675-.412.52c-.069.086-.12.138-.137.19a.418.418 0 00-.069.225c0 .034.017.069.034.104.035.034.086.052.155.052v.173h-1.271v-.173c.155-.035.309-.122.464-.26.051-.052.171-.19.343-.415l.635-.814-.601-.934c-.137-.19-.206-.311-.24-.346-.12-.121-.24-.19-.361-.19v-.173h2.061v.173c-.069.017-.12.017-.172.052-.051.017-.068.069-.068.12 0 .035.017.07.034.122.017.035.069.121.12.207l.189.312.103-.121c.069-.087.138-.173.189-.26a.552.552 0 00.12-.294c0-.052-.017-.086-.051-.104-.035-.017-.086-.017-.138-.017v-.173h1.237v.173a.917.917 0 00-.395.173 1.463 1.463 0 00-.292.329l-.532.675.996 1.401zm.961-2.059c0-.363-.12-.536-.361-.536v-.173h1.889v.173c-.12 0-.206.034-.24.12-.052.087-.069.226-.069.416v.312h.893v-.312c0-.19-.017-.329-.068-.415-.052-.087-.121-.121-.241-.121v-.173h1.889v.173c-.24 0-.361.173-.361.536v1.852c0 .363.121.536.361.536v.173h-1.889v-.173c.12 0 .206-.035.241-.121.051-.087.068-.225.068-.398v-1.125h-.893v1.125c0 .19.017.329.069.398.051.086.12.121.24.121v.173h-1.889v-.173c.241 0 .361-.173.361-.536v-1.852zm6.388.398v-.104a.55.55 0 00-.154-.398.52.52 0 00-.378-.173c-.189 0-.344.104-.447.312-.086.155-.12.346-.12.588l1.099-.225zm-1.047.623c.034.311.137.554.292.744.171.225.412.329.704.329.257 0 .48-.07.686-.208a1.26 1.26 0 00.464-.571l.137.052-.412 1.263a.235.235 0 01-.068-.052c-.052-.034-.086-.034-.138-.034l-.137.017-.412.052c-.138.017-.275.034-.412.034a3.45 3.45 0 01-.739-.086 1.953 1.953 0 01-.635-.294 1.629 1.629 0 01-.67-1.35c0-.536.206-.952.601-1.263.361-.294.824-.433 1.374-.433.464 0 .841.104 1.15.312.327.242.533.57.619 1.003l-2.404.485z"/></g><defs><clipPath id="clip0"><path fill="#fff" d="M0 0h128v29H0z"/></clipPath></defs></svg>