<svg width="14" height="14" viewBox="0 0 14 14" fill="none" xmlns="http://www.w3.org/2000/svg">
<path d="M1.43341 9.37L7.66649 3.13692C8.37265 2.43076 9.51758 2.43076 10.2237 3.13692C10.9299 3.84307 10.9299 4.988 10.2237 5.69416L4.78965 11.1282L4.47005 10.8084L9.90413 5.37456C10.4338 4.8449 10.4338 3.98618 9.90413 3.45652C9.37447 2.92686 8.51575 2.92686 7.98609 3.45652L1.75301 9.6896C0.870265 10.5723 0.870265 12.0035 1.75301 12.8863C2.63574 13.769 4.06693 13.769 4.94967 12.8863L11.9818 5.85419C13.2176 4.61837 13.2176 2.61472 11.9818 1.3789C10.7459 0.143079 8.74228 0.143079 7.50646 1.3789L2.0726 6.81298L1.75301 6.49338L7.18709 1.0593C8.59972 -0.352961 10.8898 -0.35265 12.302 1.05998C13.7143 2.4726 13.714 4.76266 12.3014 6.17492L5.26927 13.2059C4.21003 14.2651 2.49264 14.2651 1.43341 13.2059C0.374169 12.1466 0.374169 10.4292 1.43341 9.37Z" fill="#585858"/>
</svg>
