<svg width="142" height="23" viewBox="0 0 142 23" fill="none" xmlns="http://www.w3.org/2000/svg"><g clip-path="url(#clip0)" fill="#FF3D00"><path d="M2.174 4.702c0-1.195-.148-2.041-.394-2.44-.246-.398-.69-.647-1.28-.747v-.199h6.154v.249c-.59.05-.985.249-1.28.647-.246.349-.394 1.146-.394 2.291V7.69l2.216-1.793c1.181-.996 2.018-1.743 2.51-2.29.64-.648.936-1.146.936-1.444 0-.25-.05-.399-.148-.449-.098-.1-.295-.149-.541-.149v-.249h6.203v.249c-.886 0-1.723.249-2.61.797-.246.15-.984.697-2.215 1.743l-1.92 1.593c1.23 1.195 2.363 2.54 3.299 4.084.886 1.394 1.673 2.987 2.363 4.73l.492 1.195c.345.847.59 1.345.69 1.544.344.548.787.847 1.28.946v.25h-5.613v-.25c.59-.1.886-.448.886-.996 0-.647-.246-1.494-.69-2.639a23.304 23.304 0 00-1.23-2.49c-.492-.846-.985-1.643-1.575-2.39-.542-.747-1.182-1.494-1.92-2.29L4.93 9.382v5.677c0 .996.05 1.693.197 2.092.246.647.738 1.045 1.477 1.095v.25H.5v-.25c.738-.1 1.182-.498 1.428-1.046.147-.398.246-1.045.246-1.942V4.702z"/><path d="M25.953 8.636c.098-.348.246-.747.344-1.095.099-.399.197-.697.197-.897 0-.248-.049-.448-.197-.597-.147-.15-.393-.25-.738-.25V5.6h3.938v.249c-.492.05-.935.348-1.23.846-.148.25-.345.697-.591 1.494l-3.988 11.603c-.59 1.743-1.28 2.938-2.018 3.486-.64.498-1.428.747-2.413.747-.443 0-.886-.1-1.33-.25-.442-.149-.836-.398-1.23-.696l1.477-3.536.197.15c-.05.199-.098.398-.098.647 0 .548.147.996.393 1.394.296.398.64.598 1.133.598.738 0 1.329-.349 1.772-1.096a4.507 4.507 0 00.542-2.191c0-.548-.148-1.245-.394-1.992-.099-.299-.394-.946-.788-1.942l-3.003-6.972a9.922 9.922 0 00-.69-1.444c-.344-.498-.738-.747-1.18-.747V5.6h5.169v.249c-.296.05-.493.1-.64.249-.148.15-.197.299-.197.547 0 .2.049.449.147.698.099.298.197.498.246.647l3.003 7.17 2.167-6.523zm15.015 7.769c.246.348.542.747.788 1.095.345.399.739.648 1.083.698v.248h-5.317v-.248c.542-.05.788-.3.788-.648 0-.249-.148-.598-.394-1.046-.246-.348-.443-.647-.59-.846l-1.92-2.938-1.872 2.34c-1.033 1.345-1.526 2.191-1.526 2.54 0 .299.246.498.788.598v.248h-3.988v-.248c.296-.05.59-.2.837-.399.246-.2.64-.647 1.182-1.344l3.84-4.781L32.5 8.537c-.837-1.195-1.33-1.893-1.477-2.042-.444-.448-.837-.647-1.182-.647v-.25h5.514v.25c-.59.05-.837.299-.837.697 0 .2.099.498.295.797.148.249.296.547.591.896l.985 1.444 1.132-1.544c.345-.498.59-.796.64-.946.197-.348.296-.647.296-.846 0-.349-.247-.498-.788-.498v-.25h4.283v.25c-.59.05-1.23.398-1.87.996-.148.15-.64.747-1.428 1.743l-1.724 2.091 4.037 5.727zm12.752-5.428h-6.105v4.233c0 1.195.098 2.041.345 2.39.246.398.64.598 1.181.598v.248H43.48v-.248c.689 0 1.132-.3 1.329-.947.147-.398.197-1.095.197-2.041V8.786c0-1.195-.099-1.992-.345-2.39-.246-.399-.64-.598-1.181-.598v-.2h5.71v.25c-.689 0-1.132.299-1.329.946-.148.398-.197 1.046-.197 2.042V9.88h6.056V8.836c0-1.196-.099-1.992-.345-2.39-.246-.4-.64-.548-1.181-.548v-.3h5.71v.25c-.689 0-1.132.299-1.329.946-.148.398-.197 1.095-.197 2.042v6.423c0 1.196.099 1.992.345 2.39.246.4.64.598 1.181.598v.25h-5.71v-.25c.689 0 1.132-.299 1.329-.946.147-.398.197-1.095.197-2.042v-4.282zm15.557-2.241l-6.056 5.378v1.145c0 1.196.099 1.992.345 2.39.246.4.64.598 1.181.598v.25h-5.71v-.25c.689-.05 1.132-.398 1.329-.996.148-.398.197-1.045.197-1.942V8.786c0-.946-.05-1.594-.197-1.942-.246-.648-.69-.996-1.379-1.046v-.2h5.711v.25c-.69 0-1.132.299-1.33.946-.147.398-.196 1.095-.196 2.042v3.834l6.056-5.378c-.05-.299-.099-.498-.197-.647-.247-.449-.739-.747-1.379-.797v-.25h5.711v.25c-.69 0-1.132.299-1.33.946-.147.398-.196 1.095-.196 2.042v6.423c0 1.196.098 1.992.344 2.39.247.4.64.598 1.182.598v.25h-5.71v-.25c.688-.05 1.131-.398 1.328-.996.148-.398.197-1.045.197-1.942V8.736h.099zm20.53 9.91c-.148-.05-.296-.05-.493-.05h-.344l-3.102.15c-1.526 0-2.855-.15-3.988-.499-1.329-.398-2.51-.996-3.544-1.842a8.868 8.868 0 01-2.462-3.287 10.498 10.498 0 01-.837-4.133c0-1.195.197-2.29.64-3.386a7.457 7.457 0 011.92-2.69 7.805 7.805 0 012.905-1.543 13.188 13.188 0 013.495-.448l2.856.249.837.1c.246 0 .443-.05.64-.1.147-.1.295-.2.394-.448l1.181 4.93-.197.1c-.443-1.096-1.23-1.893-2.215-2.49a6.669 6.669 0 00-3.397-.897c-.886 0-1.723.15-2.363.398-.69.25-1.28.697-1.822 1.345-.541.647-.935 1.394-1.23 2.19a7.666 7.666 0 00-.444 2.54c0 2.341.69 4.333 2.117 5.976 1.477 1.743 3.348 2.59 5.613 2.59 1.28 0 2.412-.349 3.397-1.096.935-.697 1.723-1.693 2.313-2.988l.247.1-2.117 5.229zm12.652-9.91l-6.056 5.378v1.145c0 1.196.099 1.992.345 2.39.246.4.64.598 1.182.598v.25h-5.711v-.25c.689-.05 1.132-.398 1.329-.996.148-.398.197-1.045.197-1.942V8.786c0-.946-.05-1.594-.197-1.942-.246-.648-.69-.996-1.379-1.046v-.2h5.711v.25c-.689 0-1.132.299-1.329.946-.148.398-.197 1.095-.197 2.042v3.834l6.056-5.378c-.05-.299-.099-.498-.197-.647-.246-.449-.739-.747-1.379-.797v-.25h5.711v.25c-.689 0-1.132.299-1.329.946-.148.398-.197 1.095-.197 2.042v6.423c0 1.196.098 1.992.345 2.39.246.4.64.598 1.181.598v.25h-5.612v-.25c.689-.05 1.132-.398 1.329-.996.148-.398.197-1.045.197-1.942V8.736zm12.308 6.474c0 .995.049 1.643.197 1.991.246.648.738.947 1.477.947v.249h-5.957v-.25c.738 0 1.181-.348 1.428-.995.147-.399.246-1.096.246-1.992V6.794c-1.526 0-2.659.299-3.397.896-.64.498-1.231 1.444-1.773 2.789l-.246-.1 1.28-5.179c.099.15.246.25.394.25.148.05.345.05.64.05h8.862c.246 0 .443 0 .64-.05.148-.05.295-.15.394-.25l1.28 5.18-.246.099c-.493-1.345-1.084-2.241-1.773-2.789-.788-.597-1.92-.896-3.397-.896v8.416h-.049zm15.754-6.474l-6.055 5.378v1.145c0 1.196.098 1.992.344 2.39.247.4.641.598 1.182.598v.25h-5.711v-.25c.689-.05 1.132-.398 1.329-.996.148-.398.197-1.045.197-1.942V8.786c0-.946-.049-1.594-.197-1.942-.246-.648-.689-.996-1.378-1.046v-.2h5.711v.25c-.689 0-1.133.299-1.329.946-.148.398-.197 1.095-.197 2.042v3.834l6.055-5.378c-.049-.299-.098-.498-.197-.647-.246-.449-.689-.747-1.378-.797v-.25h5.711v.25c-.69 0-1.133.299-1.33.946-.147.398-.197 1.095-.197 2.042v6.423c0 1.196.099 1.992.345 2.39.246.4.64.598 1.182.598v.25h-5.613v-.25c.689-.05 1.133-.398 1.329-.996.148-.398.197-1.045.197-1.942V8.736zm8.616-1.494c-1.084 0-2.019-.896-2.019-1.992 0-1.145.935-1.992 2.019-1.992 1.083 0 1.969.897 1.969 1.992 0 1.096-.886 1.992-1.969 1.992zm0 .399c1.329 0 2.363-1.046 2.363-2.39 0-1.345-1.034-2.391-2.363-2.391-1.33 0-2.364 1.046-2.364 2.39 0 1.345 1.034 2.39 2.364 2.39zm.344-2.291c.443 0 .788-.2.788-.697 0-.548-.443-.697-.935-.697h-1.133v2.589h.345V5.35h.443l.788 1.195h.443l-.739-1.195zm-.886-.399v-.647h.689c.296 0 .64.05.64.299 0 .398-.541.348-.886.348h-.443z"/></g><defs><clipPath id="clip0"><path fill="#fff" transform="translate(.5)" d="M0 0h141v23H0z"/></clipPath></defs></svg>