<svg width="173" height="74" viewBox="0 0 173 74" fill="none" xmlns="http://www.w3.org/2000/svg"><path d="M42.5 52H.5V.5H172V52H76.258l-.15.19L59.5 73.194 42.892 52.19l-.15-.19H42.5z" fill="#fff" stroke="#EBEBEB"/><g clip-path="url(#clip0)" fill="#FF3D00"><path d="M17.674 18.202c0-1.195-.148-2.041-.394-2.44-.246-.398-.69-.647-1.28-.747v-.199h6.154v.25c-.59.049-.985.248-1.28.646-.246.35-.394 1.146-.394 2.291v3.187l2.215-1.793c1.182-.995 2.019-1.742 2.511-2.29.64-.648.936-1.146.936-1.444 0-.25-.05-.399-.148-.449-.098-.1-.295-.149-.541-.149v-.249h6.203v.25c-.886 0-1.723.248-2.61.796-.246.15-.984.697-2.215 1.743l-1.92 1.593c1.23 1.195 2.363 2.54 3.298 4.084.887 1.394 1.674 2.988 2.364 4.73l.492 1.196c.345.846.59 1.344.69 1.543.344.548.787.847 1.28.946v.25h-5.613v-.25c.59-.1.886-.448.886-.995 0-.648-.246-1.494-.69-2.64a23.304 23.304 0 00-1.23-2.49c-.492-.846-.985-1.643-1.576-2.39-.541-.747-1.181-1.494-1.92-2.29l-2.461 1.991v5.677c0 .996.05 1.693.197 2.092.246.647.738 1.045 1.477 1.095v.25H16v-.25c.738-.1 1.182-.498 1.428-1.046.147-.398.246-1.045.246-1.942V18.202z"/><path d="M41.453 22.137c.098-.35.246-.747.344-1.096.099-.398.197-.697.197-.896 0-.25-.049-.449-.197-.598-.147-.15-.393-.249-.738-.249v-.2h3.938v.25c-.492.05-.935.348-1.23.846-.148.25-.345.698-.591 1.494l-3.988 11.603c-.59 1.743-1.28 2.938-2.018 3.486-.64.498-1.428.747-2.413.747-.443 0-.886-.1-1.33-.25-.442-.148-.836-.398-1.23-.696l1.477-3.536.197.15c-.05.199-.098.398-.098.647 0 .548.147.996.393 1.394.296.399.64.598 1.133.598.738 0 1.329-.349 1.772-1.096a4.507 4.507 0 00.542-2.19c0-.549-.148-1.246-.394-1.993-.099-.299-.394-.946-.788-1.942l-3.003-6.971a9.926 9.926 0 00-.69-1.445c-.344-.498-.738-.746-1.18-.746v-.35h5.169v.25c-.296.05-.493.1-.64.249-.148.15-.198.299-.198.548 0 .199.05.448.148.697.099.299.197.498.246.647l3.003 7.171 2.167-6.523zm15.016 7.768c.246.348.541.747.787 1.095.345.399.739.648 1.083.698v.249h-5.317v-.25c.542-.05.788-.298.788-.647 0-.249-.148-.597-.394-1.046-.246-.348-.443-.647-.59-.846l-1.92-2.938-1.871 2.34c-1.034 1.345-1.527 2.191-1.527 2.54 0 .299.247.498.788.598v.249h-3.988v-.25c.296-.05.591-.199.837-.398s.64-.647 1.182-1.344l3.84-4.78L48 22.036c-.837-1.195-1.33-1.892-1.477-2.042-.443-.448-.837-.647-1.182-.647v-.25h5.514v.25c-.59.05-.837.299-.837.697 0 .2.099.498.296.797.147.249.295.548.59.896l.985 1.444 1.132-1.543c.345-.498.591-.797.64-.947.197-.348.296-.647.296-.846 0-.349-.246-.498-.788-.498v-.25h4.283v.25c-.59.05-1.23.398-1.87.996-.148.15-.64.747-1.428 1.743l-1.723 2.091 4.037 5.727zm12.751-5.428h-6.105v4.233c0 1.195.098 2.041.345 2.39.246.398.64.598 1.181.598v.249H58.98v-.25c.69 0 1.133-.298 1.33-.945.147-.399.197-1.096.197-2.042v-6.424c0-1.195-.099-1.992-.345-2.39-.246-.399-.64-.598-1.181-.598v-.2h5.71v.25c-.689 0-1.132.299-1.329.946-.148.398-.197 1.046-.197 2.042v1.045h6.056v-1.045c0-1.195-.099-1.992-.345-2.39-.246-.399-.64-.548-1.181-.548v-.3h5.71v.25c-.689 0-1.132.299-1.329.946-.148.398-.197 1.096-.197 2.042v6.424c0 1.195.099 1.991.345 2.39.246.398.64.597 1.181.597v.25h-5.71v-.25c.689 0 1.132-.298 1.329-.946.148-.398.197-1.095.197-2.041v-4.283zm15.557-2.241l-6.055 5.378v1.146c0 1.195.098 1.991.344 2.39.246.398.64.597 1.182.597v.25h-5.711v-.25c.689-.05 1.132-.398 1.329-.995.148-.399.197-1.046.197-1.943v-6.523c0-.946-.05-1.594-.197-1.942-.246-.648-.69-.996-1.379-1.046v-.2h5.711v.25c-.689 0-1.132.299-1.329.946-.147.398-.197 1.096-.197 2.042v3.834l6.056-5.378c-.05-.299-.099-.498-.197-.647-.246-.449-.739-.747-1.379-.797v-.25h5.711v.25c-.689 0-1.132.299-1.329.946-.148.398-.197 1.096-.197 2.042v6.424c0 1.195.099 1.991.345 2.39.246.398.64.597 1.181.597v.25h-5.71v-.25c.689-.05 1.132-.398 1.329-.995.147-.399.197-1.046.197-1.943v-6.573h.098zm20.53 9.91c-.148-.05-.296-.05-.493-.05h-.344l-3.102.15c-1.526 0-2.855-.15-3.988-.499-1.329-.398-2.51-.995-3.544-1.842a8.867 8.867 0 01-2.462-3.287 10.498 10.498 0 01-.837-4.133c0-1.195.197-2.29.64-3.386a7.457 7.457 0 011.92-2.69 7.806 7.806 0 012.905-1.543 13.187 13.187 0 013.495-.448l2.856.249.837.1c.246 0 .443-.05.64-.1.147-.1.295-.2.394-.448l1.181 4.93-.197.1c-.443-1.096-1.231-1.893-2.215-2.49a6.668 6.668 0 00-3.397-.897c-.886 0-1.723.15-2.363.398-.69.25-1.28.698-1.822 1.345-.541.647-.935 1.394-1.23 2.191a7.667 7.667 0 00-.444 2.54c0 2.34.69 4.332 2.117 5.975 1.477 1.743 3.348 2.59 5.613 2.59 1.28 0 2.412-.349 3.397-1.096.935-.697 1.723-1.693 2.313-2.988l.247.1-2.117 5.229zm12.652-9.91l-6.055 5.378v1.146c0 1.195.098 1.991.344 2.39.246.398.64.597 1.182.597v.25h-5.711v-.25c.689-.05 1.132-.398 1.329-.995.148-.399.197-1.046.197-1.943v-6.523c0-.946-.049-1.594-.197-1.942-.246-.648-.689-.996-1.378-1.046v-.2h5.711v.25c-.69 0-1.133.299-1.33.946-.147.398-.197 1.096-.197 2.042v3.834l6.056-5.378c-.049-.299-.099-.498-.197-.647-.246-.449-.738-.747-1.379-.797v-.25h5.711v.25c-.689 0-1.132.299-1.329.946-.148.398-.197 1.096-.197 2.042v6.424c0 1.195.099 1.991.345 2.39.246.398.64.597 1.181.597v.25h-5.612v-.25c.689-.05 1.132-.398 1.329-.995.148-.399.197-1.046.197-1.943v-6.573zm12.308 6.474c0 .996.049 1.643.197 1.992.246.647.738.946 1.477.946v.249h-5.957v-.25c.738 0 1.181-.348 1.428-.995.147-.399.246-1.096.246-1.992v-8.366c-1.526 0-2.659.299-3.397.896-.64.498-1.231 1.444-1.773 2.789l-.246-.1 1.28-5.179c.099.15.246.25.394.25.148.05.345.05.64.05h8.862c.246 0 .443 0 .64-.05.148-.05.295-.15.394-.25l1.28 5.18-.246.099c-.493-1.345-1.084-2.24-1.773-2.789-.788-.597-1.92-.896-3.397-.896v8.416h-.049zm15.754-6.474l-6.055 5.378v1.146c0 1.195.098 1.991.344 2.39.247.398.641.597 1.182.597v.25h-5.711v-.25c.689-.05 1.132-.398 1.329-.995.148-.399.197-1.046.197-1.943v-6.523c0-.946-.049-1.594-.197-1.942-.246-.648-.689-.996-1.378-1.046v-.2h5.711v.25c-.689 0-1.133.299-1.329.946-.148.398-.197 1.096-.197 2.042v3.834l6.055-5.378c-.049-.299-.098-.498-.197-.647-.246-.449-.689-.747-1.378-.797v-.25h5.711v.25c-.69 0-1.133.299-1.33.946-.147.398-.197 1.096-.197 2.042v6.424c0 1.195.099 1.991.345 2.39.246.398.64.597 1.182.597v.25h-5.613v-.25c.689-.05 1.133-.398 1.329-.995.148-.399.197-1.046.197-1.943v-6.573zm8.616-1.494c-1.083 0-2.019-.896-2.019-1.992 0-1.145.936-1.991 2.019-1.991 1.083 0 1.969.896 1.969 1.991 0 1.096-.886 1.992-1.969 1.992zm0 .399c1.329 0 2.363-1.046 2.363-2.39 0-1.345-1.034-2.39-2.363-2.39s-2.363 1.045-2.363 2.39c0 1.344 1.034 2.39 2.363 2.39zm.344-2.291c.444 0 .788-.2.788-.697 0-.548-.443-.697-.935-.697h-1.133v2.59h.345V18.85h.443l.788 1.195h.443l-.739-1.195zm-.886-.398v-.648h.69c.295 0 .64.05.64.299 0 .398-.542.349-.887.349h-.443z"/></g><defs><clipPath id="clip0"><path fill="#fff" transform="translate(16 13.5)" d="M0 0h141v23H0z"/></clipPath></defs></svg>