<svg width="17" height="17" viewBox="0 0 17 17" fill="none" xmlns="http://www.w3.org/2000/svg"><g clip-path="url(#clip0)" fill="#656565"><path d="M4.252 14.242c-.02.975-.135 2.09.713 2.36.833.27 1.316-.4 2.4-1.758 4.048.277 7.62-.861 8.098-4.94.429-3.628-.125-6.341-1.549-7.632C11.825.27 5.026-.01 2.537 2.369 1.512 3.435 1.013 4.999.967 7.292c-.039 1.872-.116 5.7 3.285 6.95zm-2.287-6.93c.041-2.026.452-3.377 1.277-4.236 2.078-1.985 8.236-1.756 9.99-.072 1.172 1.06 1.624 3.533 1.24 6.783-.349 2.98-2.268 3.489-2.99 3.68-1.497.395-2.923.48-4.291.362-.36-.039-.502.302-.633.426-.652.784-1.122 1.35-1.244 1.426-.09-.134-.076-.767-.066-1.276-.032-.229.173-.862-.362-1.005-3.026-.894-2.958-4.272-2.92-6.088z"/><path d="M3.875 5.987c.533 1.063 1.053 2.942 3.05 4.577.694.572 2.768 1.89 3.58 1.89 1.161 0 2.487-1.826 1.516-2.64-.437-.427-1.051-.847-1.445-1.078h-.002c-1.023-.593-1.584.497-1.65.54-1.5 1.342-3.347-.99-2.053-2.118.16-.198 1.11-.656.546-1.697-.5-.904-.83-1.215-1.016-1.473-.983-1.227-3.111.812-2.526 1.999zm6.109 3.577c.068.043.66.302 1.366.99.09.075-.51.946-.89.896-.076-.034-.62-.164-1.789-.878 1.11-.377 1.1-.968 1.313-1.008zM5.545 4.62c.041-.022.063-.023.06-.028.192.267.479.521.936 1.347.12.225-.178.312-.371.51a2.199 2.199 0 00-.601.853c-.409-.771-.592-1.327-.778-1.716-.075-.354.437-.785.754-.966z"/><path d="M8.57 6.366c.007 0 .731.093.861.873.11.662 1.093.484.985-.164-.202-1.21-1.221-1.642-1.733-1.7-.656-.075-.769.915-.113.991z"/><path d="M8.05 4.213c.011 0 1.583-.028 2.606 1.067 1.011 1.08.788 2.653.786 2.667-.102.648.883.82.986.155.014-.083.307-2.061-1.042-3.505C10.047 3.164 8.1 3.21 8.02 3.214c-.682.023-.6 1.05.03.999z"/></g><defs><clipPath id="clip0"><path fill="#fff" transform="translate(.039 .673)" d="M0 0h15.981v15.981H0z"/></clipPath></defs></svg>