<svg width="17" height="17" viewBox="0 0 17 17" fill="none" xmlns="http://www.w3.org/2000/svg"><g clip-path="url(#clip0)" fill="#656565"><path d="M14.279 2.994A7.92 7.92 0 008.655.674a7.96 7.96 0 00-5.632 2.318 7.84 7.84 0 00-2.35 5.597v.004a7.88 7.88 0 00.972 3.74l-.95 4.32 4.37-.993a7.999 7.999 0 003.587.852h.003c2.12 0 4.12-.824 5.632-2.319a7.83 7.83 0 002.351-5.597c0-2.096-.837-4.086-2.36-5.602zm-5.624 12.27h-.003a6.741 6.741 0 01-3.204-.811l-.207-.113-2.906.661.631-2.868-.121-.21C2.24 10.88 1.92 9.728 1.92 8.592 1.922 4.915 4.943 1.92 8.655 1.92a6.684 6.684 0 014.744 1.957c1.285 1.281 1.992 2.956 1.992 4.718-.002 3.678-3.023 6.67-6.736 6.67z"/><path d="M6.483 5.101h-.35a.672.672 0 00-.487.228c-.167.182-.639.622-.639 1.517 0 .896.655 1.761.746 1.883.091.121 1.263 2.017 3.119 2.747 1.542.606 1.856.485 2.191.455.335-.03 1.08-.44 1.232-.865.153-.425.153-.79.107-.866-.046-.075-.167-.12-.35-.212-.183-.09-1.077-.539-1.245-.6-.167-.06-.289-.09-.41.092-.123.182-.481.603-.588.724-.106.122-.213.137-.395.046-.183-.091-.765-.287-1.463-.907-.543-.482-.92-1.098-1.026-1.28-.106-.182-.011-.28.08-.371.082-.082.193-.193.285-.3.09-.105.117-.181.178-.303.06-.121.03-.227-.016-.318-.045-.092-.396-.991-.558-1.351-.137-.303-.28-.314-.41-.319z"/></g><defs><clipPath id="clip0"><path fill="#fff" transform="translate(.673 .673)" d="M0 0h15.981v15.981H0z"/></clipPath></defs></svg>