<svg width="128" height="29" viewBox="0 0 128 29" fill="none" xmlns="http://www.w3.org/2000/svg">
<g clip-path="url(#clip0)">
<path d="M1.51113 3.47793C1.51113 2.38784 1.39093 1.66111 1.1677 1.29774C0.927287 0.934376 0.549504 0.709436 0 0.62292V0.415283H5.56372V0.62292C5.04856 0.67483 4.67078 0.865164 4.43037 1.21123C4.18996 1.55729 4.05259 2.24941 4.05259 3.3222V6.17721L6.06171 4.56803C7.12637 3.68557 7.88194 2.99344 8.32841 2.50896C8.87792 1.92065 9.16984 1.47077 9.16984 1.19392C9.16984 0.986285 9.11833 0.847861 9.01529 0.778648C8.91226 0.709436 8.75771 0.657527 8.53448 0.62292V0.415283H14.1325V0.62292C13.3426 0.62292 12.5527 0.865164 11.78 1.34965C11.5739 1.47077 10.9214 1.98986 9.78803 2.92423L8.05366 4.37769C9.18701 5.43318 10.183 6.6617 11.0416 8.04595C11.8487 9.30907 12.5699 10.7279 13.1881 12.3025L13.6346 13.3753C13.9437 14.1366 14.1497 14.6038 14.2356 14.7596C14.5447 15.2613 14.9396 15.5382 15.4033 15.6074V15.815H10.286V15.6074C10.8355 15.5209 11.0931 15.2267 11.0931 14.6903C11.0931 14.1193 10.887 13.3234 10.4921 12.3198C10.2002 11.6104 9.82238 10.8664 9.39308 10.0877C8.94661 9.30907 8.48296 8.59965 7.98497 7.94213C7.48699 7.28461 6.92031 6.59249 6.26778 5.86576L4.06976 7.64798V12.7524C4.06976 13.6522 4.13845 14.2751 4.25865 14.6211C4.48189 15.2094 4.91119 15.5382 5.5809 15.6074V15.815H0V15.6074C0.652536 15.5036 1.08184 15.1748 1.30507 14.6557C1.44245 14.3097 1.51113 13.7387 1.51113 12.9254V3.47793Z" fill="#FF3D00"/>
<path d="M23.0448 7.05951C23.1478 6.73075 23.268 6.40199 23.3711 6.05593C23.4741 5.70987 23.5256 5.45032 23.5256 5.25999C23.5256 5.03505 23.4569 4.86202 23.3367 4.7409C23.2165 4.61977 22.9933 4.53326 22.6842 4.49865V4.29102H26.2216V4.49865C25.758 4.56787 25.3802 4.81011 25.1054 5.27729C24.9852 5.48493 24.7963 5.91751 24.5731 6.60963L20.9841 17.0261C20.4518 18.6007 19.8336 19.6389 19.1811 20.158C18.6144 20.6078 17.876 20.8328 17.0002 20.8328C16.5881 20.8328 16.176 20.7636 15.7982 20.6251C15.4204 20.4867 15.0426 20.2791 14.7164 19.9849L16.0386 16.8185L16.2275 16.9396C16.176 17.1299 16.1588 17.3203 16.1588 17.4933C16.1588 17.9778 16.279 18.393 16.5366 18.7391C16.777 19.0852 17.1205 19.2582 17.5498 19.2582C18.2366 19.2582 18.769 18.9294 19.1467 18.2546C19.473 17.7009 19.6276 17.0261 19.6276 16.2648C19.6276 15.763 19.5074 15.1574 19.2498 14.4652C19.1639 14.2057 18.9235 13.6174 18.5286 12.7176L15.8326 6.48851C15.5578 5.83099 15.3517 5.39841 15.2144 5.20808C14.9053 4.7582 14.5618 4.53326 14.1669 4.53326V4.32562H18.8205V4.53326C18.5629 4.56787 18.374 4.63708 18.2538 4.7582C18.1336 4.87932 18.0821 5.03505 18.0821 5.24269C18.0821 5.41572 18.1336 5.62335 18.2366 5.8829C18.3397 6.14245 18.4084 6.33278 18.4599 6.47121L21.07 12.9253L23.0448 7.05951Z" fill="#FF3D00"/>
<path d="M36.6622 13.9808C36.9026 14.3095 37.1259 14.6383 37.3835 14.967C37.7097 15.3477 38.036 15.5553 38.3794 15.5899V15.7976H33.5885V15.5899C34.0693 15.5207 34.3097 15.3477 34.3097 15.0362C34.3097 14.8113 34.1895 14.4825 33.9319 14.0846C33.6915 13.7558 33.5369 13.5136 33.4167 13.3405L31.6824 10.7105L29.9995 12.8041C29.0722 13.9808 28.6086 14.7421 28.6086 15.0882C28.6086 15.365 28.849 15.538 29.2955 15.6072V15.8149H25.7237V15.6072C25.9984 15.538 26.256 15.4342 26.4793 15.2612C26.7025 15.0882 27.0631 14.6902 27.5268 14.0673L30.9955 9.7761L29.0551 6.95569C28.3167 5.8656 27.8702 5.25999 27.7328 5.10426C27.3379 4.72359 26.9944 4.51596 26.6682 4.51596V4.30832H31.648V4.51596C31.1329 4.56787 30.8753 4.7582 30.8753 5.12156C30.8753 5.3119 30.9611 5.55414 31.1157 5.84829C31.2359 6.07323 31.4076 6.33278 31.6309 6.64424L32.5066 7.94197L33.5369 6.55772C33.8632 6.10784 34.0693 5.83099 34.1208 5.70987C34.2925 5.39841 34.3955 5.13887 34.3955 4.94853C34.3955 4.65438 34.1723 4.49865 33.7087 4.49865V4.29102H37.6067V4.49865C37.0572 4.55056 36.5077 4.84471 35.941 5.41572C35.8036 5.55414 35.3743 6.07324 34.6359 6.95569L33.0905 8.82443L36.6622 13.9808Z" fill="#FF3D00"/>
<path d="M48.2361 9.13616H42.7582V12.9255C42.7582 14.0156 42.8613 14.7424 43.0845 15.0884C43.3077 15.4345 43.6512 15.6075 44.1492 15.6075V15.8152H38.9976V15.6075C39.5986 15.6075 40.0107 15.3307 40.1996 14.7597C40.3198 14.3963 40.3885 13.7907 40.3885 12.9428V7.18091C40.3885 6.09081 40.2855 5.38139 40.0622 5.03532C39.839 4.68926 39.4955 4.51623 38.9976 4.51623V4.30859H44.1492V4.51623C43.5481 4.51623 43.136 4.79308 42.9471 5.34678C42.8269 5.71015 42.7582 6.29845 42.7582 7.16361V8.09797H48.2361V7.16361C48.2361 6.09081 48.1331 5.36408 47.9098 5.03532C47.6866 4.68926 47.3431 4.53353 46.8452 4.53353V4.3259H51.9967V4.53353C51.3957 4.53353 50.9836 4.81038 50.7947 5.38139C50.6745 5.74475 50.6058 6.35036 50.6058 7.19821V12.9601C50.6058 14.0502 50.7089 14.7597 50.9321 15.1057C51.1553 15.4518 51.4988 15.6248 51.9967 15.6248V15.8325H46.8452V15.6248C47.4462 15.6248 47.8411 15.348 48.0472 14.777C48.1674 14.4136 48.2361 13.808 48.2361 12.9428V9.13616Z" fill="#FF3D00"/>
<path d="M62.3858 7.11142L56.9079 11.9217V12.9426C56.9079 14.0327 57.011 14.7421 57.2342 15.0882C57.4574 15.4342 57.8009 15.6072 58.2989 15.6072V15.8149H53.1473V15.6072C53.7483 15.5553 54.1433 15.2612 54.3493 14.6902C54.4695 14.3441 54.5382 13.7731 54.5382 12.9426V7.18063C54.5382 6.33278 54.4867 5.76178 54.3837 5.45032C54.1776 4.87932 53.7655 4.56787 53.1473 4.51596V4.30832H58.2989V4.51596C57.6979 4.51596 57.2857 4.79281 57.0968 5.36381C56.9766 5.72717 56.9079 6.33278 56.9079 7.18063V10.6066L62.3858 5.79639C62.3515 5.53684 62.2999 5.3292 62.2313 5.20808C61.9908 4.79281 61.5959 4.55056 60.9949 4.49865V4.29102H66.1465V4.49865C65.5455 4.49865 65.1333 4.7755 64.9444 5.3465C64.8242 5.70987 64.7555 6.31548 64.7555 7.16333V12.9253C64.7555 14.0154 64.8586 14.7248 65.0818 15.0708C65.305 15.4169 65.6485 15.5899 66.1465 15.5899V15.7976H60.9949V15.5899C61.5959 15.538 61.9909 15.2439 62.1969 14.6729C62.3171 14.3268 62.3858 13.7558 62.3858 12.9253V7.11142Z" fill="#FF3D00"/>
<path d="M80.9831 16.0227C80.8628 15.9881 80.7083 15.9708 80.5194 15.9708H80.2103L77.4113 16.1092C76.0547 16.1092 74.8527 15.9535 73.8223 15.6593C72.6203 15.3132 71.5556 14.7768 70.6455 14.0155C69.6495 13.2023 68.9111 12.216 68.4132 11.074C67.9152 9.93198 67.6576 8.70346 67.6576 7.38842C67.6576 6.33294 67.8465 5.32936 68.2414 4.37768C68.6192 3.42601 69.2031 2.63007 69.9758 1.98986C70.7485 1.34964 71.6071 0.899761 72.6031 0.622912C73.5991 0.346062 74.6294 0.207637 75.7456 0.207637L78.3042 0.415274L79.0426 0.484487C79.2658 0.484487 79.4547 0.449881 79.5921 0.380668C79.7295 0.311456 79.8497 0.190334 79.9356 0L81.0002 4.39499L80.8113 4.4642C80.3992 3.49523 79.7295 2.75119 78.8022 2.2148C77.8749 1.6784 76.8618 1.41885 75.7456 1.41885C74.9213 1.41885 74.2173 1.53998 73.5991 1.76492C72.9809 1.98986 72.4314 2.40513 71.9506 2.97613C71.4698 3.54714 71.092 4.20465 70.8344 4.94869C70.5768 5.69272 70.4566 6.45406 70.4566 7.2327C70.4566 9.32637 71.092 11.1086 72.3627 12.5794C73.685 14.1366 75.385 14.898 77.4456 14.898C78.6133 14.898 79.6436 14.5692 80.5022 13.929C81.3608 13.2888 82.0477 12.4063 82.58 11.2643L82.8204 11.3508L80.9831 16.0227Z" fill="#FF3D00"/>
<path d="M92.5398 7.11142L87.0619 11.9217V12.9426C87.0619 14.0327 87.165 14.7421 87.3882 15.0882C87.6114 15.4342 87.9549 15.6072 88.4529 15.6072V15.8149H83.3013V15.6072C83.9023 15.5553 84.3144 15.2612 84.5033 14.6902C84.6235 14.3441 84.6922 13.7731 84.6922 12.9426V7.18063C84.6922 6.33278 84.6407 5.76178 84.5376 5.45032C84.3316 4.87932 83.9195 4.56787 83.3013 4.51596V4.30832H88.4529V4.51596C87.8518 4.51596 87.4397 4.79281 87.2508 5.36381C87.1306 5.72717 87.0619 6.33278 87.0619 7.18063V10.6066L92.5398 5.79639C92.5055 5.53684 92.4539 5.3292 92.3852 5.20808C92.1448 4.79281 91.7499 4.55056 91.1489 4.49865V4.29102H96.3005V4.49865C95.6994 4.49865 95.2873 4.7755 95.0984 5.3465C94.9782 5.70987 94.9095 6.31548 94.9095 7.16333V12.9253C94.9095 14.0154 95.0126 14.7248 95.2358 15.0708C95.459 15.4169 95.8025 15.5899 96.3005 15.5899V15.7976H91.1489V15.5899C91.7499 15.538 92.1448 15.2439 92.3509 14.6729C92.4711 14.3268 92.5398 13.7558 92.5398 12.9253V7.11142Z" fill="#FF3D00"/>
<path d="M103.736 12.96C103.736 13.8251 103.805 14.4134 103.925 14.7422C104.148 15.3132 104.577 15.6073 105.247 15.6073V15.815H99.8895V15.6073C100.542 15.6073 100.971 15.3132 101.177 14.7249C101.315 14.3615 101.383 13.7732 101.383 12.96V5.43311C100.027 5.43311 99.0137 5.69265 98.3268 6.22905C97.743 6.67893 97.2106 7.50948 96.7298 8.738L96.5237 8.66879L97.6571 4.06616C97.743 4.18728 97.8632 4.2738 98.0005 4.30841C98.1379 4.34301 98.3268 4.36032 98.5844 4.36032H99.0309H106.106H106.552C106.775 4.36032 106.964 4.34301 107.119 4.30841C107.273 4.2738 107.394 4.18728 107.479 4.06616L108.613 8.66879L108.407 8.738C107.943 7.54409 107.411 6.71354 106.81 6.26366C106.123 5.72726 105.093 5.45041 103.753 5.45041V12.96H103.736Z" fill="#FF3D00"/>
<path d="M118.023 7.11142L112.545 11.9217V12.9426C112.545 14.0327 112.648 14.7421 112.871 15.0882C113.095 15.4342 113.438 15.6072 113.936 15.6072V15.8149H108.785V15.6072C109.386 15.5553 109.798 15.2612 109.987 14.6902C110.107 14.3441 110.175 13.7731 110.175 12.9426V7.18063C110.175 6.33278 110.124 5.76178 110.021 5.45032C109.815 4.87932 109.403 4.56787 108.785 4.51596V4.30832H113.936V4.51596C113.335 4.51596 112.923 4.79281 112.734 5.36381C112.614 5.72717 112.545 6.33278 112.545 7.18063V10.6066L118.023 5.79639C117.989 5.53684 117.937 5.3292 117.869 5.20808C117.628 4.79281 117.233 4.55056 116.632 4.49865V4.29102H121.784V4.49865C121.183 4.49865 120.771 4.7755 120.582 5.3465C120.461 5.70987 120.393 6.31548 120.393 7.16333V12.9253C120.393 14.0154 120.496 14.7248 120.719 15.0708C120.942 15.4169 121.286 15.5899 121.784 15.5899V15.7976H116.632V15.5899C117.233 15.538 117.628 15.2439 117.834 14.6729C117.954 14.3268 118.023 13.7558 118.023 12.9253V7.11142Z" fill="#FF3D00"/>
<path d="M125.39 3.68554V3.07993H126.008C126.248 3.07993 126.575 3.11453 126.575 3.35678C126.575 3.73745 126.06 3.66823 125.785 3.66823H125.39V3.68554ZM126.163 4.0316C126.575 4.0143 126.901 3.84126 126.901 3.39138C126.901 2.88959 126.489 2.76847 126.06 2.76847H125.046V5.12169H125.373V4.0316H125.768L126.455 5.12169H126.85L126.163 4.0316ZM125.854 6.09067C127.056 6.09067 127.983 5.139 127.983 3.92778C127.983 2.71656 127.038 1.76489 125.854 1.76489C124.651 1.76489 123.707 2.71656 123.707 3.92778C123.707 5.139 124.651 6.09067 125.854 6.09067ZM125.854 5.76191C124.875 5.76191 124.033 4.94866 124.033 3.94508C124.033 2.9242 124.875 2.12826 125.854 2.12826C126.832 2.12826 127.657 2.9242 127.657 3.94508C127.674 4.94866 126.832 5.76191 125.854 5.76191Z" fill="#FF3D00"/>
<path d="M4.12121 27.7197C4.08687 27.6677 4.06969 27.6504 4.01818 27.6331C3.98384 27.6158 3.93232 27.6158 3.8808 27.6158H3.81212L2.86766 27.6677C2.09492 27.6677 1.44238 27.4774 0.944394 27.0794C0.377718 26.6469 0.102966 26.0413 0.102966 25.2799C0.102966 24.5878 0.343374 24.0514 0.807018 23.6534C1.25349 23.2728 1.82016 23.0824 2.50704 23.0824C2.66159 23.0824 2.81614 23.0997 2.97069 23.117C3.12524 23.1343 3.27978 23.1689 3.4515 23.1862C3.48585 23.2035 3.52019 23.2035 3.55454 23.2035C3.58888 23.2035 3.6404 23.2035 3.69191 23.2035C3.84646 23.2035 3.94949 23.1516 4.01818 23.0305L4.39596 24.9166L4.25859 24.9512C4.13838 24.5878 3.94949 24.2763 3.70908 24.0514C3.43433 23.7746 3.12524 23.6534 2.76462 23.6534C2.36967 23.6534 2.06057 23.8092 1.83734 24.1206C1.64845 24.3975 1.54541 24.7435 1.54541 25.1588C1.54541 25.401 1.57976 25.626 1.64845 25.8509C1.71713 26.0759 1.82016 26.2835 1.95754 26.4738C2.09492 26.6642 2.28381 26.8199 2.50704 26.941C2.73028 27.0621 2.97069 27.114 3.2111 27.114C3.50302 27.114 3.77777 27.0275 4.00101 26.8718C4.24142 26.7161 4.39596 26.4911 4.51617 26.2143L4.67071 26.2662L4.12121 27.7197Z" fill="#FF3D00"/>
<path d="M7.0576 26.716C7.0576 26.9236 7.05761 27.062 7.07478 27.1139C7.10912 27.3043 7.21215 27.4081 7.38387 27.4081V27.5811H5.47778V27.4081C5.59799 27.4081 5.68385 27.3735 5.73536 27.287C5.78688 27.2004 5.82122 27.0101 5.82122 26.716V24.7261C5.56364 24.7261 5.32323 24.8126 5.13434 24.9683C4.94545 25.1414 4.80807 25.3663 4.72221 25.6605L4.58484 25.6259L4.91111 24.1897C4.94545 24.2416 4.97979 24.2589 5.03131 24.2762C5.08283 24.2935 5.15151 24.2935 5.23737 24.2935H5.32323H5.40909H7.38387H7.55559C7.65862 24.2935 7.74448 24.2935 7.81317 24.2762C7.88186 24.2589 7.93338 24.2243 7.96772 24.1897L8.27682 25.6259L8.13944 25.6605C8.01924 25.349 7.88186 25.1241 7.72731 24.9683C7.55559 24.7953 7.31518 24.7088 7.0576 24.7088V26.716Z" fill="#FF3D00"/>
<path d="M8.70613 25.0031C8.70613 24.6398 8.58593 24.4667 8.34552 24.4667V24.2937H10.2516V24.4667C10.0284 24.4667 9.92534 24.6398 9.92534 25.0031V25.8337L10.8183 25.0031C10.8183 24.8128 10.8011 24.6744 10.7496 24.5879C10.6981 24.5013 10.6294 24.4667 10.5092 24.4667V24.2937H12.3981V24.4667C12.1577 24.4667 12.0375 24.6398 12.0375 25.0031V26.8546C12.0375 27.2179 12.1577 27.391 12.3981 27.391V27.564H10.5092V27.391C10.6294 27.391 10.7153 27.3563 10.7496 27.2698C10.8011 27.1833 10.8183 27.0449 10.8183 26.8719V25.5741L9.92534 26.4047V26.8892C9.92534 27.2525 10.0284 27.4256 10.2516 27.4256V27.5986H8.36269V27.4256C8.6031 27.4256 8.7233 27.2525 8.7233 26.8892V25.0031H8.70613Z" fill="#FF3D00"/>
<path d="M13.9437 24.9164C13.7377 25.1067 13.566 25.3836 13.4286 25.7469C13.2912 26.1103 13.2225 26.491 13.2225 26.9063C13.2225 27.0274 13.274 27.1312 13.3942 27.235C13.5316 27.3561 13.6862 27.408 13.8922 27.408V27.5811H12.5872V27.5119C12.5872 27.0966 12.6215 26.7332 12.7074 26.3872C12.8619 25.7643 13.1367 25.2279 13.5488 24.7607C13.5831 24.7261 13.6003 24.6915 13.6003 24.6742C13.6175 24.6396 13.6175 24.6222 13.6175 24.5876C13.6175 24.5184 13.566 24.4838 13.4629 24.4838H13.4114V24.3108H16.3478V24.4838C16.1933 24.4838 16.0902 24.553 16.0387 24.6915C16.0044 24.778 15.9872 24.951 15.9872 25.1759V26.7505C15.9872 26.9928 16.0044 27.1485 16.0387 27.235C16.0902 27.3734 16.1933 27.4427 16.3478 27.4427V27.6157H14.4589V27.4427C14.5619 27.4427 14.6478 27.408 14.6993 27.3215C14.7508 27.235 14.768 27.0447 14.768 26.7678V25.1932C14.768 25.0029 14.7508 24.8645 14.7337 24.7953C14.6993 24.7261 14.6306 24.6915 14.5276 24.6915C14.4074 24.6915 14.3044 24.7088 14.2185 24.7434C14.1326 24.7607 14.0468 24.8299 13.9437 24.9164Z" fill="#FF3D00"/>
<path d="M18.5115 27.183C18.6832 27.183 18.8206 27.1311 18.9408 27.01C19.061 26.8889 19.1125 26.7505 19.1125 26.5601C19.1125 26.3352 19.0438 26.1449 18.8893 25.9891C18.7175 25.8161 18.4943 25.7296 18.2196 25.7296V26.7159C18.2196 26.8889 18.2367 27.01 18.2711 27.0792C18.3054 27.1657 18.3913 27.183 18.5115 27.183ZM16.6226 27.5637V27.3907C16.7428 27.3907 16.8286 27.3388 16.8973 27.2523C16.9488 27.1657 16.9832 26.9754 16.9832 26.6986V25.124C16.9832 24.899 16.966 24.7433 16.9317 24.6568C16.8801 24.5184 16.7771 24.4492 16.6226 24.4492V24.2761H18.5973V24.4492C18.4256 24.4492 18.3054 24.5184 18.2539 24.6568C18.2196 24.7433 18.2024 24.899 18.2024 25.124V25.3316C18.8206 25.3316 19.3014 25.4181 19.662 25.5912C20.1085 25.7988 20.3317 26.1276 20.3317 26.5601C20.3317 26.8716 20.16 27.1138 19.8337 27.2869C19.5075 27.4599 19.061 27.5464 18.4771 27.5464H16.6226V27.5637Z" fill="#FF3D00"/>
<path d="M24.2468 26.0413V26.7161C24.2468 26.9065 24.2812 27.0276 24.3327 27.0968C24.3842 27.166 24.4872 27.2006 24.6418 27.2006C24.8307 27.2006 24.9852 27.1487 25.1054 27.0276C25.2256 26.9238 25.2771 26.7507 25.2771 26.5604C25.2771 26.3874 25.2428 26.2316 25.1569 26.1278C25.0882 26.0067 24.968 25.9202 24.8307 25.8856L24.2468 26.0413ZM24.8822 25.0723C24.8822 24.9685 24.8478 24.8647 24.7963 24.7955C24.7448 24.7263 24.6589 24.6744 24.5387 24.6744C24.4185 24.6744 24.3498 24.6917 24.3155 24.7436C24.264 24.8128 24.2296 24.9339 24.2296 25.1416V25.5914L24.4872 25.5222C24.6074 25.4876 24.6933 25.4357 24.762 25.3492C24.8478 25.28 24.8822 25.1935 24.8822 25.0723ZM26.1529 24.9512C26.1529 25.0896 26.0842 25.2108 25.9297 25.3492C25.8095 25.453 25.6549 25.5395 25.466 25.5914C25.7923 25.6433 26.067 25.7472 26.2903 25.9029C26.4963 26.0586 26.6166 26.2663 26.6166 26.4912C26.6166 26.8546 26.4448 27.1141 26.0842 27.3044C25.7579 27.4775 25.3458 27.564 24.8478 27.564H22.667V27.391C22.8215 27.391 22.9246 27.3217 22.9761 27.1833C23.0104 27.0795 23.0276 26.9238 23.0276 26.7161V25.1416C23.0276 24.9166 23.0104 24.7609 22.9761 24.6744C22.9246 24.5359 22.8215 24.4667 22.667 24.4667V24.2937H24.6933C25.1398 24.2937 25.466 24.311 25.6377 24.3629C25.9812 24.4667 26.1529 24.6571 26.1529 24.9512Z" fill="#FF3D00"/>
<path d="M31.0642 27.5637V27.3907C31.2016 27.3907 31.2874 27.3215 31.3389 27.183C31.3733 27.0965 31.3733 26.9235 31.3733 26.664V26.0756L31.1672 25.8853C31.047 26.0237 30.9268 26.2314 30.8066 26.4909C30.6864 26.7678 30.6177 26.9754 30.6177 27.1311C30.6177 27.3042 30.7036 27.3907 30.8925 27.3907V27.5637H28.746V27.3907C28.8833 27.3907 29.0036 27.3042 29.1238 27.1311C29.1409 27.1138 29.2096 26.9581 29.3642 26.6813L29.6046 26.1968C29.6904 26.0237 29.8106 25.8334 29.948 25.6258C30.051 25.47 30.1884 25.2797 30.343 25.0894L30.2228 24.9855C30.051 24.8298 29.845 24.7087 29.6217 24.6049C29.3985 24.5011 29.1753 24.4492 28.9692 24.4492V24.2761H30.841V24.4492C30.7723 24.4492 30.7207 24.4665 30.6692 24.5011C30.6177 24.5357 30.6005 24.5703 30.6005 24.6395C30.6005 24.6914 30.6521 24.7779 30.7723 24.9163C30.841 25.0029 30.9096 25.0894 30.9955 25.1759L31.3905 25.6085V24.9855C31.3905 24.8125 31.3733 24.6914 31.3561 24.6222C31.3046 24.5011 31.2187 24.4492 31.0814 24.4492V24.2761H32.9188V24.4492C32.7814 24.4492 32.6955 24.5011 32.644 24.6222C32.6097 24.6914 32.6097 24.8125 32.6097 24.9855V25.6085L33.0046 25.1759C33.1248 25.0548 33.2107 24.9336 33.2965 24.8298C33.3652 24.726 33.3996 24.6741 33.3996 24.6395C33.3996 24.5876 33.3652 24.5357 33.3137 24.5011C33.2622 24.4665 33.2107 24.4492 33.142 24.4492V24.2761H35.0137V24.4492C34.7905 24.4492 34.5844 24.5011 34.3612 24.5876C34.138 24.6914 33.9491 24.8125 33.7602 24.9682L33.64 25.0721C33.8117 25.297 33.9491 25.47 34.0349 25.6085C34.1551 25.7815 34.2753 25.9891 34.3784 26.1795L34.6188 26.664C34.739 26.9235 34.8248 27.0792 34.842 27.1138C34.9622 27.2869 35.0824 27.3734 35.237 27.3734V27.5464H33.1248V27.3734C33.2794 27.3734 33.3652 27.2869 33.3652 27.1138C33.3652 26.9581 33.2965 26.7332 33.1763 26.4736C33.0561 26.2141 32.9359 26.0064 32.7986 25.8507L32.5925 26.041V26.6293C32.5925 26.9581 32.6097 27.1484 32.6612 27.235C32.7127 27.3215 32.7814 27.3561 32.9016 27.3561V27.5291H31.0642V27.5637Z" fill="#FF3D00"/>
<path d="M35.6319 25.0031C35.6319 24.6398 35.5117 24.4667 35.2713 24.4667V24.2937H37.1774V24.4667C36.9541 24.4667 36.8511 24.6398 36.8511 25.0031V25.8337L37.7441 25.0031C37.7441 24.8128 37.7269 24.6744 37.6754 24.5879C37.6239 24.5013 37.5552 24.4667 37.435 24.4667V24.2937H39.3239V24.4667C39.0835 24.4667 38.9633 24.6398 38.9633 25.0031V26.8546C38.9633 27.2179 39.0835 27.391 39.3239 27.391V27.564H37.435V27.391C37.5552 27.391 37.641 27.3563 37.6754 27.2698C37.7269 27.1833 37.7441 27.0449 37.7441 26.8719V25.5741L36.8511 26.4047V26.8892C36.8511 27.2525 36.9541 27.4256 37.1774 27.4256V27.5986H35.2713V27.4256C35.5117 27.4256 35.6319 27.2525 35.6319 26.8892V25.0031Z" fill="#FF3D00"/>
<path d="M41.9511 25.6606C42.2774 25.7298 42.5178 25.8336 42.7067 25.9721C42.9128 26.1278 43.0158 26.3354 43.0158 26.5777C43.0158 26.9064 42.8441 27.166 42.5178 27.3563C42.1916 27.5466 41.7107 27.6505 41.0754 27.6505C40.9895 27.6505 40.8521 27.6332 40.6632 27.6159C40.4743 27.5986 40.3198 27.5813 40.2168 27.5813C40.0794 27.5813 39.942 27.5986 39.839 27.6332L39.7531 27.6505L39.4955 26.6123L39.6329 26.5777L39.6673 26.6123C39.7703 26.768 39.942 26.9064 40.1996 27.0276C40.4572 27.1487 40.7148 27.2179 40.9552 27.2179C41.1784 27.2179 41.3673 27.166 41.4875 27.0449C41.6249 26.9237 41.6764 26.768 41.6764 26.5777C41.6764 26.37 41.6077 26.2143 41.4532 26.1105C41.2814 25.9894 41.0067 25.9375 40.6117 25.9375H40.543V25.5741H40.6117C40.9036 25.5741 41.0925 25.5395 41.2127 25.453C41.3158 25.3838 41.3673 25.2453 41.3673 25.055C41.3673 24.9512 41.3158 24.8474 41.2471 24.7782C41.1612 24.6916 41.0582 24.657 40.938 24.657C40.7148 24.657 40.5087 24.7262 40.3026 24.8474C40.1309 24.9512 39.9764 25.1242 39.8218 25.3492L39.8046 25.3838L39.6329 25.3319L40.0966 24.1379L40.1653 24.2591C40.1824 24.2937 40.2339 24.311 40.3026 24.311C40.4228 24.2937 40.543 24.2937 40.6461 24.2764C40.7491 24.2591 40.8693 24.2591 41.0239 24.2591C41.5905 24.2591 42.0198 24.3283 42.2602 24.4494C42.5178 24.5705 42.638 24.7609 42.638 25.0204C42.638 25.1761 42.5693 25.3146 42.4148 25.453C42.3118 25.5568 42.14 25.626 41.9511 25.6606Z" fill="#FF3D00"/>
<path d="M43.5139 25.0031C43.5139 24.6398 43.3937 24.4667 43.1533 24.4667V24.2937H45.0422V24.4667C44.922 24.4667 44.8361 24.5013 44.8018 24.5879C44.7503 24.6744 44.7331 24.8128 44.7331 25.0031V25.3146H45.626V25.0031C45.626 24.8128 45.6089 24.6744 45.5573 24.5879C45.5058 24.5013 45.4371 24.4667 45.3169 24.4667V24.2937H47.2059V24.4667C46.9655 24.4667 46.8452 24.6398 46.8452 25.0031V26.8546C46.8452 27.2179 46.9655 27.391 47.2059 27.391V27.564H45.3169V27.391C45.4371 27.391 45.523 27.3564 45.5573 27.2698C45.6089 27.1833 45.626 27.0449 45.626 26.8719V25.7472H44.7331V26.8719C44.7331 27.0622 44.7503 27.2006 44.8018 27.2698C44.8533 27.3564 44.922 27.391 45.0422 27.391V27.564H43.1533V27.391C43.3937 27.391 43.5139 27.2179 43.5139 26.8546V25.0031Z" fill="#FF3D00"/>
<path d="M47.8411 25.0031C47.8411 24.6398 47.7209 24.4667 47.4805 24.4667V24.2937H49.3866V24.4667C49.1634 24.4667 49.0604 24.6398 49.0604 25.0031V25.8337L49.9533 25.0031C49.9533 24.8128 49.9361 24.6744 49.8846 24.5879C49.8331 24.5013 49.7644 24.4667 49.6442 24.4667V24.2937H51.5331V24.4667C51.2927 24.4667 51.1725 24.6398 51.1725 25.0031V26.8546C51.1725 27.2179 51.2927 27.391 51.5331 27.391V27.564H49.6442V27.391C49.7644 27.391 49.8503 27.3563 49.8846 27.2698C49.9361 27.1833 49.9533 27.0449 49.9533 26.8719V25.5741L49.0604 26.4047V26.8892C49.0604 27.2525 49.1634 27.4256 49.3866 27.4256V27.5986H47.4805V27.4256C47.7209 27.4256 47.8411 27.2525 47.8411 26.8892V25.0031Z" fill="#FF3D00"/>
<path d="M55.4484 26.5255C55.4141 26.439 55.3797 26.4044 55.311 26.3698C55.2423 26.3525 55.1565 26.3352 55.0363 26.3352H54.8817H54.6928C54.5726 26.3352 54.4696 26.3525 54.3837 26.3698C54.2979 26.3871 54.2292 26.439 54.1777 26.5255L54.0746 26.4736L54.5383 25.3662C54.5555 25.4181 54.5898 25.47 54.6413 25.4873C54.6928 25.5046 54.7444 25.5219 54.813 25.5219H54.9332H55.3454C55.4999 25.5219 55.603 25.5046 55.6545 25.4873C55.706 25.47 55.7575 25.4354 55.7918 25.3662L55.8949 25.4181L55.4484 26.5255Z" fill="#FF3D00"/>
<path d="M60.102 25.6258L60.5828 25.1586C60.8404 24.9164 60.9606 24.7434 60.9606 24.6395C60.9606 24.5876 60.9263 24.5357 60.8748 24.5184C60.8232 24.4838 60.7546 24.4838 60.6859 24.4838V24.3108H62.6091V24.4838C62.3859 24.4838 62.1798 24.5357 61.9566 24.6222C61.7334 24.7261 61.5445 24.8472 61.3556 25.0029L61.2354 25.1067C61.4071 25.3317 61.5445 25.5047 61.6303 25.6431C61.7505 25.8162 61.8707 26.0238 61.9738 26.2141L62.2142 26.6986C62.3516 26.9755 62.4374 27.1312 62.4546 27.1485C62.5748 27.3215 62.695 27.408 62.8324 27.408V27.5811H60.6859V27.408C60.7717 27.408 60.8404 27.3907 60.8919 27.3388C60.9435 27.2869 60.9778 27.235 60.9778 27.1485C60.9778 26.9928 60.8919 26.7678 60.7374 26.491C60.6172 26.266 60.4626 26.0757 60.3253 25.8854L60.1192 26.0757V26.664C60.1192 26.9236 60.1364 27.0966 60.1535 27.1831C60.1879 27.3215 60.2909 27.408 60.4283 27.408V27.5811H58.5394V27.408C58.7798 27.408 58.9 27.235 58.9 26.8717V25.0202C58.9 24.6569 58.7798 24.4838 58.5394 24.4838V24.3108H60.4283V24.4838C60.3081 24.4838 60.2051 24.5357 60.1707 24.6569C60.1364 24.7434 60.1192 24.8472 60.1192 25.0202V25.6258H60.102Z" fill="#FF3D00"/>
<path d="M65.3223 26.7852C65.3566 26.6987 65.3909 26.5776 65.4253 26.4391C65.4425 26.3007 65.4596 26.1623 65.4596 26.0412C65.4596 25.8681 65.4425 25.7124 65.4253 25.5394C65.4081 25.3836 65.3566 25.2279 65.3051 25.1241C65.2536 25.003 65.1849 24.9165 65.099 24.8472C64.996 24.7607 64.893 24.7261 64.7899 24.7261C64.5495 24.7261 64.3778 24.8645 64.2748 25.1241C64.1889 25.3144 64.1546 25.5394 64.1546 25.8162C64.1546 26.1277 64.2061 26.4045 64.2919 26.6468C64.4121 26.9928 64.6182 27.1486 64.8758 27.1486C64.9788 27.1486 65.0647 27.114 65.1505 27.0447C65.2192 26.9755 65.2879 26.889 65.3223 26.7852ZM63.4677 27.3043C63.2616 27.1659 63.1071 26.9928 63.004 26.7506C62.901 26.5083 62.8495 26.2661 62.8495 26.0066C62.8495 25.4529 63.0556 25.003 63.4505 24.6742C63.8283 24.3628 64.2919 24.207 64.8586 24.207C65.4081 24.207 65.8546 24.3455 66.198 24.6396C66.5758 24.9511 66.7647 25.3836 66.7647 25.9373C66.7647 26.4737 66.5586 26.9063 66.1637 27.2178C65.8031 27.5119 65.3394 27.6503 64.7899 27.6503C64.5323 27.6503 64.3091 27.6157 64.0687 27.5638C63.8626 27.5292 63.6394 27.4254 63.4677 27.3043Z" fill="#FF3D00"/>
<path d="M67.9152 26.6813C67.9152 26.9927 67.9496 27.183 68.0011 27.2696C68.0526 27.3561 68.1557 27.408 68.293 27.408V27.581H67.0566V27.408C67.2284 27.3907 67.3314 27.3042 67.3657 27.183C67.4001 27.1138 67.4001 26.9581 67.4001 26.7159V25.2105C67.4001 24.9682 67.3829 24.8125 67.3657 24.726C67.3142 24.5876 67.2112 24.5011 67.0566 24.4665V24.2934H69.0486V24.4665C68.9627 24.4665 68.9112 24.5184 68.9112 24.6049C68.9112 24.6914 68.9627 24.7779 69.0486 24.8817L69.4436 25.4354L69.8385 24.8817C69.9244 24.7606 69.9587 24.6741 69.9587 24.5703C69.9587 24.4838 69.9244 24.4492 69.8557 24.4492V24.2761H71.6072V24.4492C71.4355 24.4838 71.3325 24.553 71.2982 24.6741C71.2638 24.7433 71.2638 24.899 71.2638 25.124V26.6466C71.2638 26.9235 71.281 27.0965 71.2982 27.1657C71.3497 27.3042 71.4527 27.3734 71.6072 27.3734V27.5464H69.7183V27.3734C69.8557 27.3734 69.9416 27.3215 69.9759 27.2349C70.0102 27.1657 70.0274 27.0446 70.0274 26.8716V26.6813V25.3316L68.9456 26.8197L67.8981 25.3489V26.6813H67.9152Z" fill="#FF3D00"/>
<path d="M75.3334 26.664C75.3334 27.0101 75.4193 27.1658 75.591 27.1658C75.7971 27.1658 75.9516 27.062 76.0718 26.8371C76.1749 26.6121 76.2435 26.3353 76.2435 26.0065C76.2435 25.6432 76.1749 25.3317 76.0375 25.0722C75.9001 24.8126 75.7112 24.6742 75.4708 24.6742L75.3678 24.6915V26.664H75.3334ZM74.1142 24.6915L74.0112 24.6742C73.7708 24.6742 73.5819 24.7953 73.4445 25.0722C73.3071 25.3317 73.2385 25.6432 73.2385 26.0065C73.2385 26.3526 73.29 26.6294 73.393 26.8544C73.496 27.0793 73.6506 27.1831 73.8738 27.1831C73.9597 27.1831 74.0284 27.1485 74.0627 27.062C74.0971 26.9755 74.1142 26.8544 74.1142 26.664V24.6915ZM74.1142 23.8956C74.1142 23.5495 73.994 23.3592 73.7536 23.3592V23.1861L75.3334 23.0996V24.2416C75.3506 24.2416 75.4193 24.2416 75.5052 24.2243C75.6082 24.207 75.6769 24.207 75.7112 24.207C76.2607 24.207 76.69 24.3627 77.0335 24.6915C77.3597 25.0203 77.5314 25.4701 77.5314 26.0584C77.5314 26.3007 77.4799 26.5256 77.3941 26.7333C77.291 26.9409 77.1537 27.1139 76.9819 27.2697C76.8102 27.4081 76.6213 27.5119 76.4324 27.5638C76.2435 27.6157 76.0203 27.6503 75.7799 27.6503L75.3334 27.6157V28.3251C75.3334 28.4982 75.3678 28.6193 75.4365 28.7231C75.5052 28.8269 75.6082 28.8615 75.7284 28.8615V29.0346H73.6678V28.8615C73.788 28.8615 73.891 28.8096 73.9768 28.7231C74.0455 28.6366 74.0971 28.4982 74.0971 28.3251V27.6157L73.6506 27.6503C73.4102 27.6503 73.1869 27.6157 72.9981 27.5638C72.8092 27.5119 72.6203 27.4081 72.4485 27.2697C72.2768 27.1312 72.1395 26.9582 72.0364 26.7333C71.9334 26.5256 71.899 26.3007 71.899 26.0584C71.899 25.4701 72.0708 25.0203 72.397 24.6915C72.7233 24.3627 73.1698 24.207 73.7193 24.207C73.8051 24.207 73.8566 24.207 73.9253 24.2243C73.9769 24.2243 74.0455 24.2416 74.1142 24.2416V23.8956Z" fill="#FF3D00"/>
<path d="M80.2961 26.7852C80.3305 26.6987 80.3648 26.5776 80.3992 26.4391C80.4163 26.3007 80.4335 26.1623 80.4335 26.0412C80.4335 25.8681 80.4163 25.7124 80.3992 25.5394C80.382 25.3836 80.3305 25.2279 80.279 25.1241C80.2274 25.003 80.1587 24.9165 80.0729 24.8472C79.9699 24.7607 79.8668 24.7261 79.7638 24.7261C79.5234 24.7261 79.3517 24.8645 79.2486 25.1241C79.1628 25.3144 79.1284 25.5394 79.1284 25.8162C79.1284 26.1277 79.1799 26.4045 79.2658 26.6468C79.386 26.9928 79.5921 27.1486 79.8497 27.1486C79.9527 27.1486 80.0385 27.114 80.1244 27.0447C80.1931 26.9755 80.2446 26.889 80.2961 26.7852ZM78.4416 27.3043C78.2355 27.1659 78.0809 26.9928 77.9779 26.7506C77.8749 26.5083 77.8234 26.2661 77.8234 26.0066C77.8234 25.4529 78.0294 25.003 78.4244 24.6742C78.8022 24.3628 79.2658 24.207 79.8325 24.207C80.382 24.207 80.8285 24.3455 81.1719 24.6396C81.5497 24.9511 81.7386 25.3836 81.7386 25.9373C81.7386 26.4737 81.5325 26.9063 81.1376 27.2178C80.7769 27.5119 80.3133 27.6503 79.7638 27.6503C79.5062 27.6503 79.283 27.6157 79.0426 27.5638C78.8193 27.5292 78.6133 27.4254 78.4416 27.3043Z" fill="#FF3D00"/>
<path d="M83.5932 26.664C83.5932 26.7332 83.5932 26.8024 83.5932 26.8716C83.5932 26.9408 83.6104 27.01 83.6447 27.0446C83.7134 27.1311 83.7821 27.1657 83.9023 27.1657C84.1942 27.1657 84.4003 27.0273 84.572 26.7678C84.7094 26.5428 84.7609 26.2833 84.7609 25.9718C84.7609 25.6258 84.675 25.3316 84.4861 25.1067C84.2801 24.8471 84.0225 24.726 83.6791 24.726H83.5932V26.664ZM84.0569 24.3107C84.3488 24.3107 84.6064 24.328 84.8296 24.3799C85.0528 24.4318 85.2589 24.5357 85.4478 24.6914C85.6367 24.8471 85.7912 25.0548 85.9114 25.2797C86.0316 25.5219 86.0831 25.7642 86.0831 26.0237C86.0831 26.5428 85.8942 26.9581 85.4993 27.2696C85.3447 27.408 85.1215 27.4945 84.8296 27.5637C84.6064 27.6156 84.3659 27.6329 84.1084 27.6329C84.0225 27.6329 83.9538 27.6329 83.8508 27.6156C83.7649 27.6156 83.6791 27.5983 83.5932 27.581V28.2904C83.5932 28.4635 83.6276 28.5846 83.6962 28.6884C83.7649 28.7749 83.868 28.8268 83.9882 28.8268V28.9999H81.9276V28.8268C82.0478 28.8268 82.1508 28.7749 82.2366 28.6884C82.3225 28.6019 82.3568 28.4635 82.3568 28.2904V24.9855C82.3568 24.6395 82.2366 24.4492 81.9962 24.4492V24.2761H84.0569V24.3107Z" fill="#FF3D00"/>
<path d="M88.6074 26.716C88.6074 26.9236 88.6074 27.062 88.6246 27.1139C88.6589 27.3043 88.7619 27.4081 88.9337 27.4081V27.5811H87.0276V27.4081C87.1478 27.4081 87.2336 27.3735 87.3023 27.287C87.3538 27.2004 87.3882 27.0101 87.3882 26.716V24.7261C87.1306 24.7261 86.8902 24.8126 86.7013 24.9683C86.5124 25.1414 86.375 25.3663 86.2892 25.6605L86.1518 25.6259L86.4781 24.1897C86.5124 24.2416 86.5467 24.2589 86.5983 24.2762C86.6498 24.2935 86.7185 24.2935 86.8043 24.2935H86.8902H86.976H88.9508H89.1225C89.2256 24.2935 89.2943 24.2935 89.3801 24.2762C89.4488 24.2589 89.5003 24.2243 89.5347 24.1897L89.8438 25.6259L89.7064 25.6605C89.5862 25.349 89.4488 25.1241 89.2943 24.9683C89.1225 24.7953 88.8821 24.7088 88.6246 24.7088V26.716H88.6074Z" fill="#FF3D00"/>
<path d="M92.4884 25.0031C92.4884 24.6398 92.3682 24.4667 92.1277 24.4667V24.2937H94.0167V24.4667C93.8965 24.4667 93.8106 24.5013 93.7762 24.5879C93.7247 24.6744 93.7076 24.8128 93.7076 25.0031V25.3146H94.6005V25.0031C94.6005 24.8128 94.5833 24.6744 94.5318 24.5879C94.4803 24.5013 94.4116 24.4667 94.2914 24.4667V24.2937H96.1803V24.4667C95.9399 24.4667 95.8197 24.6398 95.8197 25.0031V26.8546C95.8197 27.2179 95.9399 27.391 96.1803 27.391V27.564H94.2914V27.391C94.4116 27.391 94.4975 27.3564 94.5318 27.2698C94.5833 27.1833 94.6005 27.0449 94.6005 26.8719V25.7472H93.7076V26.8719C93.7076 27.0622 93.7247 27.2006 93.7762 27.2698C93.8278 27.3564 93.8965 27.391 94.0167 27.391V27.564H92.1277V27.391C92.3682 27.391 92.4884 27.2179 92.4884 26.8546V25.0031Z" fill="#FF3D00"/>
<path d="M98.1036 25.9546C98.0006 26.0239 97.8975 26.1104 97.8288 26.2315C97.743 26.3353 97.7086 26.4564 97.7086 26.5776C97.7086 26.6814 97.743 26.7852 97.8117 26.8717C97.8803 26.9582 97.9662 26.9928 98.0692 26.9928C98.3096 26.9928 98.4814 26.8371 98.5672 26.543C98.6359 26.3353 98.6703 26.0758 98.6703 25.7816C98.5329 25.7989 98.4299 25.8335 98.344 25.8508C98.2753 25.8681 98.1894 25.9027 98.1036 25.9546ZM98.6703 25.3317V25.2106C98.6703 25.1414 98.6703 25.0722 98.6531 25.0203C98.6359 24.9684 98.6187 24.9338 98.5844 24.8819C98.5157 24.8126 98.447 24.778 98.3612 24.7434C98.2753 24.7261 98.1894 24.7088 98.0692 24.7088C97.8117 24.7088 97.5713 24.778 97.3652 24.9165C97.1591 25.0549 97.0046 25.2625 96.9015 25.5048H96.7642L96.9015 24.3109C96.9359 24.3455 96.9702 24.3801 97.0046 24.3974C97.0389 24.4147 97.0733 24.432 97.1248 24.432C97.1591 24.432 97.2106 24.432 97.2622 24.4147C97.3137 24.3974 97.348 24.3974 97.3995 24.3801C97.7258 24.3108 97.9834 24.2589 98.1379 24.2416C98.2925 24.2243 98.447 24.207 98.6016 24.207C98.8076 24.207 98.9965 24.2243 99.1682 24.2589C99.34 24.2935 99.4773 24.3628 99.6147 24.4493C99.7521 24.5531 99.8379 24.6915 99.8723 24.8992C99.9066 25.0203 99.9066 25.2106 99.9066 25.4529V26.6641V26.8025C99.9066 26.9755 99.9238 27.114 99.9582 27.1832C100.01 27.3043 100.113 27.3735 100.267 27.3908V27.5638H98.9107C98.8592 27.5119 98.8076 27.4427 98.7733 27.3735C98.739 27.287 98.7046 27.2178 98.6874 27.1313C98.5844 27.287 98.3955 27.4254 98.1551 27.5292C97.9319 27.6157 97.7086 27.6677 97.4854 27.6677C97.2278 27.6677 97.0046 27.5984 96.8157 27.46C96.6096 27.3043 96.5066 27.0967 96.5066 26.8371C96.5066 26.5257 96.644 26.2488 96.9015 26.0412C97.1076 25.8681 97.3995 25.7297 97.7773 25.6086C98.0349 25.5221 98.344 25.4702 98.7046 25.4182V25.3317H98.6703Z" fill="#FF3D00"/>
<path d="M104.217 25.6258L104.698 25.1586C104.955 24.9164 105.075 24.7434 105.075 24.6395C105.075 24.5876 105.041 24.5357 104.99 24.5184C104.938 24.4838 104.869 24.4838 104.801 24.4838V24.3108H106.724V24.4838C106.501 24.4838 106.295 24.5357 106.071 24.6222C105.848 24.7261 105.659 24.8472 105.47 25.0029L105.35 25.1067C105.522 25.3317 105.659 25.5047 105.745 25.6431C105.865 25.8162 105.986 26.0238 106.089 26.2141L106.329 26.6986C106.466 26.9755 106.552 27.1312 106.569 27.1485C106.69 27.3215 106.81 27.408 106.947 27.408V27.5811H104.801V27.408C104.887 27.408 104.955 27.3907 105.007 27.3388C105.058 27.2869 105.093 27.235 105.093 27.1485C105.093 26.9928 105.007 26.7678 104.852 26.491C104.732 26.266 104.577 26.0757 104.44 25.8854L104.234 26.0757V26.664C104.234 26.9236 104.251 27.0966 104.268 27.1831C104.303 27.3215 104.406 27.408 104.543 27.408V27.5811H102.654V27.408C102.895 27.408 103.015 27.235 103.015 26.8717V25.0202C103.015 24.6569 102.895 24.4838 102.654 24.4838V24.3108H104.543V24.4838C104.423 24.4838 104.32 24.5357 104.286 24.6569C104.251 24.7434 104.234 24.8472 104.234 25.0202V25.6258H104.217Z" fill="#FF3D00"/>
<path d="M109.66 25.1416C109.695 25.055 109.712 24.9685 109.729 24.9166C109.746 24.8474 109.746 24.7955 109.746 24.7263C109.746 24.6398 109.712 24.5879 109.66 24.5359C109.609 24.5013 109.54 24.484 109.454 24.484V24.311H110.794V24.484C110.622 24.484 110.485 24.5879 110.364 24.7782C110.313 24.8474 110.244 25.0204 110.141 25.3146L109.077 27.9966C108.939 28.3253 108.802 28.5676 108.664 28.706C108.475 28.8963 108.218 29.0001 107.909 29.0001C107.771 29.0001 107.634 28.9828 107.497 28.9309C107.359 28.879 107.222 28.8098 107.102 28.7233L107.462 27.8581L107.6 27.91C107.6 27.962 107.6 28.0139 107.6 28.0658C107.6 28.1523 107.634 28.2388 107.72 28.308C107.806 28.3772 107.892 28.4118 107.978 28.4118C108.149 28.4118 108.287 28.3253 108.407 28.1696C108.51 28.0139 108.561 27.8408 108.561 27.6505C108.561 27.5294 108.527 27.3737 108.476 27.2179C108.441 27.1487 108.39 27.0103 108.287 26.8026L107.428 25.0377C107.325 24.8301 107.256 24.709 107.222 24.6571C107.119 24.5359 106.999 24.4667 106.861 24.4667V24.2937H108.991V24.4667C108.905 24.4667 108.819 24.484 108.767 24.5013C108.716 24.5359 108.682 24.5879 108.682 24.6571C108.682 24.6917 108.699 24.7436 108.716 24.8128C108.733 24.882 108.767 24.9339 108.785 24.9858L109.283 26.2316L109.66 25.1416Z" fill="#FF3D00"/>
<path d="M114.366 27.0622C114.451 27.1833 114.52 27.2525 114.554 27.2871C114.64 27.3737 114.726 27.4083 114.812 27.4083V27.5813H112.786V27.4083C112.837 27.4083 112.889 27.391 112.923 27.3737C112.957 27.3563 112.975 27.3217 112.975 27.2871C112.975 27.2352 112.957 27.2006 112.94 27.166C112.923 27.1314 112.889 27.0795 112.854 27.0103L112.425 26.3355L112.013 26.8546C111.944 26.9411 111.893 26.993 111.876 27.0449C111.824 27.1314 111.807 27.2006 111.807 27.2698C111.807 27.3044 111.824 27.339 111.841 27.3737C111.876 27.4083 111.927 27.4256 111.996 27.4256V27.5986H110.725V27.4256C110.88 27.391 111.034 27.3044 111.189 27.166C111.24 27.1141 111.36 26.9757 111.532 26.7507L112.167 25.9375L111.566 25.0031C111.429 24.8128 111.36 24.6917 111.326 24.6571C111.206 24.5359 111.086 24.4667 110.965 24.4667V24.2937H113.026V24.4667C112.957 24.484 112.906 24.484 112.854 24.5186C112.803 24.5359 112.786 24.5879 112.786 24.6398C112.786 24.6744 112.803 24.709 112.82 24.7609C112.837 24.7955 112.889 24.882 112.94 24.9685L113.129 25.28L113.232 25.1589C113.301 25.0723 113.37 24.9858 113.421 24.8993C113.507 24.7782 113.541 24.6744 113.541 24.6052C113.541 24.5532 113.524 24.5186 113.49 24.5013C113.455 24.484 113.404 24.484 113.352 24.484V24.311H114.589V24.484C114.434 24.5186 114.297 24.5706 114.194 24.6571C114.125 24.709 114.022 24.8128 113.902 24.9858L113.37 25.6606L114.366 27.0622Z" fill="#FF3D00"/>
<path d="M115.327 25.0031C115.327 24.6398 115.207 24.4667 114.966 24.4667V24.2937H116.855V24.4667C116.735 24.4667 116.649 24.5013 116.615 24.5879C116.563 24.6744 116.546 24.8128 116.546 25.0031V25.3146H117.439V25.0031C117.439 24.8128 117.422 24.6744 117.371 24.5879C117.319 24.5013 117.25 24.4667 117.13 24.4667V24.2937H119.019V24.4667C118.779 24.4667 118.658 24.6398 118.658 25.0031V26.8546C118.658 27.2179 118.779 27.391 119.019 27.391V27.564H117.13V27.391C117.25 27.391 117.336 27.3564 117.371 27.2698C117.422 27.1833 117.439 27.0449 117.439 26.8719V25.7472H116.546V26.8719C116.546 27.0622 116.563 27.2006 116.615 27.2698C116.666 27.3564 116.735 27.391 116.855 27.391V27.564H114.966V27.391C115.207 27.391 115.327 27.2179 115.327 26.8546V25.0031Z" fill="#FF3D00"/>
<path d="M121.715 25.401V25.2972C121.715 25.1414 121.664 25.003 121.561 24.8992C121.458 24.7954 121.337 24.7262 121.183 24.7262C120.994 24.7262 120.839 24.83 120.736 25.0376C120.65 25.1933 120.616 25.3837 120.616 25.6259L121.715 25.401ZM120.668 26.0239C120.702 26.3353 120.805 26.5776 120.96 26.7679C121.131 26.9929 121.372 27.0967 121.664 27.0967C121.921 27.0967 122.144 27.0275 122.35 26.889C122.557 26.7506 122.711 26.5603 122.814 26.318L122.951 26.37L122.539 27.6331C122.505 27.6158 122.488 27.5985 122.471 27.5812C122.419 27.5466 122.385 27.5466 122.333 27.5466L122.196 27.5639C122.059 27.5812 121.921 27.5985 121.784 27.6158C121.646 27.6331 121.509 27.6504 121.372 27.6504C121.114 27.6504 120.874 27.6158 120.633 27.5639C120.393 27.4947 120.187 27.4081 119.998 27.2697C119.775 27.114 119.62 26.9063 119.5 26.6814C119.38 26.4565 119.328 26.1969 119.328 25.9201C119.328 25.3837 119.534 24.9684 119.929 24.6569C120.29 24.3628 120.753 24.2244 121.303 24.2244C121.767 24.2244 122.144 24.3282 122.453 24.5358C122.78 24.7781 122.986 25.1068 123.072 25.5394L120.668 26.0239Z" fill="#FF3D00"/>
</g>
<defs>
<clipPath id="clip0">
<rect width="128" height="29" fill="white"/>
</clipPath>
</defs>
</svg>
