<svg width="118" height="27" viewBox="0 0 118 27" fill="none" xmlns="http://www.w3.org/2000/svg"><g opacity=".5"><path d="M28.666 24.116H16.46V2.889h12.205v21.227z" fill="#757575"/><path d="M17.241 13.5c0-4.306 2.084-8.142 5.328-10.614A14.184 14.184 0 0013.949 0C6.244 0 0 6.044 0 13.5S6.245 27 13.948 27c3.254 0 6.248-1.079 8.62-2.886-3.243-2.472-5.327-6.308-5.327-10.614z" fill="#505050"/><path d="M45.124 13.5c0 7.456-6.245 13.5-13.948 13.5a14.19 14.19 0 01-8.622-2.886c3.245-2.472 5.329-6.308 5.329-10.614 0-4.306-2.084-8.142-5.329-10.614A14.189 14.189 0 0131.176 0c7.703 0 13.948 6.044 13.948 13.5z" fill="#5F5F5F"/><path d="M88.752 22.487h-4.106l2.566-15.769h4.106l-2.566 15.77zm-7.56-15.769l-3.914 10.846-.463-2.335-1.38-7.09s-.168-1.42-1.948-1.42h-6.471l-.076.266s1.979.412 4.294 1.803l3.567 13.7h4.278l6.532-15.77h-4.419zm32.292 15.77h3.77l-3.287-15.77h-3.3c-1.524 0-1.895 1.175-1.895 1.175l-6.123 14.594h4.279l.856-2.342h5.219l.481 2.342zm-4.517-5.579l2.157-5.9 1.213 5.9h-3.37zm-5.997-6.399l.586-3.386s-1.808-.687-3.693-.687c-2.037 0-6.876.89-6.876 5.22 0 4.074 5.679 4.124 5.679 6.264 0 2.14-5.093 1.757-6.774.407l-.61 3.541s1.832.89 4.633.89c2.802 0 7.029-1.45 7.029-5.398 0-4.1-5.73-4.482-5.73-6.265 0-1.783 3.999-1.554 5.756-.586z" fill="#4F4F4F"/><path d="M76.814 15.23l-1.383-7.09s-.167-1.42-1.948-1.42h-6.47l-.076.267s3.11.644 6.093 3.06c2.852 2.307 3.782 5.184 3.782 5.184z" fill="#939393"/></g></svg>