<svg width="810" height="77" viewBox="0 0 810 77" fill="none" xmlns="http://www.w3.org/2000/svg"><path stroke="#000" stroke-width="3" d="M1.846 2h24.523v21.986H1.846zm24.523 0h24.523v21.986H26.369zm24.523 0h24.523v21.986H50.892zm24.523 0h24.523v21.986H75.415zm24.524 0h24.523v21.986H99.939zm24.523 0h24.523v21.986h-24.523zM1 2h148.831m361.084 0h24.523v21.986h-24.523zm24.523 0h24.523v21.986h-24.523zm24.524 0h24.523v21.986h-24.523zm24.523 0h73.57v21.986h-73.57zM510.07 2h148.831M548.123 52.738h24.523v21.986h-24.523z"/><path stroke="#000" stroke-width="3" d="M572.646 52.738h24.523v21.986h-24.523zm24.524 0h24.523v21.986H597.17zM181.119 2h24.523v21.986h-24.523zm24.524 0h24.523v21.986h-24.523zm24.523 0h24.523v21.986h-24.523zm24.523 0h24.523v21.986h-24.523zm24.523 0h24.523v21.986h-24.523zm24.524 0h24.523v72.724h-24.523zM180.274 2h148.831m30.865 0h24.523v72.724H359.97z"/><path stroke="#000" stroke-width="3" d="M384.493 2h24.523v21.986h-24.523zm24.524 0h24.523v21.986h-24.523zm24.523 0h24.523v21.986H433.54z"/><path stroke="#000" stroke-width="3" d="M458.063 2h24.523v72.724h-24.523zm-98.516 0h123.885m202.106 0h24.523v72.724h-24.523zm24.523 0h24.523v21.986h-24.523z"/><path stroke="#000" stroke-width="3" d="M734.584 2h24.523v21.986h-24.523zm24.524 0h24.523v21.986h-24.523z"/><path d="M783.631 2h24.523v72.724l-24.523-21.563V2z" stroke="#000" stroke-width="3" stroke-linecap="round" stroke-linejoin="round"/><path d="M749.383 53.584h34.671l23.678 21.14h-58.349v-21.14z" stroke="#000" stroke-width="3" stroke-linejoin="round"/><path d="M685.115 2H809" stroke="#000" stroke-width="3"/></svg>