<svg width="25" height="25" viewBox="0 0 25 25" fill="none" xmlns="http://www.w3.org/2000/svg"><path fill-rule="evenodd" clip-rule="evenodd" d="M12.711.215c-3.28 0-3.69.014-4.979.073-1.285.059-2.163.262-2.93.56a5.913 5.913 0 00-2.14 1.393A5.928 5.928 0 001.27 4.38c-.3.768-.503 1.646-.561 2.93C.65 8.6.635 9.01.635 12.29c0 3.28.015 3.69.073 4.978.06 1.285.263 2.162.561 2.93a5.916 5.916 0 001.393 2.14A5.912 5.912 0 004.8 23.73c.768.299 1.646.502 2.931.561 1.288.059 1.7.073 4.979.073 3.28 0 3.69-.014 4.978-.073 1.285-.059 2.164-.262 2.932-.561a5.908 5.908 0 002.137-1.394 5.927 5.927 0 001.394-2.139c.297-.768.5-1.645.561-2.93.058-1.288.073-1.699.073-4.978 0-3.28-.015-3.691-.073-4.98-.06-1.285-.264-2.162-.561-2.93a5.927 5.927 0 00-1.394-2.139A5.902 5.902 0 0020.62.85c-.77-.3-1.649-.503-2.934-.562-1.288-.059-1.698-.073-4.979-.073h.004zm-1.084 2.18h1.083c3.224 0 3.607.012 4.88.07 1.177.053 1.816.25 2.242.415.563.22.965.481 1.387.904.423.422.684.825.904 1.388.165.425.362 1.064.416 2.242.057 1.273.07 1.655.07 4.877 0 3.223-.013 3.605-.07 4.878-.054 1.178-.25 1.817-.416 2.242a3.732 3.732 0 01-.904 1.387 3.733 3.733 0 01-1.387.903c-.426.166-1.065.362-2.242.416-1.273.058-1.656.07-4.88.07s-3.606-.012-4.879-.07c-1.177-.054-1.816-.251-2.242-.416a3.74 3.74 0 01-1.389-.903 3.743 3.743 0 01-.903-1.388c-.166-.425-.363-1.064-.416-2.242-.058-1.273-.07-1.655-.07-4.88 0-3.224.012-3.604.07-4.877.054-1.178.25-1.817.416-2.242.218-.564.48-.966.903-1.389a3.748 3.748 0 011.389-.904c.425-.166 1.065-.362 2.242-.416 1.114-.05 1.546-.065 3.796-.068v.003zm7.528 2.01a1.449 1.449 0 100 2.9 1.449 1.449 0 000-2.9zM12.71 6.087a6.201 6.201 0 100 12.403 6.201 6.201 0 000-12.403zm-.002 2.186a4.025 4.025 0 110 8.05 4.025 4.025 0 010-8.05z" fill="#fff"/></svg>