<svg width="27" height="27" viewBox="0 0 27 27" fill="none" xmlns="http://www.w3.org/2000/svg"><g clip-path="url(#clip0)" fill="#656565"><path d="M5.31 14.49c-.689 1.357.094 2.004 1.88 3.112 1.52.938 3.617 1.28 4.965 1.418-.552.531 1.98-1.903-5.31 5.109-1.547 1.481.942 3.858 2.486 2.408l4.182-4.033a859.254 859.254 0 014.182 4.039c1.546 1.456 4.033-.901 2.504-2.409l-5.328-5.108c1.365-.137 3.431-.5 4.932-1.419l-.001-.001c1.786-1.113 2.57-1.76 1.89-3.115-.41-.77-1.518-1.413-2.991-.3 0 0-1.99 1.524-5.2 1.524-3.211 0-5.2-1.524-5.2-1.524-1.473-1.119-2.584-.47-2.99.3z"/><path d="M13.499 13.66c3.913 0 7.108-3.058 7.108-6.822 0-3.78-3.195-6.838-7.108-6.838C9.585 0 6.39 3.058 6.39 6.838c0 3.764 3.195 6.822 7.109 6.822zm0-10.196c1.923 0 3.49 1.509 3.49 3.374 0 1.85-1.567 3.358-3.49 3.358-1.923 0-3.49-1.509-3.49-3.358-.002-1.867 1.566-3.374 3.49-3.374z"/></g><defs><clipPath id="clip0"><path fill="#fff" d="M0 0h27v27H0z"/></clipPath></defs></svg>