<svg width="51" height="13" viewBox="0 0 51 13" fill="none" xmlns="http://www.w3.org/2000/svg"><path d="M2.877 8.803H.442c-.011.704.117 1.313.384 1.825s.625.934 1.073 1.265c.46.331.983.571 1.57.72a7.09 7.09 0 001.843.24c.78 0 1.463-.09 2.05-.271.598-.182 1.095-.433 1.49-.753.406-.331.71-.72.913-1.169a3.49 3.49 0 00.305-1.457c0-.64-.14-1.164-.417-1.57a3.29 3.29 0 00-.961-.992 4.043 4.043 0 00-1.138-.529 9.095 9.095 0 00-.88-.24 201.99 201.99 0 01-1.747-.448 6.84 6.84 0 01-1.041-.353c-.246-.117-.411-.245-.497-.384-.085-.139-.128-.32-.128-.544 0-.246.053-.449.16-.609.107-.16.24-.293.4-.4.172-.107.359-.182.561-.224.203-.043.406-.064.61-.064.309 0 .592.026.848.08.267.053.502.144.705.272.203.128.363.304.48.528.129.225.204.507.225.85h2.435c0-.663-.128-1.223-.384-1.682A3.188 3.188 0 008.29 1.74a4.18 4.18 0 00-1.473-.64A6.917 6.917 0 005.103.891c-.512 0-1.025.07-1.538.208a4.295 4.295 0 00-1.377.64 3.468 3.468 0 00-.994 1.09c-.245.427-.368.934-.368 1.52 0 .524.096.972.288 1.346.203.363.465.667.785.913.32.245.684.448 1.09.608.406.15.822.278 1.25.385.416.117.827.224 1.233.32a7.79 7.79 0 011.09.336c.32.128.576.288.768.48a.992.992 0 01.305.753c0 .288-.075.529-.225.72-.15.182-.336.326-.56.433a2.7 2.7 0 01-.721.224 5.837 5.837 0 01-.721.048c-.331 0-.652-.037-.961-.112a2.728 2.728 0 01-.817-.368 1.933 1.933 0 01-.545-.657c-.139-.267-.208-.592-.208-.976zm14.777-.625l1.49-4.195h.032l1.442 4.195h-2.964zm.24-7.014l-4.325 11.434h2.53l.898-2.546h4.277l.865 2.546h2.612L20.473 1.164h-2.579zm11.047 0v11.434h8.09v-2.114h-5.575v-9.32h-2.515zm12.7 0v11.434h8.683v-2.114h-6.167V7.682h5.542V5.728h-5.542v-2.45h6.04V1.164H41.64z" fill="#fff"/></svg>