<svg width="51" height="13" viewBox="0 0 51 13" fill="none" xmlns="http://www.w3.org/2000/svg">
<path d="M2.87659 8.80252H0.441534C0.430854 9.5071 0.559015 10.1156 0.826016 10.628C1.09302 11.1404 1.4508 11.5621 1.89936 11.893C2.35861 12.224 2.88193 12.4642 3.46933 12.6136C4.06742 12.7738 4.68152 12.8538 5.31164 12.8538C6.09129 12.8538 6.77481 12.7631 7.36221 12.5816C7.9603 12.4001 8.45692 12.1492 8.85208 11.829C9.25793 11.498 9.56231 11.1084 9.76523 10.66C9.96815 10.2117 10.0696 9.72594 10.0696 9.20285C10.0696 8.56233 9.93077 8.03924 9.65309 7.63357C9.38609 7.21723 9.06568 6.8863 8.69188 6.64077C8.31808 6.39523 7.93894 6.21909 7.55446 6.11234C7.18065 5.99491 6.88695 5.91484 6.67335 5.87214C5.95779 5.69066 5.37572 5.5412 4.92716 5.42378C4.48928 5.30635 4.14218 5.18892 3.88585 5.07149C3.64021 4.95406 3.47467 4.82596 3.38923 4.68718C3.30379 4.5484 3.26107 4.36692 3.26107 4.14273C3.26107 3.8972 3.31447 3.69437 3.42127 3.53424C3.52807 3.37411 3.66157 3.24067 3.82177 3.13391C3.99265 3.02716 4.17956 2.95243 4.38248 2.90973C4.5854 2.86703 4.78832 2.84568 4.99124 2.84568C5.30096 2.84568 5.58398 2.87237 5.84031 2.92574C6.10731 2.97912 6.34227 3.06986 6.54519 3.19796C6.74811 3.32607 6.90831 3.50221 7.02579 3.72639C7.15395 3.95058 7.22871 4.23347 7.25007 4.57508H9.68513C9.68513 3.91321 9.55697 3.35276 9.30064 2.89372C9.055 2.424 8.71858 2.03969 8.29138 1.74078C7.86418 1.44187 7.37289 1.22836 6.81753 1.10026C6.27285 0.961479 5.70146 0.89209 5.10338 0.89209C4.59074 0.89209 4.0781 0.961479 3.56545 1.10026C3.05281 1.23904 2.59357 1.45255 2.18772 1.74078C1.78188 2.02901 1.4508 2.39198 1.19448 2.82967C0.948837 3.25668 0.826016 3.76376 0.826016 4.3509C0.826016 4.87399 0.922137 5.32236 1.11438 5.696C1.3173 6.05896 1.57896 6.36321 1.89936 6.60874C2.21976 6.85427 2.58289 7.0571 2.98873 7.21723C3.39457 7.36669 3.81109 7.49479 4.2383 7.60155C4.65482 7.71898 5.066 7.82573 5.47184 7.92181C5.87769 8.01789 6.24081 8.12998 6.56121 8.25808C6.88161 8.38619 7.13793 8.54631 7.33017 8.73847C7.5331 8.93063 7.63456 9.1815 7.63456 9.49108C7.63456 9.77932 7.5598 10.0195 7.41027 10.2117C7.26075 10.3932 7.07385 10.5373 6.84957 10.644C6.62529 10.7508 6.38499 10.8255 6.12867 10.8682C5.87235 10.9002 5.63204 10.9162 5.40776 10.9162C5.07668 10.9162 4.75628 10.8789 4.44656 10.8042C4.13684 10.7187 3.86449 10.596 3.62953 10.4359C3.40525 10.265 3.22369 10.0462 3.08485 9.77932C2.94601 9.51243 2.87659 9.18684 2.87659 8.80252Z" fill="white"/>
<path d="M17.6537 8.17802L19.1436 3.9826H19.1757L20.6175 8.17802H17.6537ZM17.894 1.16431L13.5686 12.5976H16.0998L16.9969 10.0515H21.2743L22.1394 12.5976H24.7506L20.4733 1.16431H17.894Z" fill="white"/>
<path d="M28.941 1.16431V12.5976H37.0312V10.4839H31.4562V1.16431H28.941Z" fill="white"/>
<path d="M41.6413 1.16431V12.5976H50.3242V10.4839H44.1565V7.68161H49.6994V5.72802H44.1565V3.27803H50.1961V1.16431H41.6413Z" fill="white"/>
</svg>
