<svg width="243" height="365" viewBox="0 0 243 365" fill="none" xmlns="http://www.w3.org/2000/svg"><path d="M97.2 76.593c0-19.542-2.465-33.726-7.396-42.552-4.226-8.825-12.678-14.814-25.356-17.966-12.678-3.152-33.104-4.728-61.278-4.728C1.057 11.347 0 9.456 0 5.674 0 1.89 1.057 0 3.17 0c20.426 0 36.626.315 48.6.946l69.73.945 68.674-.945C202.148.316 218.7 0 239.83 0c2.113 0 3.17 1.891 3.17 5.674 0 3.782-1.057 5.673-3.17 5.673-26.765 0-46.839 1.891-60.221 5.674-12.679 3.152-21.483 9.14-26.413 17.966-4.931 8.826-7.396 22.694-7.396 41.606v211.814c0 19.542 2.113 33.726 6.339 42.552 4.931 8.825 13.735 14.814 26.413 17.966 12.678 3.152 33.105 4.728 61.278 4.728 2.113 0 3.17 1.891 3.17 5.673 0 3.783-1.057 5.674-3.17 5.674-20.426 0-36.626-.315-48.6-.946l-69.73-.945-68.674.945C40.852 364.685 24.3 365 3.17 365 1.057 365 0 363.109 0 359.326c0-3.782 1.057-5.673 3.17-5.673 26.765 0 46.487-1.576 59.165-4.728 13.382-3.782 22.539-10.086 27.47-18.912 4.93-8.826 7.395-22.694 7.395-41.606V76.593z" fill="#fff" fill-opacity=".6"/></svg>