<svg width="310" height="365" viewBox="0 0 310 365" fill="none" xmlns="http://www.w3.org/2000/svg"><path d="M1.38 354.317c54.605-40.951 96.938-75.374 127.001-103.268 30.677-27.895 52.764-53.118 66.262-75.671 14.111-22.553 21.167-44.809 21.167-66.768 0-24.927-7.976-44.512-23.928-58.756-15.952-14.838-36.199-22.256-60.74-22.256-24.541 0-46.015 9.199-64.42 27.597C48.316 73 34.204 99.707 24.388 135.317c0 .594-1.227.89-3.681.89-5.522 0-7.976-1.187-7.363-3.561L48.316 1.78c0-1.187 1.227-1.78 3.68-1.78 1.841 0 3.375.593 4.602 1.78 1.84.594 2.454 1.187 1.84 1.781-.613 2.374-.92 5.341-.92 8.902 0 9.496 4.602 14.244 13.805 14.244 5.522 0 14.725-2.077 27.609-6.231 9.203-2.374 19.633-4.748 31.29-7.122 11.657-2.374 23.007-3.561 34.051-3.561 30.676 0 54.911 8.309 72.703 24.926 18.406 16.025 27.609 37.39 27.609 64.098 0 20.179-6.442 40.358-19.326 60.537-12.271 20.179-32.517 43.028-60.74 68.548-28.222 25.521-67.488 56.976-117.797 94.366-2.455 1.781-3.375 3.265-2.761 4.451 1.227 1.187 3.374 1.781 6.442 1.781 71.783 0 120.865-.89 147.247-2.671 26.995-2.374 46.015-7.418 57.058-15.134 11.044-8.309 19.02-22.85 23.928-43.622.614-1.187 2.454-1.484 5.522-.89 3.681 0 5.522.593 5.522 1.78l-12.884 87.244c0 2.374-.921 4.748-2.761 7.122-1.227 1.781-3.068 2.671-5.522 2.671H7.823c-2.455 0-4.602-1.187-6.443-3.561-1.84-2.374-1.84-4.748 0-7.122z" fill="#FF3D00" fill-opacity=".2"/></svg>