<svg width="218" height="422" viewBox="0 0 218 422" fill="none" xmlns="http://www.w3.org/2000/svg"><path d="M123.879 172.096c30.311 2.056 53.394 11.308 69.249 27.757 16.322 16.038 24.482 35.159 24.482 57.365 0 20.561-7.461 41.328-22.383 62.3-14.456 21.384-36.607 41.122-66.452 59.216-29.844 18.505-66.684 32.897-110.518 43.178-1.866.411-3.498-.617-4.897-3.084-.932-2.056-.466-3.29 1.4-3.701 56.89-14.393 97.694-35.776 122.409-64.151 24.715-28.374 37.073-57.365 37.073-86.973 0-21.794-6.295-40.299-18.886-55.514-12.591-15.627-32.643-23.44-60.156-23.44-13.057 0-24.948 1.234-35.674 3.701-1.399.411-2.565-.617-3.497-3.084-.933-2.467-.467-3.907 1.399-4.318 37.306-8.224 63.42-19.738 78.342-34.542 15.389-14.804 23.083-34.749 23.083-59.833 0-20.972-5.362-37.627-16.088-49.963-10.725-12.337-27.28-18.505-49.663-18.505-20.519 0-37.773 5.963-51.762 17.888C27.35 48.318 16.39 67.234 8.464 93.141c-.467.412-1.4.617-2.798.617-4.197 0-6.062-.822-5.596-2.467L25.95 1.234C26.885.41 27.817 0 28.75 0c1.399 0 2.798.411 4.197 1.234 1.399.41 1.865.822 1.399 1.233-.933 3.29-1.4 5.552-1.4 6.785 0 6.991 3.965 10.487 11.892 10.487 5.13 0 12.124-1.645 20.985-4.935 9.793-2.879 18.42-4.935 25.88-6.168 7.462-1.645 15.623-2.468 24.483-2.468 25.181 0 45 6.991 59.456 20.973 14.456 13.57 21.684 30.019 21.684 49.346 0 19.739-6.528 38.449-19.585 56.131-13.058 17.683-31.011 30.842-53.861 39.478z" fill="#FF3D00" fill-opacity=".2"/></svg>