<svg width="218" height="422" viewBox="0 0 218 422" fill="none" xmlns="http://www.w3.org/2000/svg">
<path d="M123.879 172.096C154.19 174.152 177.273 183.404 193.128 199.853C209.45 215.891 217.61 235.012 217.61 257.218C217.61 277.779 210.149 298.546 195.227 319.518C180.771 340.902 158.62 360.64 128.775 378.734C98.9307 397.239 62.0911 411.631 18.2566 421.912C16.3913 422.323 14.7592 421.295 13.3602 418.828C12.4275 416.772 12.8939 415.538 14.7592 415.127C71.6507 400.734 112.454 379.351 137.169 350.976C161.884 322.602 174.242 293.611 174.242 264.003C174.242 242.209 167.947 223.704 155.356 208.489C142.765 192.862 122.713 185.049 95.2001 185.049C82.143 185.049 70.2517 186.283 59.5263 188.75C58.1273 189.161 56.9615 188.133 56.0289 185.666C55.0962 183.199 55.5625 181.759 57.4278 181.348C94.7338 173.124 120.848 161.61 135.77 146.806C151.159 132.002 158.853 112.057 158.853 86.9731C158.853 66.0008 153.491 49.3464 142.765 37.0098C132.04 24.6732 115.485 18.5049 93.1016 18.5049C72.5834 18.5049 55.3294 24.4676 41.3396 36.393C27.3499 48.3184 16.3913 67.2345 8.46379 93.1414C7.99746 93.5526 7.06481 93.7582 5.66584 93.7582C1.46892 93.7582 -0.396376 92.9358 0.0699489 91.2909L25.9509 1.23367C26.8836 0.411227 27.8162 0 28.7489 0C30.1479 0 31.5468 0.411227 32.9458 1.23367C34.3448 1.64488 34.8111 2.05609 34.3448 2.46731C33.4121 5.75707 32.9458 8.01881 32.9458 9.25247C32.9458 16.2432 36.9096 19.7386 44.8371 19.7386C49.9666 19.7386 56.9615 18.0937 65.8217 14.8039C75.6145 11.9254 84.2415 9.86928 91.7027 8.63562C99.1638 6.99073 107.325 6.16831 116.185 6.16831C141.366 6.16831 161.185 13.1591 175.641 27.1406C190.097 40.7108 197.325 57.1596 197.325 76.487C197.325 96.2255 190.797 114.936 177.74 132.618C164.682 150.301 146.729 163.46 123.879 172.096Z" fill="#FF3D00" fill-opacity="0.2"/>
</svg>
