<svg width="310" height="428" viewBox="0 0 310 428" fill="none" xmlns="http://www.w3.org/2000/svg"><path d="M305.452 258.401c1.035 0 1.812 1.699 2.33 5.096 1.035 2.911 1.553 6.308 1.553 10.19 0 3.882-.518 7.522-1.553 10.918-.518 2.912-1.295 4.368-2.33 4.368-17.087-.971-40.128-1.941-69.124-2.912v118.646c0 5.338-2.071 8.735-6.213 10.191l-24.853 11.646-4.66 1.456c-1.554 0-2.33-1.941-2.33-5.823V285.333c-32.62-.97-96.307-1.455-191.06-1.455-2.589 0-4.66-.971-6.213-2.912-1.554-1.941-1.295-3.882.776-5.823L224.678 1.456C225.714.486 227.267 0 229.338 0c1.554 0 3.107.485 4.66 1.456 1.554.485 2.33 1.456 2.33 2.911v255.49c12.945 0 35.986-.485 69.124-1.456zm-262.514 4.368c46.6 0 98.378-.486 155.334-1.456V62.599L39.055 257.673c-1.553 1.456-2.07 2.669-1.553 3.64 1.035.97 2.848 1.456 5.436 1.456z" fill="#FF3D00" fill-opacity=".2"/></svg>