<svg width="27" height="27" viewBox="0 0 27 27" fill="none" xmlns="http://www.w3.org/2000/svg"><path fill-rule="evenodd" clip-rule="evenodd" d="M0 13.5C0 6.044 6.044 0 13.5 0S27 6.044 27 13.5 20.956 27 13.5 27 0 20.956 0 13.5z" fill="url(#paint0_linear)"/><mask id="mask0" maskUnits="userSpaceOnUse" x="0" y="0" width="27" height="27"><path fill-rule="evenodd" clip-rule="evenodd" d="M0 13.5C0 6.044 6.044 0 13.5 0S27 6.044 27 13.5 20.956 27 13.5 27 0 20.956 0 13.5z" fill="#fff"/></mask><g mask="url(#mask0)"><path fill-rule="evenodd" clip-rule="evenodd" d="M13.501 6.3c-1.955 0-2.2.008-2.969.043-.766.035-1.29.157-1.747.335-.474.184-.876.43-1.276.83-.4.4-.646.802-.83 1.275-.18.458-.3.982-.335 1.748-.035.768-.044 1.013-.044 2.969 0 1.955.009 2.2.044 2.968.035.767.156 1.29.334 1.747.184.474.43.876.83 1.276.4.4.802.647 1.276.83.458.179.981.3 1.747.335.768.035 1.014.044 2.97.044 1.955 0 2.2-.009 2.967-.043.767-.036 1.29-.157 1.749-.335.473-.184.874-.43 1.274-.831.4-.4.647-.802.831-1.275.177-.458.299-.982.335-1.748.034-.768.043-1.013.043-2.968 0-1.956-.009-2.2-.043-2.969-.036-.766-.158-1.29-.335-1.747a3.534 3.534 0 00-.83-1.276 3.536 3.536 0 00-1.276-.83c-.459-.178-.982-.3-1.749-.335C15.7 6.308 15.455 6.3 13.5 6.3h.002zm-.646 1.297h.646c1.922 0 2.15.007 2.91.041.701.032 1.082.15 1.336.248.336.13.576.286.828.539.252.252.408.492.538.828.099.253.216.634.248 1.336.035.759.042.987.042 2.909 0 1.921-.007 2.15-.042 2.908-.032.702-.149 1.083-.248 1.337-.13.336-.286.575-.538.827a2.227 2.227 0 01-.828.538c-.253.1-.635.216-1.337.248-.759.035-.987.042-2.91.042-1.922 0-2.15-.007-2.909-.042-.701-.032-1.082-.15-1.336-.248a2.23 2.23 0 01-.828-.538 2.231 2.231 0 01-.54-.828c-.098-.254-.215-.634-.247-1.337-.035-.759-.042-.987-.042-2.91 0-1.922.007-2.149.042-2.908.032-.702.15-1.083.248-1.337a2.23 2.23 0 01.539-.828c.252-.252.492-.408.828-.538.253-.1.635-.216 1.336-.249.665-.03.922-.039 2.264-.04v.002zm4.49 1.196a.864.864 0 10-.001 1.728.864.864 0 000-1.729zM13.5 9.802a3.698 3.698 0 100 7.395 3.698 3.698 0 000-7.395zm0 1.298a2.4 2.4 0 110 4.8 2.4 2.4 0 010-4.8z" fill="#fff"/></g><defs><linearGradient id="paint0_linear" x1="22.327" y1="1.558" x2="7.788" y2="23.885" gradientUnits="userSpaceOnUse"><stop stop-color="#536DE8"/><stop offset=".367" stop-color="#A84CA7"/><stop offset=".751" stop-color="#FC3436"/><stop offset="1" stop-color="#FFA10D"/></linearGradient></defs></svg>