<svg width="117" height="225" viewBox="0 0 117 225" fill="none" xmlns="http://www.w3.org/2000/svg">
<path d="M18.064 51.5654C18.064 38.4178 16.4054 28.8751 13.0883 22.9375C10.2451 16.9998 4.55867 12.9707 -3.97099 10.8501C-12.5006 8.72956 -26.2429 7.66926 -45.1977 7.66926C-46.6193 7.66926 -47.3301 6.39692 -47.3301 3.85221C-47.3301 1.30751 -46.6193 0.0351562 -45.1977 0.0351562C-31.4554 0.0351562 -20.5564 0.247208 -12.5006 0.67132L34.4125 1.30752L80.6148 0.67132C88.6705 0.247208 99.8065 0.0351562 114.023 0.0351562C115.444 0.0351562 116.155 1.30751 116.155 3.85221C116.155 6.39692 115.444 7.66926 114.023 7.66926C96.0155 7.66926 82.5102 8.94161 73.5067 11.4863C64.9771 13.6069 59.0537 17.636 55.7366 23.5737C52.4195 29.5113 50.761 38.8419 50.761 51.5654V194.069C50.761 207.217 52.1826 216.759 55.0258 222.697C58.3429 228.634 64.2663 232.664 72.7959 234.784C81.3256 236.905 95.0678 237.965 114.023 237.965C115.444 237.965 116.155 239.237 116.155 241.782C116.155 244.327 115.444 245.599 114.023 245.599C100.28 245.599 89.3814 245.387 81.3256 244.963L34.4125 244.327L-11.7898 244.963C-19.8456 245.387 -30.9816 245.599 -45.1977 245.599C-46.6193 245.599 -47.3301 244.327 -47.3301 241.782C-47.3301 239.237 -46.6193 237.965 -45.1977 237.965C-27.1906 237.965 -13.9223 236.905 -5.3926 234.784C3.61092 232.239 9.77124 227.998 13.0883 222.061C16.4054 216.123 18.064 206.792 18.064 194.069V51.5654Z" fill="white" fill-opacity="0.6"/>
</svg>
